<?xml version="1.0" encoding="iso-8859-1"?>
<!-- Generator: Adobe Illustrator 16.0.0, SVG Export Plug-In . SVG Version: 6.00 Build 0)  -->
<!DOCTYPE svg PUBLIC "-//W3C//DTD SVG 1.1//EN" "http://www.w3.org/Graphics/SVG/1.1/DTD/svg11.dtd">
<svg version="1.1" id="Capa_1" xmlns="http://www.w3.org/2000/svg" xmlns:xlink="http://www.w3.org/1999/xlink" x="0px" y="0px"
	 width="40.042px" height="40.042px" viewBox="0 0 40.042 40.042" style="enable-background:new 0 0 40.042 40.042;"
	 xml:space="preserve">
<g>
	<g>
		<polygon points="22.376,5.062 17.666,5.062 20.022,9.143 		"/>
		<polygon points="16.488,5.062 11.778,5.062 14.133,9.143 		"/>
		<polygon points="22.965,14.242 25.32,10.163 20.61,10.163 		"/>
		<polygon points="17.078,14.242 19.432,10.163 14.721,10.163 		"/>
		<polygon points="13.543,10.163 8.834,10.163 11.189,14.242 		"/>
		<polygon points="7.656,10.163 2.945,10.163 5.301,14.242 		"/>
		<polygon points="2.357,10.501 0,14.583 4.711,14.583 		"/>
		<polygon points="10.599,14.583 8.245,10.501 5.889,14.583 		"/>
		<polygon points="11.778,14.583 16.488,14.583 14.133,10.501 		"/>
		<polygon points="20.022,10.501 17.666,14.583 22.376,14.583 		"/>
		<polygon points="28.264,14.583 25.91,10.501 23.555,14.583 		"/>
		<polygon points="31.798,10.501 29.443,14.583 34.152,14.583 		"/>
		<polygon points="37.688,10.501 35.331,14.583 40.042,14.583 		"/>
		<polygon points="34.152,15.262 29.443,15.262 31.798,19.34 		"/>
		<polygon points="28.264,15.262 23.555,15.262 25.91,19.34 		"/>
		<polygon points="22.376,15.262 17.666,15.262 20.022,19.34 		"/>
		<polygon points="11.778,15.262 14.133,19.34 16.488,15.262 		"/>
		<polygon points="8.245,19.34 10.599,15.262 5.889,15.262 		"/>
		<polygon points="0,15.262 2.357,19.34 4.711,15.262 		"/>
		<polygon points="5.301,15.602 2.945,19.681 7.656,19.681 		"/>
		<polygon points="8.834,19.681 13.543,19.681 11.189,15.602 		"/>
		<polygon points="19.432,19.681 17.078,15.602 14.721,19.681 		"/>
		<polygon points="22.965,15.602 20.61,19.681 25.32,19.681 		"/>
		<polygon points="31.209,19.681 28.854,15.602 26.499,19.681 		"/>
		<polygon points="37.098,19.681 34.743,15.602 32.387,19.681 		"/>
		<polygon points="26.499,20.361 28.854,24.44 31.209,20.361 		"/>
		<polygon points="32.387,20.361 34.743,24.44 37.098,20.361 		"/>
		<polygon points="23.555,24.78 28.264,24.78 25.91,20.701 		"/>
		<polygon points="29.443,24.78 34.152,24.78 31.798,20.701 		"/>
		<polygon points="37.688,19.34 40.042,15.262 35.331,15.262 		"/>
		<polygon points="35.331,24.78 40.042,24.78 37.688,20.701 		"/>
		<polygon points="31.798,29.541 34.152,25.461 29.443,25.461 		"/>
		<polygon points="25.91,29.541 28.264,25.461 23.555,25.461 		"/>
		<polygon points="17.666,25.461 20.022,29.541 22.376,25.461 		"/>
		<polygon points="14.721,29.879 19.432,29.879 17.078,25.801 		"/>
		<polygon points="20.61,29.879 25.32,29.879 22.965,25.801 		"/>
		<polygon points="22.965,34.64 25.32,30.56 20.61,30.56 		"/>
		<polygon points="17.078,34.64 19.432,30.56 14.721,30.56 		"/>
		<polygon points="11.189,34.64 13.543,30.56 8.834,30.56 		"/>
		<polygon points="5.889,34.979 10.599,34.979 8.245,30.9 		"/>
	</g>
</g>
<g>
</g>
<g>
</g>
<g>
</g>
<g>
</g>
<g>
</g>
<g>
</g>
<g>
</g>
<g>
</g>
<g>
</g>
<g>
</g>
<g>
</g>
<g>
</g>
<g>
</g>
<g>
</g>
<g>
</g>
</svg>
