<?xml version="1.0" encoding="iso-8859-1"?>
<!-- Generator: Adobe Illustrator 16.0.0, SVG Export Plug-In . SVG Version: 6.00 Build 0)  -->
<!DOCTYPE svg PUBLIC "-//W3C//DTD SVG 1.1//EN" "http://www.w3.org/Graphics/SVG/1.1/DTD/svg11.dtd">
<svg version="1.1" id="Capa_1" xmlns="http://www.w3.org/2000/svg" xmlns:xlink="http://www.w3.org/1999/xlink" x="0px" y="0px"
	 width="227.819px" height="227.819px" viewBox="0 0 227.819 227.819" style="enable-background:new 0 0 227.819 227.819;"
	 xml:space="preserve">
<g>
	<g>
		<polygon points="200.085,78.557 163.799,78.557 181.945,109.982 		"/>
		<polygon points="64.017,78.557 27.733,78.557 45.876,109.982 		"/>
		<polygon points="23.2,81.175 5.06,112.6 41.337,112.6 		"/>
		<polygon points="222.759,112.6 204.619,81.175 186.485,112.6 		"/>
		<polygon points="204.619,149.258 222.759,117.836 186.485,117.836 		"/>
		<polygon points="5.06,117.836 23.2,149.258 41.337,117.836 		"/>
		<polygon points="154.732,78.557 118.452,78.557 136.586,109.982 		"/>
		<polygon points="91.229,109.982 109.37,78.557 73.089,78.557 		"/>
		<polygon points="95.769,112.6 132.046,112.6 113.91,81.175 		"/>
		<polygon points="177.406,117.836 141.125,117.836 159.271,149.258 		"/>
		<polygon points="132.046,117.836 95.769,117.836 113.91,149.258 		"/>
		<polygon points="68.55,149.258 86.69,117.836 50.41,117.836 		"/>
		<polygon points="45.876,120.461 27.733,151.877 64.017,151.877 		"/>
		<polygon points="91.229,120.461 73.089,151.877 109.37,151.877 		"/>
		<polygon points="136.586,120.461 118.452,151.877 154.732,151.877 		"/>
		<polygon points="163.799,151.877 200.085,151.877 181.945,120.461 		"/>
		<polygon points="50.41,191.167 86.69,191.167 68.55,159.733 		"/>
		<polygon points="141.125,191.167 177.406,191.167 159.271,159.733 		"/>
		<polygon points="113.91,227.819 132.046,196.403 95.769,196.403 		"/>
		<polygon points="159.271,70.699 177.406,39.28 141.125,39.28 		"/>
		<polygon points="86.69,39.28 50.41,39.28 68.55,70.699 		"/>
		<polygon points="113.91,70.699 132.046,39.28 95.769,39.28 		"/>
		<polygon points="45.876,41.901 27.733,73.32 64.017,73.32 		"/>
		<polygon points="73.089,73.32 109.37,73.32 91.229,41.901 		"/>
		<polygon points="136.586,41.901 118.452,73.32 154.732,73.32 		"/>
		<polygon points="200.085,73.32 181.945,41.901 163.799,73.32 		"/>
		<polygon points="154.732,0 118.452,0 136.586,31.418 		"/>
		<polygon points="109.37,0 73.089,0 91.229,31.418 		"/>
	</g>
</g>
<g>
</g>
<g>
</g>
<g>
</g>
<g>
</g>
<g>
</g>
<g>
</g>
<g>
</g>
<g>
</g>
<g>
</g>
<g>
</g>
<g>
</g>
<g>
</g>
<g>
</g>
<g>
</g>
<g>
</g>
</svg>
