<?xml version="1.0" encoding="iso-8859-1"?>
<!-- Generator: Adobe Illustrator 16.0.0, SVG Export Plug-In . SVG Version: 6.00 Build 0)  -->
<!DOCTYPE svg PUBLIC "-//W3C//DTD SVG 1.1//EN" "http://www.w3.org/Graphics/SVG/1.1/DTD/svg11.dtd">
<svg version="1.1" id="Capa_1" xmlns="http://www.w3.org/2000/svg" xmlns:xlink="http://www.w3.org/1999/xlink" x="0px" y="0px"
	 width="39.94px" height="39.94px" viewBox="0 0 39.94 39.94" style="enable-background:new 0 0 39.94 39.94;" xml:space="preserve"
	>
<g>
	<g>
		<polygon points="36.497,8.44 30.988,8.44 33.742,13.212 		"/>
		<polygon points="29.611,8.44 24.102,8.44 26.856,13.212 		"/>
		<polygon points="10.329,8.44 13.084,13.212 15.838,8.44 		"/>
		<polygon points="8.952,8.44 3.443,8.44 6.198,13.212 		"/>
		<polygon points="2.755,8.839 0,13.61 5.509,13.61 		"/>
		<polygon points="6.887,13.61 12.395,13.61 9.641,8.839 		"/>
		<polygon points="19.281,13.61 16.527,8.839 13.773,13.61 		"/>
		<polygon points="23.413,8.839 20.659,13.61 26.167,13.61 		"/>
		<polygon points="30.299,8.839 27.545,13.61 33.053,13.61 		"/>
		<polygon points="39.94,13.61 37.186,8.839 34.432,13.61 		"/>
		<polygon points="33.053,14.405 27.545,14.405 30.299,19.176 		"/>
		<polygon points="37.186,19.176 39.94,14.405 34.432,14.405 		"/>
		<polygon points="26.167,14.405 20.659,14.405 23.413,19.176 		"/>
		<polygon points="13.773,14.405 16.527,19.176 19.281,14.405 		"/>
		<polygon points="9.641,19.176 12.395,14.405 6.887,14.405 		"/>
		<polygon points="0,14.405 2.755,19.176 5.509,14.405 		"/>
		<polygon points="3.443,19.572 8.952,19.572 6.198,14.802 		"/>
		<polygon points="13.084,14.802 10.329,19.572 15.838,19.572 		"/>
		<polygon points="22.725,19.572 19.97,14.802 17.216,19.572 		"/>
		<polygon points="26.856,14.802 24.102,19.572 29.611,19.572 		"/>
		<polygon points="30.988,19.572 36.497,19.572 33.742,14.802 		"/>
		<polygon points="33.053,2.477 27.545,2.477 30.299,7.248 		"/>
		<polygon points="12.395,2.477 6.887,2.477 9.641,7.248 		"/>
		<polygon points="6.198,2.875 3.443,7.646 8.952,7.646 		"/>
		<polygon points="15.838,7.646 13.084,2.875 10.329,7.646 		"/>
		<polygon points="26.856,2.875 24.102,7.646 29.611,7.646 		"/>
		<polygon points="36.497,7.646 33.742,2.875 30.988,7.646 		"/>
		<polygon points="33.742,25.139 36.497,20.367 30.988,20.367 		"/>
		<polygon points="29.611,20.367 24.102,20.367 26.856,25.139 		"/>
		<polygon points="22.725,20.367 17.216,20.367 19.97,25.139 		"/>
		<polygon points="13.084,25.139 15.838,20.367 10.329,20.367 		"/>
		<polygon points="3.443,20.367 6.198,25.139 8.952,20.367 		"/>
		<polygon points="12.395,25.537 9.641,20.766 6.887,25.537 		"/>
		<polygon points="16.527,20.766 13.773,25.537 19.281,25.537 		"/>
		<polygon points="23.413,20.766 20.659,25.537 26.167,25.537 		"/>
		<polygon points="27.545,25.537 33.053,25.537 30.299,20.766 		"/>
		<polygon points="30.299,31.103 33.053,26.332 27.545,26.332 		"/>
		<polygon points="26.167,26.332 20.659,26.332 23.413,31.103 		"/>
		<polygon points="19.281,26.332 13.773,26.332 16.527,31.103 		"/>
		<polygon points="6.887,26.332 9.641,31.103 12.395,26.332 		"/>
		<polygon points="15.838,31.5 13.084,26.729 10.329,31.5 		"/>
		<polygon points="19.97,26.729 17.216,31.5 22.725,31.5 		"/>
		<polygon points="24.102,31.5 29.611,31.5 26.856,26.729 		"/>
		<polygon points="26.856,37.066 29.611,32.296 24.102,32.296 		"/>
		<polygon points="17.216,32.296 19.97,37.066 22.725,32.296 		"/>
		<polygon points="10.329,32.296 13.084,37.066 15.838,32.296 		"/>
		<polygon points="13.773,37.464 19.281,37.464 16.527,32.693 		"/>
		<polygon points="20.659,37.464 26.167,37.464 23.413,32.693 		"/>
	</g>
</g>
<g>
</g>
<g>
</g>
<g>
</g>
<g>
</g>
<g>
</g>
<g>
</g>
<g>
</g>
<g>
</g>
<g>
</g>
<g>
</g>
<g>
</g>
<g>
</g>
<g>
</g>
<g>
</g>
<g>
</g>
</svg>
