<?xml version="1.0" encoding="iso-8859-1"?>
<!-- Generator: Adobe Illustrator 16.0.0, SVG Export Plug-In . SVG Version: 6.00 Build 0)  -->
<!DOCTYPE svg PUBLIC "-//W3C//DTD SVG 1.1//EN" "http://www.w3.org/Graphics/SVG/1.1/DTD/svg11.dtd">
<svg version="1.1" id="Capa_1" xmlns="http://www.w3.org/2000/svg" xmlns:xlink="http://www.w3.org/1999/xlink" x="0px" y="0px"
	 width="221.842px" height="221.842px" viewBox="0 0 221.842 221.842" style="enable-background:new 0 0 221.842 221.842;"
	 xml:space="preserve">
<g>
	<g>
		<polygon points="195.049,74.115 167.009,74.115 181.023,98.394 		"/>
		<polygon points="145.979,98.394 159.986,74.115 131.958,74.115 		"/>
		<polygon points="89.888,74.115 61.853,74.115 75.864,98.394 		"/>
		<polygon points="54.837,74.115 26.796,74.115 40.819,98.394 		"/>
		<polygon points="23.291,76.13 9.274,100.421 37.314,100.421 		"/>
		<polygon points="72.365,100.421 58.342,76.13 44.325,100.421 		"/>
		<polygon points="107.41,100.421 93.393,76.13 79.375,100.421 		"/>
		<polygon points="128.446,76.13 114.433,100.421 142.467,100.421 		"/>
		<polygon points="177.518,100.421 163.497,76.13 149.478,100.421 		"/>
		<polygon points="212.568,100.421 198.549,76.13 184.528,100.421 		"/>
		<polygon points="177.518,104.47 149.478,104.47 163.497,128.749 		"/>
		<polygon points="198.549,128.749 212.568,104.47 184.528,104.47 		"/>
		<polygon points="128.446,128.749 142.467,104.47 114.433,104.47 		"/>
		<polygon points="93.393,128.749 107.41,104.47 79.375,104.47 		"/>
		<polygon points="58.342,128.749 72.365,104.47 44.325,104.47 		"/>
		<polygon points="9.274,104.47 23.291,128.749 37.314,104.47 		"/>
		<polygon points="26.796,130.77 54.837,130.77 40.819,106.491 		"/>
		<polygon points="61.853,130.77 89.888,130.77 75.864,106.491 		"/>
		<polygon points="124.936,130.77 110.921,106.491 96.904,130.77 		"/>
		<polygon points="145.979,106.491 131.958,130.77 159.986,130.77 		"/>
		<polygon points="167.009,130.77 195.049,130.77 181.023,106.491 		"/>
		<polygon points="181.023,159.106 195.049,134.825 167.009,134.825 		"/>
		<polygon points="159.986,134.825 131.958,134.825 145.979,159.106 		"/>
		<polygon points="124.936,134.825 96.904,134.825 110.921,159.106 		"/>
		<polygon points="75.864,159.106 89.888,134.825 61.853,134.825 		"/>
		<polygon points="26.796,134.825 40.819,159.106 54.837,134.825 		"/>
		<polygon points="72.365,161.133 58.342,136.846 44.325,161.133 		"/>
		<polygon points="93.393,136.846 79.375,161.133 107.41,161.133 		"/>
		<polygon points="128.446,136.846 114.433,161.133 142.467,161.133 		"/>
		<polygon points="149.478,161.133 177.518,161.133 163.497,136.846 		"/>
		<polygon points="163.497,189.463 177.518,165.182 149.478,165.182 		"/>
		<polygon points="142.467,165.182 114.433,165.182 128.446,189.463 		"/>
		<polygon points="107.41,165.182 79.375,165.182 93.393,189.463 		"/>
		<polygon points="44.325,165.182 58.342,189.463 72.365,165.182 		"/>
		<polygon points="89.888,191.485 75.864,167.204 61.853,191.485 		"/>
		<polygon points="110.921,167.204 96.904,191.485 124.936,191.485 		"/>
		<polygon points="131.958,191.485 159.986,191.485 145.979,167.204 		"/>
		<polygon points="145.979,219.821 159.986,195.528 131.958,195.528 		"/>
		<polygon points="96.904,195.528 110.921,219.821 124.936,195.528 		"/>
		<polygon points="61.853,195.528 75.864,219.821 89.888,195.528 		"/>
		<polygon points="79.375,221.842 107.41,221.842 93.393,197.561 		"/>
		<polygon points="114.433,221.842 142.467,221.842 128.446,197.561 		"/>
		<polygon points="80.283,18.947 80.283,49.263 106.544,34.114 		"/>
		<polygon points="108.737,37.897 82.479,53.052 108.737,68.213 		"/>
		<polygon points="108.737,0 82.479,15.164 108.737,30.319 		"/>
		<polygon points="113.103,0 113.103,30.319 139.364,15.164 		"/>
		<polygon points="113.103,37.897 113.103,68.213 139.364,53.052 		"/>
		<polygon points="141.557,49.263 141.557,18.947 115.301,34.114 		"/>
	</g>
</g>
<g>
</g>
<g>
</g>
<g>
</g>
<g>
</g>
<g>
</g>
<g>
</g>
<g>
</g>
<g>
</g>
<g>
</g>
<g>
</g>
<g>
</g>
<g>
</g>
<g>
</g>
<g>
</g>
<g>
</g>
</svg>
