<?xml version="1.0" encoding="iso-8859-1"?>
<!-- Generator: Adobe Illustrator 16.0.0, SVG Export Plug-In . SVG Version: 6.00 Build 0)  -->
<!DOCTYPE svg PUBLIC "-//W3C//DTD SVG 1.1//EN" "http://www.w3.org/Graphics/SVG/1.1/DTD/svg11.dtd">
<svg version="1.1" id="Capa_1" xmlns="http://www.w3.org/2000/svg" xmlns:xlink="http://www.w3.org/1999/xlink" x="0px" y="0px"
	 width="202.68px" height="202.681px" viewBox="0 0 202.68 202.681" style="enable-background:new 0 0 202.68 202.681;"
	 xml:space="preserve">
<g>
	<g>
		<polygon points="80.229,50.147 63.343,79.399 97.114,79.399 		"/>
		<polygon points="122.447,50.147 105.566,79.399 139.34,79.399 		"/>
		<polygon points="59.11,86.711 42.223,115.969 76.003,115.969 		"/>
		<polygon points="101.34,86.711 84.453,115.969 118.227,115.969 		"/>
		<polygon points="143.573,86.711 126.679,115.969 160.454,115.969 		"/>
		<polygon points="101.34,13.577 84.453,42.83 118.227,42.83 		"/>
		<polygon points="38.006,123.281 21.113,152.533 54.893,152.533 		"/>
		<polygon points="80.229,123.281 63.343,152.533 97.114,152.533 		"/>
		<polygon points="122.447,123.281 105.566,152.533 139.34,152.533 		"/>
		<polygon points="164.673,123.281 147.787,152.533 181.567,152.533 		"/>
		<polygon points="16.893,159.851 0,189.104 33.78,189.104 		"/>
		<polygon points="59.11,159.851 42.223,189.104 76.003,189.104 		"/>
		<polygon points="101.34,159.851 84.453,189.104 118.227,189.104 		"/>
		<polygon points="143.573,159.851 126.679,189.104 160.454,189.104 		"/>
		<polygon points="185.787,159.851 168.9,189.104 202.68,189.104 		"/>
	</g>
</g>
<g>
</g>
<g>
</g>
<g>
</g>
<g>
</g>
<g>
</g>
<g>
</g>
<g>
</g>
<g>
</g>
<g>
</g>
<g>
</g>
<g>
</g>
<g>
</g>
<g>
</g>
<g>
</g>
<g>
</g>
</svg>
