<?xml version="1.0" encoding="iso-8859-1"?>
<!-- Generator: Adobe Illustrator 16.0.0, SVG Export Plug-In . SVG Version: 6.00 Build 0)  -->
<!DOCTYPE svg PUBLIC "-//W3C//DTD SVG 1.1//EN" "http://www.w3.org/Graphics/SVG/1.1/DTD/svg11.dtd">
<svg version="1.1" id="Capa_1" xmlns="http://www.w3.org/2000/svg" xmlns:xlink="http://www.w3.org/1999/xlink" x="0px" y="0px"
	 width="36.211px" height="36.21px" viewBox="0 0 36.211 36.21" style="enable-background:new 0 0 36.211 36.21;"
	 xml:space="preserve">
<g>
	<g>
		<polygon points="0,15.255 0,20.958 4.938,18.105 		"/>
		<polygon points="6.585,18.105 11.522,20.958 11.52,15.255 		"/>
		<polygon points="24.689,15.255 24.689,20.958 29.627,18.105 		"/>
		<polygon points="31.273,18.105 36.211,20.958 36.211,15.255 		"/>
		<polygon points="6.585,32.361 11.522,35.211 11.522,29.511 		"/>
		<polygon points="12.344,28.084 17.284,25.234 12.344,22.382 		"/>
		<polygon points="18.928,10.979 23.867,13.83 23.867,8.126 		"/>
		<polygon points="24.689,6.702 29.627,3.851 24.689,1 		"/>
		<polygon points="24.689,35.211 29.627,32.361 24.689,29.511 		"/>
		<polygon points="23.867,28.084 23.867,22.381 18.928,25.234 		"/>
		<polygon points="12.344,13.829 17.282,10.979 12.344,8.126 		"/>
		<polygon points="11.52,6.702 11.52,1 6.584,3.851 		"/>
	</g>
</g>
<g>
</g>
<g>
</g>
<g>
</g>
<g>
</g>
<g>
</g>
<g>
</g>
<g>
</g>
<g>
</g>
<g>
</g>
<g>
</g>
<g>
</g>
<g>
</g>
<g>
</g>
<g>
</g>
<g>
</g>
</svg>
