<?xml version="1.0" encoding="iso-8859-1"?>
<!-- Generator: Adobe Illustrator 16.0.0, SVG Export Plug-In . SVG Version: 6.00 Build 0)  -->
<!DOCTYPE svg PUBLIC "-//W3C//DTD SVG 1.1//EN" "http://www.w3.org/Graphics/SVG/1.1/DTD/svg11.dtd">
<svg version="1.1" id="Capa_1" xmlns="http://www.w3.org/2000/svg" xmlns:xlink="http://www.w3.org/1999/xlink" x="0px" y="0px"
	 width="196.368px" height="196.368px" viewBox="0 0 196.368 196.368" style="enable-background:new 0 0 196.368 196.368;"
	 xml:space="preserve">
<g>
	<g>
		<polygon points="72.99,46.751 72.99,71.689 94.579,59.22 		"/>
		<polygon points="72.99,77.922 72.99,102.854 94.579,90.391 		"/>
		<polygon points="72.99,109.089 72.99,134.021 94.579,121.556 		"/>
		<polygon points="72.99,140.263 72.99,165.194 94.579,152.729 		"/>
		<polygon points="72.99,196.368 94.579,183.896 72.99,171.431 		"/>
		<polygon points="96.384,180.781 96.384,155.844 74.787,168.315 		"/>
		<polygon points="96.384,149.613 96.384,124.67 74.787,137.147 		"/>
		<polygon points="96.384,118.446 96.384,93.509 74.787,105.98 		"/>
		<polygon points="96.384,87.276 96.384,62.338 74.787,74.807 		"/>
		<polygon points="96.384,56.103 96.384,31.174 74.787,43.634 		"/>
		<polygon points="99.984,62.338 99.984,87.276 121.582,74.807 		"/>
		<polygon points="99.984,31.174 99.984,56.103 121.582,43.634 		"/>
		<polygon points="99.984,93.509 99.984,118.446 121.582,105.98 		"/>
		<polygon points="99.984,124.67 99.984,149.613 121.582,137.147 		"/>
		<polygon points="99.984,155.844 99.984,180.781 121.582,168.315 		"/>
		<polygon points="123.378,196.368 123.378,171.431 101.784,183.896 		"/>
		<polygon points="123.378,165.194 123.378,140.263 101.784,152.729 		"/>
		<polygon points="123.378,134.021 123.378,109.089 101.784,121.556 		"/>
		<polygon points="123.378,102.854 123.378,77.922 101.784,90.391 		"/>
		<polygon points="123.378,71.689 123.378,46.751 101.784,59.22 		"/>
		<polygon points="72.99,15.587 72.99,40.519 94.579,28.056 		"/>
		<polygon points="123.378,40.519 123.378,15.587 101.784,28.056 		"/>
		<polygon points="19,109.089 19,134.021 40.596,121.556 		"/>
		<polygon points="19,140.263 19,165.194 40.596,152.729 		"/>
		<polygon points="19,196.368 40.596,183.896 19,171.431 		"/>
		<polygon points="42.396,180.781 42.396,155.844 20.803,168.315 		"/>
		<polygon points="42.396,149.613 42.396,124.67 20.803,137.147 		"/>
		<polygon points="42.396,118.446 42.396,93.509 20.803,105.98 		"/>
		<polygon points="45.995,93.509 45.995,118.446 67.584,105.98 		"/>
		<polygon points="45.995,124.67 45.995,149.613 67.584,137.147 		"/>
		<polygon points="45.995,155.844 45.995,180.781 67.584,168.315 		"/>
		<polygon points="69.39,196.368 69.39,171.431 47.792,183.896 		"/>
		<polygon points="69.39,165.194 69.39,140.263 47.792,152.729 		"/>
		<polygon points="69.39,134.021 69.39,109.089 47.792,121.556 		"/>
		<polygon points="126.979,46.751 126.979,71.689 148.577,59.22 		"/>
		<polygon points="126.979,77.922 126.979,102.854 148.577,90.391 		"/>
		<polygon points="126.979,109.089 126.979,134.021 148.577,121.556 		"/>
		<polygon points="126.979,140.263 126.979,165.194 148.577,152.729 		"/>
		<polygon points="126.979,196.368 148.577,183.896 126.979,171.431 		"/>
		<polygon points="150.374,180.781 150.374,155.844 128.788,168.315 		"/>
		<polygon points="150.374,149.613 150.374,124.67 128.788,137.147 		"/>
		<polygon points="150.374,118.446 150.374,93.509 128.788,105.98 		"/>
		<polygon points="150.374,87.276 150.374,62.338 128.788,74.807 		"/>
		<polygon points="128.788,43.634 150.374,56.103 150.368,31.174 		"/>
		<polygon points="153.973,62.338 153.973,87.276 175.571,74.807 		"/>
		<polygon points="153.973,31.174 153.973,56.103 175.571,43.634 		"/>
		<polygon points="153.973,93.509 153.973,118.446 175.571,105.98 		"/>
		<polygon points="153.973,124.67 153.973,149.613 175.571,137.147 		"/>
		<polygon points="153.973,155.844 153.973,180.781 175.571,168.315 		"/>
		<polygon points="177.368,196.368 177.368,171.431 155.776,183.896 		"/>
		<polygon points="177.368,165.194 177.368,140.263 155.776,152.729 		"/>
		<polygon points="177.368,134.021 177.368,109.089 155.776,121.556 		"/>
		<polygon points="177.368,102.854 177.368,77.922 155.776,90.391 		"/>
		<polygon points="155.776,59.22 177.368,71.689 177.368,46.751 		"/>
		<polygon points="96.384,24.932 96.384,0 74.787,12.463 		"/>
		<polygon points="99.984,0 99.984,24.932 121.582,12.463 		"/>
	</g>
</g>
<g>
</g>
<g>
</g>
<g>
</g>
<g>
</g>
<g>
</g>
<g>
</g>
<g>
</g>
<g>
</g>
<g>
</g>
<g>
</g>
<g>
</g>
<g>
</g>
<g>
</g>
<g>
</g>
<g>
</g>
</svg>
