<?xml version="1.0" encoding="iso-8859-1"?>
<!-- Generator: Adobe Illustrator 16.0.0, SVG Export Plug-In . SVG Version: 6.00 Build 0)  -->
<!DOCTYPE svg PUBLIC "-//W3C//DTD SVG 1.1//EN" "http://www.w3.org/Graphics/SVG/1.1/DTD/svg11.dtd">
<svg version="1.1" id="Capa_1" xmlns="http://www.w3.org/2000/svg" xmlns:xlink="http://www.w3.org/1999/xlink" x="0px" y="0px"
	 width="34.826px" height="34.827px" viewBox="0 0 34.826 34.827" style="enable-background:new 0 0 34.826 34.827;"
	 xml:space="preserve">
<g>
	<g>
		<polygon points="27.145,11.055 23.048,11.055 25.098,14.604 		"/>
		<polygon points="16.901,11.055 12.803,11.055 14.851,14.604 		"/>
		<polygon points="6.656,11.055 2.559,11.055 4.608,14.604 		"/>
		<polygon points="27.145,2.184 23.048,2.184 25.098,5.733 		"/>
		<polygon points="16.901,2.184 12.803,2.184 14.851,5.733 		"/>
		<polygon points="6.656,2.184 2.559,2.184 4.608,5.733 		"/>
		<polygon points="9.218,6.028 7.17,2.48 5.121,6.028 		"/>
		<polygon points="19.462,6.028 17.413,2.48 15.364,6.028 		"/>
		<polygon points="29.705,6.028 27.656,2.48 25.607,6.028 		"/>
		<polygon points="27.656,10.168 29.705,6.62 25.607,6.62 		"/>
		<polygon points="15.364,6.62 17.413,10.168 19.462,6.62 		"/>
		<polygon points="5.121,6.62 7.17,10.168 9.218,6.62 		"/>
		<polygon points="4.608,6.915 2.559,10.464 6.656,10.464 		"/>
		<polygon points="14.851,6.915 12.803,10.464 16.901,10.464 		"/>
		<polygon points="25.098,6.915 23.048,10.464 27.145,10.464 		"/>
		<polygon points="24.583,15.491 20.486,15.491 22.535,19.04 		"/>
		<polygon points="25.607,15.491 27.656,19.04 29.705,15.491 		"/>
		<polygon points="17.413,19.04 19.462,15.491 15.364,15.491 		"/>
		<polygon points="14.34,15.491 10.243,15.491 12.291,19.04 		"/>
		<polygon points="7.17,19.04 9.218,15.491 5.121,15.491 		"/>
		<polygon points="0,15.491 2.048,19.04 4.097,15.491 		"/>
		<polygon points="2.559,19.334 6.656,19.334 4.608,15.787 		"/>
		<polygon points="11.778,19.334 9.73,15.787 7.682,19.334 		"/>
		<polygon points="12.803,19.334 16.901,19.334 14.851,15.787 		"/>
		<polygon points="22.023,19.334 19.975,15.787 17.925,19.334 		"/>
		<polygon points="23.048,19.334 27.145,19.334 25.098,15.787 		"/>
		<polygon points="32.268,19.334 30.219,15.787 28.17,19.334 		"/>
		<polygon points="25.098,23.476 27.145,19.927 23.048,19.927 		"/>
		<polygon points="17.925,28.208 22.023,28.208 19.975,24.659 		"/>
		<polygon points="30.219,23.476 32.268,19.927 28.17,19.927 		"/>
		<polygon points="28.17,28.208 32.268,28.208 30.219,24.659 		"/>
		<polygon points="19.975,32.347 22.023,28.799 17.925,28.799 		"/>
		<polygon points="22.023,19.927 17.925,19.927 19.975,23.476 		"/>
		<polygon points="14.851,23.476 16.901,19.927 12.803,19.927 		"/>
		<polygon points="9.73,23.476 11.778,19.927 7.682,19.927 		"/>
		<polygon points="2.559,19.927 4.608,23.476 6.656,19.927 		"/>
		<polygon points="9.218,23.771 7.17,20.223 5.121,23.771 		"/>
		<polygon points="10.243,23.771 14.34,23.771 12.291,20.223 		"/>
		<polygon points="17.413,20.223 15.364,23.771 19.462,23.771 		"/>
		<polygon points="22.535,20.223 20.486,23.771 24.583,23.771 		"/>
		<polygon points="20.486,24.364 22.535,27.911 24.583,24.364 		"/>
		<polygon points="19.462,24.364 15.364,24.364 17.413,27.911 		"/>
		<polygon points="14.34,24.364 10.243,24.364 12.291,27.911 		"/>
		<polygon points="5.121,24.364 7.17,27.911 9.218,24.364 		"/>
		<polygon points="11.778,28.208 9.73,24.659 7.682,28.208 		"/>
		<polygon points="14.851,24.659 12.803,28.208 16.901,28.208 		"/>
		<polygon points="23.048,28.208 27.145,28.208 25.098,24.659 		"/>
		<polygon points="12.803,28.799 14.851,32.347 16.901,28.799 		"/>
		<polygon points="7.682,28.799 9.73,32.347 11.778,28.799 		"/>
		<polygon points="10.243,32.642 14.34,32.642 12.291,29.094 		"/>
		<polygon points="15.364,32.642 19.462,32.642 17.413,29.094 		"/>
		<polygon points="34.826,23.771 32.778,20.223 30.729,23.771 		"/>
		<polygon points="32.778,27.911 34.826,24.364 30.729,24.364 		"/>
	</g>
</g>
<g>
</g>
<g>
</g>
<g>
</g>
<g>
</g>
<g>
</g>
<g>
</g>
<g>
</g>
<g>
</g>
<g>
</g>
<g>
</g>
<g>
</g>
<g>
</g>
<g>
</g>
<g>
</g>
<g>
</g>
</svg>
