<?xml version="1.0" encoding="iso-8859-1"?>
<!-- Generator: Adobe Illustrator 16.0.0, SVG Export Plug-In . SVG Version: 6.00 Build 0)  -->
<!DOCTYPE svg PUBLIC "-//W3C//DTD SVG 1.1//EN" "http://www.w3.org/Graphics/SVG/1.1/DTD/svg11.dtd">
<svg version="1.1" id="Capa_1" xmlns="http://www.w3.org/2000/svg" xmlns:xlink="http://www.w3.org/1999/xlink" x="0px" y="0px"
	 width="243.523px" height="243.523px" viewBox="0 0 243.523 243.523" style="enable-background:new 0 0 243.523 243.523;"
	 xml:space="preserve">
<g>
	<g>
		<polygon points="65.902,100.075 65.902,126.768 89.01,113.427 		"/>
		<polygon points="65.902,133.441 65.902,160.128 89.01,146.787 		"/>
		<polygon points="65.902,166.802 65.902,193.482 89.01,180.148 		"/>
		<polygon points="65.902,200.162 65.902,226.843 89.01,213.502 		"/>
		<polygon points="90.943,243.523 90.943,216.836 67.826,230.183 		"/>
		<polygon points="90.943,210.163 90.943,183.481 67.826,196.816 		"/>
		<polygon points="90.943,176.803 90.943,150.121 67.826,163.468 		"/>
		<polygon points="90.943,143.448 90.943,116.755 67.826,130.107 		"/>
		<polygon points="90.943,110.085 90.943,83.395 67.826,96.747 		"/>
		<polygon points="94.791,50.037 94.791,76.725 117.905,63.384 		"/>
		<polygon points="94.791,16.683 94.791,43.361 117.905,30.026 		"/>
		<polygon points="94.791,83.395 94.791,110.085 117.905,96.747 		"/>
		<polygon points="94.791,116.755 94.791,143.448 117.905,130.107 		"/>
		<polygon points="94.791,150.121 94.791,176.803 117.905,163.468 		"/>
		<polygon points="94.791,183.481 94.791,210.163 117.905,196.816 		"/>
		<polygon points="94.791,243.523 117.905,230.183 94.791,216.836 		"/>
		<polygon points="119.838,226.843 119.838,200.162 96.715,213.502 		"/>
		<polygon points="119.838,193.482 119.838,166.802 96.715,180.148 		"/>
		<polygon points="119.838,160.128 119.838,133.441 96.715,146.787 		"/>
		<polygon points="119.838,126.768 119.838,100.075 96.715,113.427 		"/>
		<polygon points="119.838,93.404 119.838,66.721 96.715,80.064 		"/>
		<polygon points="119.838,60.041 119.838,33.363 96.715,46.709 		"/>
		<polygon points="119.838,26.687 119.838,0 96.715,13.346 		"/>
		<polygon points="123.68,33.363 123.68,60.041 146.803,46.709 		"/>
		<polygon points="123.68,66.721 123.68,93.404 146.803,80.064 		"/>
		<polygon points="123.68,100.075 123.68,126.768 146.803,113.427 		"/>
		<polygon points="123.68,133.441 123.68,160.128 146.803,146.787 		"/>
		<polygon points="123.68,166.802 123.68,193.482 146.803,180.148 		"/>
		<polygon points="123.68,200.162 123.68,226.843 146.803,213.502 		"/>
		<polygon points="148.724,243.523 148.724,216.836 125.618,230.183 		"/>
		<polygon points="148.724,210.163 148.724,183.481 125.618,196.816 		"/>
		<polygon points="148.724,176.803 148.724,150.121 125.618,163.468 		"/>
		<polygon points="148.724,143.448 148.724,116.755 125.618,130.107 		"/>
		<polygon points="148.724,76.725 148.724,50.037 125.618,63.384 		"/>
		<polygon points="148.724,43.361 148.724,16.683 125.618,30.026 		"/>
		<polygon points="152.577,83.395 152.577,110.085 175.688,96.747 		"/>
		<polygon points="152.577,243.523 175.688,230.183 152.577,216.836 		"/>
		<polygon points="177.621,226.843 177.621,200.162 154.504,213.502 		"/>
		<polygon points="177.621,193.482 177.621,166.802 154.504,180.148 		"/>
		<polygon points="177.621,160.128 177.621,133.441 154.504,146.787 		"/>
		<polygon points="154.504,113.427 177.621,126.768 177.621,100.075 		"/>
		<polygon points="123.68,0 123.68,26.687 146.803,13.346 		"/>
	</g>
</g>
<g>
</g>
<g>
</g>
<g>
</g>
<g>
</g>
<g>
</g>
<g>
</g>
<g>
</g>
<g>
</g>
<g>
</g>
<g>
</g>
<g>
</g>
<g>
</g>
<g>
</g>
<g>
</g>
<g>
</g>
</svg>
