<?xml version="1.0" encoding="iso-8859-1"?>
<!-- Generator: Adobe Illustrator 16.0.0, SVG Export Plug-In . SVG Version: 6.00 Build 0)  -->
<!DOCTYPE svg PUBLIC "-//W3C//DTD SVG 1.1//EN" "http://www.w3.org/Graphics/SVG/1.1/DTD/svg11.dtd">
<svg version="1.1" id="Capa_1" xmlns="http://www.w3.org/2000/svg" xmlns:xlink="http://www.w3.org/1999/xlink" x="0px" y="0px"
	 width="38.506px" height="38.506px" viewBox="0 0 38.506 38.506" style="enable-background:new 0 0 38.506 38.506;"
	 xml:space="preserve">
<g>
	<g>
		<polygon points="6.269,16.151 6.269,22.355 11.642,19.254 		"/>
		<polygon points="6.717,23.131 12.089,26.232 12.089,20.028 		"/>
		<polygon points="6.717,15.376 12.089,18.478 12.089,12.274 		"/>
		<polygon points="12.984,12.274 12.984,18.478 18.357,15.376 		"/>
		<polygon points="12.984,20.028 12.984,26.232 18.357,23.131 		"/>
		<polygon points="13.433,27.008 18.806,30.109 18.806,23.906 		"/>
		<polygon points="13.433,11.499 18.806,14.601 18.806,8.396 		"/>
		<polygon points="0,19.254 5.373,22.355 5.373,16.151 		"/>
		<polygon points="19.701,8.396 19.701,14.601 25.072,11.499 		"/>
		<polygon points="19.701,23.906 19.701,30.109 25.072,27.008 		"/>
		<polygon points="20.148,23.131 25.521,26.232 25.521,20.028 		"/>
		<polygon points="20.148,15.376 25.521,18.478 25.521,12.274 		"/>
		<polygon points="26.417,12.274 26.417,18.478 31.79,15.376 		"/>
		<polygon points="26.417,20.028 26.417,26.232 31.79,23.131 		"/>
		<polygon points="26.863,19.254 32.236,22.355 32.236,16.151 		"/>
		<polygon points="33.133,16.151 33.133,22.355 38.506,19.254 		"/>
	</g>
</g>
<g>
</g>
<g>
</g>
<g>
</g>
<g>
</g>
<g>
</g>
<g>
</g>
<g>
</g>
<g>
</g>
<g>
</g>
<g>
</g>
<g>
</g>
<g>
</g>
<g>
</g>
<g>
</g>
<g>
</g>
</svg>
