<?xml version="1.0" encoding="iso-8859-1"?>
<!-- Generator: Adobe Illustrator 16.0.0, SVG Export Plug-In . SVG Version: 6.00 Build 0)  -->
<!DOCTYPE svg PUBLIC "-//W3C//DTD SVG 1.1//EN" "http://www.w3.org/Graphics/SVG/1.1/DTD/svg11.dtd">
<svg version="1.1" id="Capa_1" xmlns="http://www.w3.org/2000/svg" xmlns:xlink="http://www.w3.org/1999/xlink" x="0px" y="0px"
	 width="227.033px" height="227.032px" viewBox="0 0 227.033 227.032" style="enable-background:new 0 0 227.033 227.032;"
	 xml:space="preserve">
<g>
	<g>
		<polygon points="118.239,54.802 137.166,87.571 156.085,54.802 		"/>
		<polygon points="70.947,54.802 89.868,87.571 108.791,54.802 		"/>
		<polygon points="179.735,90.302 160.808,57.532 141.894,90.302 		"/>
		<polygon points="160.808,128.532 179.735,95.761 141.894,95.761 		"/>
		<polygon points="132.437,13.84 94.596,13.84 113.516,46.606 		"/>
		<polygon points="89.868,16.568 70.947,49.337 108.791,49.337 		"/>
		<polygon points="156.085,49.337 137.166,16.568 118.239,49.337 		"/>
		<polygon points="66.221,128.532 85.136,95.761 47.301,95.761 		"/>
		<polygon points="42.566,98.497 23.646,131.275 61.481,131.275 		"/>
		<polygon points="61.481,136.731 23.646,136.731 42.566,169.5 		"/>
		<polygon points="18.92,139.462 0,172.231 37.835,172.231 		"/>
		<polygon points="66.221,210.468 85.136,177.698 47.301,177.698 		"/>
		<polygon points="0,177.698 18.92,210.468 37.835,177.698 		"/>
		<polygon points="23.646,213.192 61.481,213.192 42.566,180.429 		"/>
		<polygon points="184.463,169.5 203.389,136.731 165.548,136.731 		"/>
		<polygon points="227.033,172.231 208.112,139.462 189.198,172.231 		"/>
		<polygon points="208.112,210.468 227.033,177.698 189.198,177.698 		"/>
		<polygon points="141.894,177.698 160.808,210.468 179.735,177.698 		"/>
		<polygon points="94.596,177.698 113.516,210.468 132.437,177.698 		"/>
		<polygon points="118.239,213.192 156.085,213.192 137.166,180.429 		"/>
		<polygon points="165.548,213.192 203.389,213.192 184.463,180.429 		"/>
	</g>
</g>
<g>
</g>
<g>
</g>
<g>
</g>
<g>
</g>
<g>
</g>
<g>
</g>
<g>
</g>
<g>
</g>
<g>
</g>
<g>
</g>
<g>
</g>
<g>
</g>
<g>
</g>
<g>
</g>
<g>
</g>
</svg>
