<?xml version="1.0" encoding="iso-8859-1"?>
<!-- Generator: Adobe Illustrator 16.0.0, SVG Export Plug-In . SVG Version: 6.00 Build 0)  -->
<!DOCTYPE svg PUBLIC "-//W3C//DTD SVG 1.1//EN" "http://www.w3.org/Graphics/SVG/1.1/DTD/svg11.dtd">
<svg version="1.1" id="Capa_1" xmlns="http://www.w3.org/2000/svg" xmlns:xlink="http://www.w3.org/1999/xlink" x="0px" y="0px"
	 width="220.92px" height="220.92px" viewBox="0 0 220.92 220.92" style="enable-background:new 0 0 220.92 220.92;"
	 xml:space="preserve">
<g>
	<g>
		<polygon points="76.391,220.92 118.321,220.92 97.362,184.605 		"/>
		<polygon points="155.016,0 175.987,36.316 196.946,0 		"/>
		<polygon points="97.362,3.026 76.391,39.342 118.321,39.342 		"/>
		<polygon points="128.808,39.342 170.738,39.342 149.778,3.026 		"/>
		<polygon points="118.321,45.395 76.391,45.395 97.362,81.71 		"/>
		<polygon points="144.53,90.79 102.599,90.79 123.57,127.105 		"/>
		<polygon points="92.116,90.79 50.182,90.79 71.153,127.105 		"/>
		<polygon points="44.945,93.816 23.974,130.131 65.908,130.131 		"/>
		<polygon points="97.362,93.816 76.391,130.131 118.321,130.131 		"/>
		<polygon points="128.808,130.131 170.738,130.131 149.778,93.816 		"/>
		<polygon points="149.778,172.5 170.738,136.184 128.808,136.184 		"/>
		<polygon points="118.321,136.184 76.391,136.184 97.362,172.5 		"/>
		<polygon points="23.974,136.184 44.945,172.5 65.908,136.184 		"/>
		<polygon points="50.182,175.526 92.116,175.526 71.153,139.21 		"/>
		<polygon points="102.599,175.526 144.53,175.526 123.57,139.21 		"/>
		<polygon points="123.57,217.895 144.53,181.579 102.599,181.579 		"/>
		<polygon points="50.182,181.579 71.153,217.895 92.116,181.579 		"/>
	</g>
</g>
<g>
</g>
<g>
</g>
<g>
</g>
<g>
</g>
<g>
</g>
<g>
</g>
<g>
</g>
<g>
</g>
<g>
</g>
<g>
</g>
<g>
</g>
<g>
</g>
<g>
</g>
<g>
</g>
<g>
</g>
</svg>
