<?xml version="1.0" encoding="iso-8859-1"?>
<!-- Generator: Adobe Illustrator 16.0.0, SVG Export Plug-In . SVG Version: 6.00 Build 0)  -->
<!DOCTYPE svg PUBLIC "-//W3C//DTD SVG 1.1//EN" "http://www.w3.org/Graphics/SVG/1.1/DTD/svg11.dtd">
<svg version="1.1" id="Capa_1" xmlns="http://www.w3.org/2000/svg" xmlns:xlink="http://www.w3.org/1999/xlink" x="0px" y="0px"
	 width="33.234px" height="33.234px" viewBox="0 0 33.234 33.234" style="enable-background:new 0 0 33.234 33.234;"
	 xml:space="preserve">
<g>
	<g>
		<polygon points="16.617,0 12.507,7.121 20.728,7.121 		"/>
		<polygon points="31.009,8.308 22.784,8.308 26.895,15.43 		"/>
		<polygon points="20.728,8.308 12.507,8.308 16.617,15.43 		"/>
		<polygon points="10.45,8.308 2.226,8.308 6.34,15.43 		"/>
		<polygon points="15.589,16.024 11.478,8.902 7.365,16.024 		"/>
		<polygon points="25.868,16.024 21.757,8.902 17.646,16.024 		"/>
		<polygon points="17.646,17.21 21.757,24.332 25.868,17.21 		"/>
		<polygon points="7.365,17.21 11.478,24.332 15.589,17.21 		"/>
		<polygon points="2.226,24.926 10.45,24.926 6.34,17.805 		"/>
		<polygon points="12.507,24.926 20.728,24.926 16.617,17.805 		"/>
		<polygon points="22.784,24.926 31.009,24.926 26.895,17.805 		"/>
		<polygon points="16.617,33.234 20.728,26.113 12.507,26.113 		"/>
	</g>
</g>
<g>
</g>
<g>
</g>
<g>
</g>
<g>
</g>
<g>
</g>
<g>
</g>
<g>
</g>
<g>
</g>
<g>
</g>
<g>
</g>
<g>
</g>
<g>
</g>
<g>
</g>
<g>
</g>
<g>
</g>
</svg>
