<?xml version="1.0" encoding="iso-8859-1"?>
<!-- Generator: Adobe Illustrator 16.0.0, SVG Export Plug-In . SVG Version: 6.00 Build 0)  -->
<!DOCTYPE svg PUBLIC "-//W3C//DTD SVG 1.1//EN" "http://www.w3.org/Graphics/SVG/1.1/DTD/svg11.dtd">
<svg version="1.1" id="Capa_1" xmlns="http://www.w3.org/2000/svg" xmlns:xlink="http://www.w3.org/1999/xlink" x="0px" y="0px"
	 width="244.404px" height="244.404px" viewBox="0 0 244.404 244.404" style="enable-background:new 0 0 244.404 244.404;"
	 xml:space="preserve">
<g>
	<g>
		<polygon points="96.986,187.161 128.015,187.161 112.505,160.279 		"/>
		<polygon points="135.782,187.161 166.813,187.161 151.304,160.279 		"/>
		<polygon points="116.38,158.045 131.904,184.922 147.414,158.045 		"/>
		<polygon points="93.101,126.683 77.587,153.57 108.619,153.57 		"/>
		<polygon points="131.904,126.683 116.38,153.57 147.414,153.57 		"/>
		<polygon points="151.304,151.324 166.813,124.437 135.782,124.437 		"/>
		<polygon points="112.505,151.324 128.015,124.437 96.98,124.437 		"/>
		<polygon points="58.188,124.437 73.707,151.33 89.22,124.437 		"/>
		<polygon points="19.393,119.959 50.431,119.959 34.912,93.074 		"/>
		<polygon points="89.22,119.959 73.701,93.074 58.188,119.959 		"/>
		<polygon points="128.015,119.959 112.5,93.074 96.98,119.959 		"/>
		<polygon points="135.782,119.959 166.813,119.959 151.304,93.074 		"/>
		<polygon points="174.568,119.959 205.605,119.959 190.09,93.074 		"/>
		<polygon points="209.489,117.719 225.005,90.834 193.968,90.834 		"/>
		<polygon points="155.169,90.834 170.696,117.719 186.213,90.834 		"/>
		<polygon points="147.414,90.834 116.38,90.834 131.904,117.719 		"/>
		<polygon points="108.619,90.834 77.582,90.834 93.101,117.719 		"/>
		<polygon points="38.792,90.834 54.311,117.719 69.83,90.834 		"/>
		<polygon points="0,90.834 15.519,117.719 31.031,90.834 		"/>
		<polygon points="69.824,86.356 54.305,59.483 38.783,86.356 		"/>
		<polygon points="15.519,59.483 0,86.356 31.031,86.356 		"/>
		<polygon points="193.968,86.356 225.005,86.356 209.489,59.483 		"/>
		<polygon points="213.372,57.243 228.889,84.116 244.404,57.243 		"/>
		<polygon points="50.425,57.243 19.393,57.243 34.912,84.116 		"/>
	</g>
</g>
<g>
</g>
<g>
</g>
<g>
</g>
<g>
</g>
<g>
</g>
<g>
</g>
<g>
</g>
<g>
</g>
<g>
</g>
<g>
</g>
<g>
</g>
<g>
</g>
<g>
</g>
<g>
</g>
<g>
</g>
</svg>
