<?xml version="1.0" encoding="iso-8859-1"?>
<!-- Generator: Adobe Illustrator 16.0.0, SVG Export Plug-In . SVG Version: 6.00 Build 0)  -->
<!DOCTYPE svg PUBLIC "-//W3C//DTD SVG 1.1//EN" "http://www.w3.org/Graphics/SVG/1.1/DTD/svg11.dtd">
<svg version="1.1" id="Capa_1" xmlns="http://www.w3.org/2000/svg" xmlns:xlink="http://www.w3.org/1999/xlink" x="0px" y="0px"
	 width="216.884px" height="216.884px" viewBox="0 0 216.884 216.884" style="enable-background:new 0 0 216.884 216.884;"
	 xml:space="preserve">
<g>
	<g>
		<polygon points="147.752,35.306 112.813,35.306 130.279,65.568 		"/>
		<polygon points="104.071,35.306 69.13,35.306 86.605,65.568 		"/>
		<polygon points="82.234,68.092 64.762,37.829 47.287,68.092 		"/>
		<polygon points="169.592,68.092 152.126,37.829 134.653,68.092 		"/>
		<polygon points="42.921,75.658 25.455,105.921 60.396,105.921 		"/>
		<polygon points="173.96,75.658 156.488,105.921 191.433,105.921 		"/>
		<polygon points="173.96,141.227 191.433,110.963 156.488,110.963 		"/>
		<polygon points="42.921,141.227 60.396,110.963 25.455,110.963 		"/>
		<polygon points="134.653,148.792 152.126,179.056 169.592,148.792 		"/>
		<polygon points="125.917,73.134 90.967,73.134 108.442,103.397 		"/>
		<polygon points="69.13,105.921 104.071,105.921 86.605,75.658 		"/>
		<polygon points="130.279,75.658 112.813,105.921 147.752,105.921 		"/>
		<polygon points="147.752,110.963 112.813,110.963 130.279,141.227 		"/>
		<polygon points="86.605,141.227 104.071,110.963 69.13,110.963 		"/>
		<polygon points="108.442,113.487 90.967,143.75 125.917,143.75 		"/>
		<polygon points="47.287,148.792 64.762,179.056 82.234,148.792 		"/>
		<polygon points="69.13,181.579 104.071,181.579 86.605,151.315 		"/>
		<polygon points="112.813,181.579 147.752,181.579 130.279,151.315 		"/>
		<polygon points="191.433,35.306 156.488,35.306 173.96,65.568 		"/>
		<polygon points="60.396,35.306 25.455,35.306 42.921,65.568 		"/>
		<polygon points="213.272,73.134 178.334,73.134 195.807,103.397 		"/>
		<polygon points="38.553,73.134 3.612,73.134 21.078,103.397 		"/>
		<polygon points="86.605,0 69.13,30.264 104.071,30.264 		"/>
		<polygon points="130.279,0 112.813,30.264 147.752,30.264 		"/>
		<polygon points="21.078,113.487 3.612,143.75 38.553,143.75 		"/>
		<polygon points="178.334,143.75 213.272,143.75 195.807,113.487 		"/>
		<polygon points="25.455,181.579 60.396,181.579 42.921,151.315 		"/>
		<polygon points="156.488,181.579 191.433,181.579 173.96,151.315 		"/>
		<polygon points="130.279,216.884 147.752,186.621 112.813,186.621 		"/>
		<polygon points="86.605,216.884 104.071,186.621 69.13,186.621 		"/>
	</g>
</g>
<g>
</g>
<g>
</g>
<g>
</g>
<g>
</g>
<g>
</g>
<g>
</g>
<g>
</g>
<g>
</g>
<g>
</g>
<g>
</g>
<g>
</g>
<g>
</g>
<g>
</g>
<g>
</g>
<g>
</g>
</svg>
