<?xml version="1.0" encoding="iso-8859-1"?>
<!-- Generator: Adobe Illustrator 16.0.0, SVG Export Plug-In . SVG Version: 6.00 Build 0)  -->
<!DOCTYPE svg PUBLIC "-//W3C//DTD SVG 1.1//EN" "http://www.w3.org/Graphics/SVG/1.1/DTD/svg11.dtd">
<svg version="1.1" id="Capa_1" xmlns="http://www.w3.org/2000/svg" xmlns:xlink="http://www.w3.org/1999/xlink" x="0px" y="0px"
	 width="37.566px" height="37.566px" viewBox="0 0 37.566 37.566" style="enable-background:new 0 0 37.566 37.566;"
	 xml:space="preserve">
<g>
	<g>
		<polygon points="22.67,13.548 25.26,18.035 27.852,13.548 		"/>
		<polygon points="9.715,13.548 12.306,18.035 14.897,13.548 		"/>
		<polygon points="12.306,19.531 9.715,24.019 14.897,24.019 		"/>
		<polygon points="25.26,19.531 22.67,24.019 27.852,24.019 		"/>
		<polygon points="2.59,13.922 0,18.409 5.181,18.409 		"/>
		<polygon points="31.737,18.035 34.328,13.548 29.146,13.548 		"/>
		<polygon points="21.374,13.548 16.192,13.548 18.783,18.035 		"/>
		<polygon points="27.852,2.329 22.67,2.329 25.26,6.816 		"/>
		<polygon points="14.897,2.329 9.715,2.329 12.306,6.816 		"/>
		<polygon points="9.068,2.703 6.477,7.19 11.658,7.19 		"/>
		<polygon points="18.135,7.19 15.544,2.703 12.954,7.19 		"/>
		<polygon points="22.021,2.703 19.432,7.19 24.612,7.19 		"/>
		<polygon points="31.09,7.19 28.498,2.703 25.908,7.19 		"/>
		<polygon points="31.09,7.938 25.908,7.938 28.498,12.426 		"/>
		<polygon points="24.612,7.938 19.432,7.938 22.021,12.426 		"/>
		<polygon points="18.135,7.938 12.954,7.938 15.544,12.426 		"/>
		<polygon points="11.658,7.938 6.477,7.938 9.068,12.426 		"/>
		<polygon points="5.829,8.312 3.238,12.8 8.42,12.8 		"/>
		<polygon points="21.374,12.8 18.783,8.312 16.192,12.8 		"/>
		<polygon points="34.328,12.8 31.737,8.312 29.146,12.8 		"/>
		<polygon points="8.42,13.548 3.238,13.548 5.829,18.035 		"/>
		<polygon points="37.566,18.409 34.977,13.922 32.385,18.409 		"/>
		<polygon points="34.977,23.644 37.566,19.157 32.385,19.157 		"/>
		<polygon points="0,19.157 2.59,23.644 5.181,19.157 		"/>
		<polygon points="3.238,24.019 8.42,24.019 5.829,19.531 		"/>
		<polygon points="18.783,19.531 16.192,24.019 21.374,24.019 		"/>
		<polygon points="29.146,24.019 34.328,24.019 31.737,19.531 		"/>
		<polygon points="31.737,29.255 34.328,24.767 29.146,24.767 		"/>
		<polygon points="16.192,24.767 18.783,29.255 21.374,24.767 		"/>
		<polygon points="3.238,24.767 5.829,29.255 8.42,24.767 		"/>
		<polygon points="6.477,29.628 11.658,29.628 9.068,25.14 		"/>
		<polygon points="12.954,29.628 18.135,29.628 15.544,25.14 		"/>
		<polygon points="24.612,29.628 22.021,25.14 19.432,29.628 		"/>
		<polygon points="25.908,29.628 31.09,29.628 28.498,25.14 		"/>
		<polygon points="28.498,34.863 31.09,30.376 25.908,30.376 		"/>
		<polygon points="19.432,30.376 22.021,34.863 24.612,30.376 		"/>
		<polygon points="15.544,34.863 18.135,30.376 12.954,30.376 		"/>
		<polygon points="6.477,30.376 9.068,34.863 11.658,30.376 		"/>
		<polygon points="9.715,35.237 14.897,35.237 12.306,30.75 		"/>
		<polygon points="22.67,35.237 27.852,35.237 25.26,30.75 		"/>
	</g>
</g>
<g>
</g>
<g>
</g>
<g>
</g>
<g>
</g>
<g>
</g>
<g>
</g>
<g>
</g>
<g>
</g>
<g>
</g>
<g>
</g>
<g>
</g>
<g>
</g>
<g>
</g>
<g>
</g>
<g>
</g>
</svg>
