<?xml version="1.0" encoding="iso-8859-1"?>
<!-- Generator: Adobe Illustrator 16.0.0, SVG Export Plug-In . SVG Version: 6.00 Build 0)  -->
<!DOCTYPE svg PUBLIC "-//W3C//DTD SVG 1.1//EN" "http://www.w3.org/Graphics/SVG/1.1/DTD/svg11.dtd">
<svg version="1.1" id="Capa_1" xmlns="http://www.w3.org/2000/svg" xmlns:xlink="http://www.w3.org/1999/xlink" x="0px" y="0px"
	 width="29px" height="29px" viewBox="0 0 29 29" style="enable-background:new 0 0 29 29;" xml:space="preserve">
<g>
	<g>
		<polygon points="26.624,0 19.696,0 23.16,6 		"/>
		<polygon points="17.964,0 11.036,0 14.5,6 		"/>
		<polygon points="9.304,0 2.376,0 5.84,6 		"/>
		<polygon points="10.17,0.5 6.706,6.5 13.634,6.5 		"/>
		<polygon points="18.83,0.5 15.366,6.5 22.294,6.5 		"/>
		<polygon points="22.294,7.5 15.366,7.5 18.83,13.5 		"/>
		<polygon points="13.634,7.5 6.706,7.5 10.17,13.5 		"/>
		<polygon points="14.5,8 11.036,14 17.964,14 		"/>
		<polygon points="17.964,15 11.036,15 14.5,21 		"/>
		<polygon points="14.5,23 11.036,29 17.964,29 		"/>
	</g>
</g>
<g>
</g>
<g>
</g>
<g>
</g>
<g>
</g>
<g>
</g>
<g>
</g>
<g>
</g>
<g>
</g>
<g>
</g>
<g>
</g>
<g>
</g>
<g>
</g>
<g>
</g>
<g>
</g>
<g>
</g>
</svg>
