<?xml version="1.0" encoding="iso-8859-1"?>
<!-- Generator: Adobe Illustrator 16.0.0, SVG Export Plug-In . SVG Version: 6.00 Build 0)  -->
<!DOCTYPE svg PUBLIC "-//W3C//DTD SVG 1.1//EN" "http://www.w3.org/Graphics/SVG/1.1/DTD/svg11.dtd">
<svg version="1.1" id="Capa_1" xmlns="http://www.w3.org/2000/svg" xmlns:xlink="http://www.w3.org/1999/xlink" x="0px" y="0px"
	 width="37.904px" height="37.904px" viewBox="0 0 37.904 37.904" style="enable-background:new 0 0 37.904 37.904;"
	 xml:space="preserve">
<g>
	<g>
		<polygon points="30.271,13.397 32.534,9.476 28.009,9.476 		"/>
		<polygon points="26.876,9.476 22.349,9.476 24.612,13.397 		"/>
		<polygon points="21.216,9.476 16.688,9.476 18.952,13.397 		"/>
		<polygon points="11.028,9.476 13.292,13.397 15.556,9.476 		"/>
		<polygon points="9.896,9.476 5.37,9.476 7.634,13.397 		"/>
		<polygon points="8.199,13.723 12.726,13.723 10.463,9.803 		"/>
		<polygon points="18.386,13.723 16.122,9.803 13.858,13.723 		"/>
		<polygon points="24.046,13.723 21.782,9.803 19.519,13.723 		"/>
		<polygon points="27.44,9.803 25.179,13.723 29.705,13.723 		"/>
		<polygon points="24.046,14.377 19.519,14.377 21.782,18.299 		"/>
		<polygon points="16.122,18.299 18.386,14.377 13.858,14.377 		"/>
		<polygon points="7.634,14.704 5.37,18.625 9.896,18.625 		"/>
		<polygon points="16.688,18.625 21.216,18.625 18.952,14.704 		"/>
		<polygon points="28.009,18.625 32.534,18.625 30.271,14.704 		"/>
		<polygon points="10.463,0 8.199,3.921 12.726,3.921 		"/>
		<polygon points="27.44,0 25.179,3.921 29.705,3.921 		"/>
		<polygon points="29.705,4.574 25.179,4.574 27.44,8.495 		"/>
		<polygon points="12.726,4.574 8.199,4.574 10.463,8.495 		"/>
		<polygon points="7.634,4.901 5.37,8.823 9.896,8.823 		"/>
		<polygon points="15.556,8.823 13.292,4.901 11.028,8.823 		"/>
		<polygon points="24.612,4.901 22.349,8.823 26.876,8.823 		"/>
		<polygon points="32.534,8.823 30.271,4.901 28.009,8.823 		"/>
		<polygon points="30.271,23.2 32.534,19.279 28.009,19.279 		"/>
		<polygon points="26.876,19.279 22.349,19.279 24.612,23.2 		"/>
		<polygon points="21.216,19.279 16.688,19.279 18.952,23.2 		"/>
		<polygon points="13.292,23.2 15.556,19.279 11.028,19.279 		"/>
		<polygon points="5.37,19.279 7.634,23.2 9.896,19.279 		"/>
		<polygon points="12.726,23.527 10.463,19.605 8.199,23.527 		"/>
		<polygon points="16.122,19.605 13.858,23.527 18.386,23.527 		"/>
		<polygon points="21.782,19.605 19.519,23.527 24.046,23.527 		"/>
		<polygon points="25.179,23.527 29.705,23.527 27.44,19.605 		"/>
		<polygon points="27.44,28.102 29.705,24.182 25.179,24.182 		"/>
		<polygon points="8.199,24.182 10.463,28.102 12.726,24.182 		"/>
		<polygon points="15.556,28.428 13.292,24.508 11.028,28.428 		"/>
		<polygon points="22.349,28.428 26.876,28.428 24.612,24.508 		"/>
		<polygon points="24.612,33.003 26.876,29.081 22.349,29.081 		"/>
		<polygon points="16.688,29.081 18.952,33.003 21.216,29.081 		"/>
		<polygon points="11.028,29.081 13.292,33.003 15.556,29.081 		"/>
		<polygon points="13.858,33.33 18.386,33.33 16.122,29.409 		"/>
		<polygon points="19.519,33.33 24.046,33.33 21.782,29.409 		"/>
		<polygon points="21.782,37.904 24.046,33.983 19.519,33.983 		"/>
		<polygon points="16.122,37.904 18.386,33.983 13.858,33.983 		"/>
	</g>
</g>
<g>
</g>
<g>
</g>
<g>
</g>
<g>
</g>
<g>
</g>
<g>
</g>
<g>
</g>
<g>
</g>
<g>
</g>
<g>
</g>
<g>
</g>
<g>
</g>
<g>
</g>
<g>
</g>
<g>
</g>
</svg>
