<?xml version="1.0" encoding="iso-8859-1"?>
<!-- Generator: Adobe Illustrator 16.0.0, SVG Export Plug-In . SVG Version: 6.00 Build 0)  -->
<!DOCTYPE svg PUBLIC "-//W3C//DTD SVG 1.1//EN" "http://www.w3.org/Graphics/SVG/1.1/DTD/svg11.dtd">
<svg version="1.1" id="Capa_1" xmlns="http://www.w3.org/2000/svg" xmlns:xlink="http://www.w3.org/1999/xlink" x="0px" y="0px"
	 width="228.014px" height="228.015px" viewBox="0 0 228.014 228.015" style="enable-background:new 0 0 228.014 228.015;"
	 xml:space="preserve">
<g>
	<g>
		<g>
			<polygon points="169.048,82.228 137.591,82.228 153.326,109.471 			"/>
			<polygon points="90.42,82.228 58.972,82.228 74.7,109.471 			"/>
			<polygon points="55.041,84.498 39.312,111.74 70.761,111.74 			"/>
			<polygon points="172.985,84.498 157.25,111.74 188.702,111.74 			"/>
			<polygon points="188.702,116.28 157.25,116.28 172.985,143.517 			"/>
			<polygon points="70.761,116.28 39.312,116.28 55.041,143.517 			"/>
			<polygon points="74.7,118.55 58.972,145.786 90.42,145.786 			"/>
			<polygon points="153.326,118.55 137.591,145.786 169.048,145.786 			"/>
			<polygon points="149.389,48.182 117.931,48.182 133.667,75.419 			"/>
			<polygon points="110.079,48.182 78.622,48.182 94.354,75.419 			"/>
			<polygon points="74.7,50.452 58.972,77.688 90.42,77.688 			"/>
			<polygon points="114.013,50.452 98.281,77.688 129.73,77.688 			"/>
			<polygon points="153.326,50.452 137.591,77.688 169.048,77.688 			"/>
			<polygon points="169.048,150.326 137.591,150.326 153.326,177.562 			"/>
			<polygon points="129.73,150.326 98.281,150.326 114.013,177.562 			"/>
			<polygon points="90.42,150.326 58.972,150.326 74.7,177.562 			"/>
			<polygon points="94.354,152.596 78.622,179.832 110.079,179.832 			"/>
			<polygon points="133.667,152.596 117.931,179.832 149.389,179.832 			"/>
		</g>
		<g>
			<polygon points="51.102,14.136 19.653,14.136 35.382,41.373 			"/>
			<polygon points="15.731,16.406 0,43.643 31.442,43.643 			"/>
			<polygon points="55.041,16.406 39.312,43.643 70.761,43.643 			"/>
			<polygon points="70.761,48.182 39.312,48.182 55.041,75.419 			"/>
			<polygon points="31.442,48.182 0,48.182 15.731,75.419 			"/>
			<polygon points="35.382,50.452 19.653,77.688 51.102,77.688 			"/>
		</g>
		<g>
			<polygon points="208.361,14.136 176.91,14.136 192.638,41.373 			"/>
			<polygon points="172.985,16.406 157.25,43.643 188.702,43.643 			"/>
			<polygon points="212.292,16.406 196.569,43.643 228.014,43.643 			"/>
			<polygon points="188.702,48.182 157.25,48.182 172.985,75.419 			"/>
			<polygon points="228.014,48.182 196.569,48.182 212.292,75.419 			"/>
			<polygon points="192.638,50.452 176.91,77.688 208.361,77.688 			"/>
		</g>
		<g>
			<polygon points="51.102,150.326 19.653,150.326 35.382,177.562 			"/>
			<polygon points="15.731,152.596 0,179.832 31.442,179.832 			"/>
			<polygon points="55.041,152.596 39.312,179.832 70.761,179.832 			"/>
			<polygon points="70.761,184.372 39.312,184.372 55.041,211.608 			"/>
			<polygon points="31.442,184.372 0,184.372 15.731,211.608 			"/>
			<polygon points="35.382,186.642 19.653,213.879 51.102,213.879 			"/>
		</g>
		<g>
			<polygon points="208.361,150.326 176.91,150.326 192.638,177.562 			"/>
			<polygon points="172.985,152.596 157.25,179.832 188.702,179.832 			"/>
			<polygon points="212.292,152.596 196.569,179.832 228.014,179.832 			"/>
			<polygon points="188.702,184.372 157.25,184.372 172.985,211.608 			"/>
			<polygon points="228.014,184.372 196.569,184.372 212.292,211.608 			"/>
			<polygon points="192.638,186.642 176.91,213.879 208.361,213.879 			"/>
		</g>
	</g>
</g>
<g>
</g>
<g>
</g>
<g>
</g>
<g>
</g>
<g>
</g>
<g>
</g>
<g>
</g>
<g>
</g>
<g>
</g>
<g>
</g>
<g>
</g>
<g>
</g>
<g>
</g>
<g>
</g>
<g>
</g>
</svg>
