<?xml version="1.0" encoding="iso-8859-1"?>
<!-- Generator: Adobe Illustrator 16.0.0, SVG Export Plug-In . SVG Version: 6.00 Build 0)  -->
<!DOCTYPE svg PUBLIC "-//W3C//DTD SVG 1.1//EN" "http://www.w3.org/Graphics/SVG/1.1/DTD/svg11.dtd">
<svg version="1.1" id="Capa_1" xmlns="http://www.w3.org/2000/svg" xmlns:xlink="http://www.w3.org/1999/xlink" x="0px" y="0px"
	 width="245.309px" height="245.309px" viewBox="0 0 245.309 245.309" style="enable-background:new 0 0 245.309 245.309;"
	 xml:space="preserve">
<g>
	<g>
		<polygon points="25.094,108.066 0,122.557 25.094,137.044 		"/>
		<polygon points="29.279,137.044 54.379,122.557 29.279,108.066 		"/>
		<polygon points="216.032,108.066 190.93,122.557 216.032,137.044 		"/>
		<polygon points="220.212,137.044 245.309,122.557 220.212,108.066 		"/>
		<polygon points="52.349,65.24 23.371,65.24 37.861,90.334 		"/>
		<polygon points="70.459,92.427 55.969,67.327 41.484,92.421 		"/>
		<polygon points="174.853,152.696 189.346,177.787 203.827,152.696 		"/>
		<polygon points="192.963,179.886 221.938,179.886 207.456,154.782 		"/>
		<polygon points="23.371,179.886 52.349,179.886 37.855,154.788 		"/>
		<polygon points="55.969,177.787 70.459,152.696 41.484,152.696 		"/>
		<polygon points="189.346,67.327 174.853,92.427 203.827,92.421 		"/>
		<polygon points="221.943,65.24 192.963,65.24 207.444,90.334 		"/>
		<polygon points="140.623,87.379 154.998,62.486 126.248,62.486 		"/>
		<polygon points="119.063,62.486 90.313,62.486 104.688,87.379 		"/>
		<polygon points="86.717,64.561 72.342,89.457 101.092,89.457 		"/>
		<polygon points="122.657,64.561 108.282,89.457 137.023,89.457 		"/>
		<polygon points="172.967,89.457 158.592,64.561 144.217,89.457 		"/>
		<polygon points="158.592,118.502 172.967,93.609 144.217,93.609 		"/>
		<polygon points="101.092,93.609 72.342,93.609 86.717,118.502 		"/>
		<polygon points="68.754,95.678 54.379,120.577 83.129,120.577 		"/>
		<polygon points="176.555,95.678 162.18,120.577 190.93,120.577 		"/>
		<polygon points="190.93,124.726 162.18,124.726 176.555,149.622 		"/>
		<polygon points="83.129,124.726 54.379,124.726 68.754,149.622 		"/>
		<polygon points="86.717,126.807 72.342,151.703 101.092,151.703 		"/>
		<polygon points="144.217,151.703 172.967,151.703 158.592,126.807 		"/>
		<polygon points="158.592,180.748 172.967,155.853 144.217,155.853 		"/>
		<polygon points="122.657,180.748 137.023,155.853 108.282,155.853 		"/>
		<polygon points="72.342,155.853 86.717,180.748 101.092,155.853 		"/>
		<polygon points="104.688,157.921 90.313,182.823 119.063,182.823 		"/>
		<polygon points="126.248,182.823 154.998,182.823 140.623,157.921 		"/>
	</g>
</g>
<g>
</g>
<g>
</g>
<g>
</g>
<g>
</g>
<g>
</g>
<g>
</g>
<g>
</g>
<g>
</g>
<g>
</g>
<g>
</g>
<g>
</g>
<g>
</g>
<g>
</g>
<g>
</g>
<g>
</g>
</svg>
