<?xml version="1.0" encoding="iso-8859-1"?>
<!-- Generator: Adobe Illustrator 16.0.0, SVG Export Plug-In . SVG Version: 6.00 Build 0)  -->
<!DOCTYPE svg PUBLIC "-//W3C//DTD SVG 1.1//EN" "http://www.w3.org/Graphics/SVG/1.1/DTD/svg11.dtd">
<svg version="1.1" id="Capa_1" xmlns="http://www.w3.org/2000/svg" xmlns:xlink="http://www.w3.org/1999/xlink" x="0px" y="0px"
	 width="37px" height="37px" viewBox="0 0 37 37" style="enable-background:new 0 0 37 37;" xml:space="preserve">
<g>
	<g>
		<polygon points="18.501,0 15.52,5.163 21.479,5.163 		"/>
		<polygon points="28.933,6.023 22.972,6.023 25.952,11.186 		"/>
		<polygon points="14.028,6.023 8.067,6.023 11.049,11.186 		"/>
		<polygon points="7.323,6.453 4.342,11.616 10.303,11.616 		"/>
		<polygon points="17.755,11.616 14.775,6.453 11.794,11.616 		"/>
		<polygon points="25.206,11.616 22.228,6.453 19.245,11.616 		"/>
		<polygon points="32.658,11.616 29.679,6.453 26.696,11.616 		"/>
		<polygon points="29.679,17.64 32.658,12.477 26.696,12.477 		"/>
		<polygon points="10.303,12.477 4.342,12.477 7.323,17.64 		"/>
		<polygon points="3.598,12.907 0.616,18.068 6.577,18.068 		"/>
		<polygon points="18.501,12.907 15.52,18.068 21.479,18.068 		"/>
		<polygon points="36.384,18.068 33.403,12.907 30.423,18.068 		"/>
		<polygon points="33.403,24.093 36.384,18.93 30.423,18.93 		"/>
		<polygon points="18.501,24.093 21.479,18.93 15.52,18.93 		"/>
		<polygon points="0.616,18.93 3.598,24.093 6.577,18.93 		"/>
		<polygon points="4.342,24.523 10.303,24.523 7.323,19.359 		"/>
		<polygon points="26.696,24.523 32.658,24.523 29.679,19.359 		"/>
		<polygon points="29.679,30.547 32.658,25.384 26.696,25.384 		"/>
		<polygon points="19.245,25.384 22.228,30.547 25.206,25.384 		"/>
		<polygon points="11.794,25.384 14.775,30.547 17.755,25.384 		"/>
		<polygon points="4.342,25.384 7.323,30.547 10.303,25.384 		"/>
		<polygon points="8.067,30.977 14.028,30.977 11.049,25.812 		"/>
		<polygon points="22.972,30.977 28.933,30.977 25.952,25.812 		"/>
		<polygon points="18.501,37 21.479,31.837 15.52,31.837 		"/>
	</g>
</g>
<g>
</g>
<g>
</g>
<g>
</g>
<g>
</g>
<g>
</g>
<g>
</g>
<g>
</g>
<g>
</g>
<g>
</g>
<g>
</g>
<g>
</g>
<g>
</g>
<g>
</g>
<g>
</g>
<g>
</g>
</svg>
