<?xml version="1.0" encoding="iso-8859-1"?>
<!-- Generator: Adobe Illustrator 16.0.0, SVG Export Plug-In . SVG Version: 6.00 Build 0)  -->
<!DOCTYPE svg PUBLIC "-//W3C//DTD SVG 1.1//EN" "http://www.w3.org/Graphics/SVG/1.1/DTD/svg11.dtd">
<svg version="1.1" id="Capa_1" xmlns="http://www.w3.org/2000/svg" xmlns:xlink="http://www.w3.org/1999/xlink" x="0px" y="0px"
	 width="37.224px" height="37.225px" viewBox="0 0 37.224 37.225" style="enable-background:new 0 0 37.224 37.225;"
	 xml:space="preserve">
<g>
	<g>
		<polygon points="26.261,9.464 21.89,9.464 24.078,13.25 		"/>
		<polygon points="18.613,13.25 20.798,9.464 16.426,9.464 		"/>
		<polygon points="15.334,9.464 10.963,9.464 13.148,13.25 		"/>
		<polygon points="10.417,9.779 8.23,13.565 12.601,13.565 		"/>
		<polygon points="13.695,13.565 18.065,13.565 15.881,9.779 		"/>
		<polygon points="21.344,9.779 19.159,13.565 23.529,13.565 		"/>
		<polygon points="28.994,13.565 26.809,9.779 24.624,13.565 		"/>
		<polygon points="28.994,14.196 24.624,14.196 26.809,17.982 		"/>
		<polygon points="23.529,14.196 19.159,14.196 21.344,17.982 		"/>
		<polygon points="15.881,17.982 18.065,14.196 13.695,14.196 		"/>
		<polygon points="12.601,14.196 8.23,14.196 10.417,17.982 		"/>
		<polygon points="7.684,14.511 5.5,18.298 9.869,18.298 		"/>
		<polygon points="10.963,18.298 15.334,18.298 13.148,14.511 		"/>
		<polygon points="24.078,14.511 21.89,18.298 26.261,18.298 		"/>
		<polygon points="31.725,18.298 29.542,14.511 27.355,18.298 		"/>
		<polygon points="20.798,0 16.426,0 18.613,3.785 		"/>
		<polygon points="15.881,0.315 13.695,4.101 18.065,4.101 		"/>
		<polygon points="23.529,4.101 21.344,0.315 19.159,4.101 		"/>
		<polygon points="19.159,4.732 21.344,8.517 23.529,4.732 		"/>
		<polygon points="18.065,4.732 13.695,4.732 15.881,8.517 		"/>
		<polygon points="13.148,5.048 10.963,8.833 15.334,8.833 		"/>
		<polygon points="26.261,8.833 24.078,5.048 21.89,8.833 		"/>
		<polygon points="26.261,18.927 21.89,18.927 24.078,22.714 		"/>
		<polygon points="20.798,18.927 16.426,18.927 18.613,22.714 		"/>
		<polygon points="13.148,22.714 15.334,18.927 10.963,18.927 		"/>
		<polygon points="10.417,19.244 8.23,23.029 12.601,23.029 		"/>
		<polygon points="13.695,23.029 18.065,23.029 15.881,19.244 		"/>
		<polygon points="21.344,19.244 19.159,23.029 23.529,23.029 		"/>
		<polygon points="24.624,23.029 28.994,23.029 26.809,19.244 		"/>
		<polygon points="23.529,23.66 19.159,23.66 21.344,27.445 		"/>
		<polygon points="18.065,23.66 13.695,23.66 15.881,27.445 		"/>
		<polygon points="15.334,27.761 13.148,23.975 10.963,27.761 		"/>
		<polygon points="21.89,27.761 26.261,27.761 24.078,23.975 		"/>
		<polygon points="20.798,28.392 16.426,28.392 18.613,32.177 		"/>
		<polygon points="19.159,33.125 21.344,36.91 23.529,33.125 		"/>
		<polygon points="13.695,33.125 15.881,36.91 18.065,33.125 		"/>
		<polygon points="10.963,37.225 15.334,37.225 13.148,33.439 		"/>
		<polygon points="16.426,37.225 20.798,37.225 18.613,33.439 		"/>
		<polygon points="21.89,37.225 26.261,37.225 24.078,33.439 		"/>
	</g>
</g>
<g>
</g>
<g>
</g>
<g>
</g>
<g>
</g>
<g>
</g>
<g>
</g>
<g>
</g>
<g>
</g>
<g>
</g>
<g>
</g>
<g>
</g>
<g>
</g>
<g>
</g>
<g>
</g>
<g>
</g>
</svg>
