<?xml version="1.0" encoding="iso-8859-1"?>
<!-- Generator: Adobe Illustrator 16.0.0, SVG Export Plug-In . SVG Version: 6.00 Build 0)  -->
<!DOCTYPE svg PUBLIC "-//W3C//DTD SVG 1.1//EN" "http://www.w3.org/Graphics/SVG/1.1/DTD/svg11.dtd">
<svg version="1.1" id="Capa_1" xmlns="http://www.w3.org/2000/svg" xmlns:xlink="http://www.w3.org/1999/xlink" x="0px" y="0px"
	 width="37.5px" height="37.5px" viewBox="0 0 37.5 37.5" style="enable-background:new 0 0 37.5 37.5;" xml:space="preserve">
<g>
	<g>
		<polygon points="36.464,12.784 30.56,12.784 33.513,17.897 		"/>
		<polygon points="29.083,12.784 23.179,12.784 26.132,17.897 		"/>
		<polygon points="14.321,12.784 8.417,12.784 11.37,17.897 		"/>
		<polygon points="6.94,12.784 1.036,12.784 3.989,17.897 		"/>
		<polygon points="7.68,13.21 4.727,18.324 10.631,18.324 		"/>
		<polygon points="15.061,13.21 12.107,18.324 18.012,18.324 		"/>
		<polygon points="22.44,13.21 19.487,18.324 25.394,18.324 		"/>
		<polygon points="29.821,13.21 26.869,18.324 32.772,18.324 		"/>
		<polygon points="25.394,19.176 19.487,19.176 22.44,24.29 		"/>
		<polygon points="18.012,19.176 12.107,19.176 15.061,24.29 		"/>
		<polygon points="18.751,19.604 15.798,24.716 21.702,24.716 		"/>
		<polygon points="21.702,0 15.798,0 18.751,5.113 		"/>
		<polygon points="15.061,0.426 12.107,5.54 18.012,5.54 		"/>
		<polygon points="22.44,0.426 19.487,5.54 25.394,5.54 		"/>
		<polygon points="25.394,6.392 19.487,6.392 22.44,11.506 		"/>
		<polygon points="18.012,6.392 12.107,6.392 15.061,11.506 		"/>
		<polygon points="18.751,6.818 15.798,11.932 21.702,11.932 		"/>
		<polygon points="21.702,25.568 15.798,25.568 18.751,30.682 		"/>
		<polygon points="15.061,25.994 12.107,31.107 18.012,31.107 		"/>
		<polygon points="22.44,25.994 19.487,31.107 25.394,31.107 		"/>
		<polygon points="32.772,31.96 26.869,31.96 29.821,37.074 		"/>
		<polygon points="25.394,31.96 19.487,31.96 22.44,37.074 		"/>
		<polygon points="18.012,31.96 12.107,31.96 15.061,37.074 		"/>
		<polygon points="10.631,31.96 4.727,31.96 7.68,37.074 		"/>
		<polygon points="3.989,32.387 1.036,37.5 6.94,37.5 		"/>
		<polygon points="11.37,32.387 8.417,37.5 14.321,37.5 		"/>
		<polygon points="26.132,32.387 23.179,37.5 29.083,37.5 		"/>
		<polygon points="33.513,32.387 30.56,37.5 36.464,37.5 		"/>
	</g>
</g>
<g>
</g>
<g>
</g>
<g>
</g>
<g>
</g>
<g>
</g>
<g>
</g>
<g>
</g>
<g>
</g>
<g>
</g>
<g>
</g>
<g>
</g>
<g>
</g>
<g>
</g>
<g>
</g>
<g>
</g>
</svg>
