<?xml version="1.0" encoding="iso-8859-1"?>
<!-- Generator: Adobe Illustrator 16.0.0, SVG Export Plug-In . SVG Version: 6.00 Build 0)  -->
<!DOCTYPE svg PUBLIC "-//W3C//DTD SVG 1.1//EN" "http://www.w3.org/Graphics/SVG/1.1/DTD/svg11.dtd">
<svg version="1.1" id="Capa_1" xmlns="http://www.w3.org/2000/svg" xmlns:xlink="http://www.w3.org/1999/xlink" x="0px" y="0px"
	 width="220.147px" height="220.147px" viewBox="0 0 220.147 220.147" style="enable-background:new 0 0 220.147 220.147;"
	 xml:space="preserve">
<g>
	<g>
		<polygon points="144.837,61.573 168.001,101.71 191.172,61.573 		"/>
		<polygon points="133.241,61.573 86.903,61.573 110.073,101.71 		"/>
		<polygon points="28.975,61.573 52.145,101.71 75.312,61.573 		"/>
		<polygon points="0,105.056 46.346,105.056 23.176,64.922 		"/>
		<polygon points="104.281,105.056 81.104,64.922 57.938,105.056 		"/>
		<polygon points="115.863,105.056 162.209,105.056 139.044,64.922 		"/>
		<polygon points="196.97,64.922 173.8,105.056 220.147,105.056 		"/>
		<polygon points="139.044,151.887 162.209,111.741 115.863,111.741 		"/>
		<polygon points="81.104,151.887 104.281,111.741 57.938,111.741 		"/>
		<polygon points="110.073,115.092 86.903,155.227 133.241,155.227 		"/>
		<polygon points="110.073,14.745 86.903,54.885 133.241,54.885 		"/>
		<polygon points="86.903,161.911 110.073,202.058 133.241,161.911 		"/>
		<polygon points="57.938,205.402 104.281,205.402 81.104,165.263 		"/>
		<polygon points="115.863,205.402 162.209,205.402 139.044,165.263 		"/>
	</g>
</g>
<g>
</g>
<g>
</g>
<g>
</g>
<g>
</g>
<g>
</g>
<g>
</g>
<g>
</g>
<g>
</g>
<g>
</g>
<g>
</g>
<g>
</g>
<g>
</g>
<g>
</g>
<g>
</g>
<g>
</g>
</svg>
