<?xml version="1.0" encoding="iso-8859-1"?>
<!-- Generator: Adobe Illustrator 16.0.0, SVG Export Plug-In . SVG Version: 6.00 Build 0)  -->
<!DOCTYPE svg PUBLIC "-//W3C//DTD SVG 1.1//EN" "http://www.w3.org/Graphics/SVG/1.1/DTD/svg11.dtd">
<svg version="1.1" id="Capa_1" xmlns="http://www.w3.org/2000/svg" xmlns:xlink="http://www.w3.org/1999/xlink" x="0px" y="0px"
	 width="228.15px" height="228.149px" viewBox="0 0 228.15 228.149" style="enable-background:new 0 0 228.15 228.149;"
	 xml:space="preserve">
<g>
	<g>
		<polygon points="127.496,14.318 100.652,14.318 114.075,37.56 		"/>
		<polygon points="194.594,72.424 167.759,72.424 181.177,95.671 		"/>
		<polygon points="147.627,95.671 161.05,72.424 134.21,72.424 		"/>
		<polygon points="114.075,95.671 127.496,72.424 100.652,72.424 		"/>
		<polygon points="80.525,95.671 93.943,72.424 67.099,72.424 		"/>
		<polygon points="60.393,72.424 33.556,72.424 46.97,95.671 		"/>
		<polygon points="30.204,74.36 16.778,97.607 43.616,97.607 		"/>
		<polygon points="83.886,97.607 110.714,97.607 97.303,74.36 		"/>
		<polygon points="117.435,97.607 144.264,97.607 130.847,74.36 		"/>
		<polygon points="211.369,97.607 197.946,74.36 184.535,97.607 		"/>
		<polygon points="164.396,124.731 177.82,101.487 150.985,101.487 		"/>
		<polygon points="211.369,101.487 184.535,101.487 197.946,124.731 		"/>
		<polygon points="144.264,101.487 117.435,101.487 130.847,124.731 		"/>
		<polygon points="110.714,101.487 83.886,101.487 97.303,124.731 		"/>
		<polygon points="63.753,124.731 77.165,101.487 50.327,101.487 		"/>
		<polygon points="43.616,101.487 16.778,101.487 30.204,124.731 		"/>
		<polygon points="13.42,103.42 0,126.659 26.844,126.659 		"/>
		<polygon points="33.556,126.659 60.393,126.659 46.97,103.42 		"/>
		<polygon points="80.525,103.42 67.099,126.659 93.943,126.659 		"/>
		<polygon points="147.627,103.42 134.21,126.659 161.05,126.659 		"/>
		<polygon points="181.177,103.42 167.759,126.659 194.594,126.659 		"/>
		<polygon points="228.15,126.659 214.726,103.42 201.309,126.659 		"/>
		<polygon points="177.82,43.37 150.985,43.37 164.396,66.614 		"/>
		<polygon points="130.847,66.614 144.264,43.37 117.435,43.37 		"/>
		<polygon points="110.714,43.37 83.886,43.37 97.303,66.614 		"/>
		<polygon points="77.165,43.37 50.327,43.37 63.753,66.614 		"/>
		<polygon points="46.97,45.309 33.556,68.556 60.393,68.556 		"/>
		<polygon points="93.943,68.556 80.525,45.309 67.099,68.556 		"/>
		<polygon points="114.075,45.309 100.652,68.556 127.496,68.556 		"/>
		<polygon points="161.05,68.556 147.627,45.309 134.21,68.556 		"/>
		<polygon points="194.594,68.556 181.177,45.309 167.759,68.556 		"/>
		<polygon points="194.594,130.536 167.759,130.536 181.177,153.789 		"/>
		<polygon points="147.627,153.789 161.05,130.536 134.21,130.536 		"/>
		<polygon points="127.496,130.536 100.652,130.536 114.075,153.789 		"/>
		<polygon points="80.525,153.789 93.943,130.536 67.099,130.536 		"/>
		<polygon points="46.97,153.789 60.393,130.536 33.556,130.536 		"/>
		<polygon points="0,130.536 13.42,153.789 26.844,130.536 		"/>
		<polygon points="16.778,155.728 43.616,155.728 30.204,132.475 		"/>
		<polygon points="63.753,132.475 50.327,155.728 77.165,155.728 		"/>
		<polygon points="97.303,132.475 83.886,155.728 110.714,155.728 		"/>
		<polygon points="130.847,132.475 117.435,155.728 144.264,155.728 		"/>
		<polygon points="164.396,132.475 150.985,155.728 177.82,155.728 		"/>
		<polygon points="184.535,155.728 211.369,155.728 197.946,132.475 		"/>
		<polygon points="197.946,182.841 211.369,159.6 184.535,159.6 		"/>
		<polygon points="16.778,159.6 30.204,182.841 43.616,159.6 		"/>
		<polygon points="60.393,184.779 46.97,161.532 33.556,184.779 		"/>
		<polygon points="80.525,161.532 67.099,184.779 93.943,184.779 		"/>
		<polygon points="114.075,161.532 100.652,184.779 127.496,184.779 		"/>
		<polygon points="147.627,161.532 134.21,184.779 161.05,184.779 		"/>
		<polygon points="167.759,184.779 194.594,184.779 181.177,161.532 		"/>
		<polygon points="214.726,153.789 228.15,130.536 201.309,130.536 		"/>
		<polygon points="181.177,211.892 194.594,188.645 167.759,188.645 		"/>
		<polygon points="134.21,188.645 147.627,211.892 161.05,188.645 		"/>
		<polygon points="100.652,188.645 114.075,211.892 127.496,188.645 		"/>
		<polygon points="67.099,188.645 80.525,211.892 93.943,188.645 		"/>
		<polygon points="33.556,188.645 46.97,211.892 60.393,188.645 		"/>
		<polygon points="50.327,213.831 77.165,213.831 63.753,190.589 		"/>
		<polygon points="83.886,213.831 110.714,213.831 97.303,190.589 		"/>
		<polygon points="117.435,213.831 144.264,213.831 130.847,190.589 		"/>
		<polygon points="150.985,213.831 177.82,213.831 164.396,190.589 		"/>
	</g>
</g>
<g>
</g>
<g>
</g>
<g>
</g>
<g>
</g>
<g>
</g>
<g>
</g>
<g>
</g>
<g>
</g>
<g>
</g>
<g>
</g>
<g>
</g>
<g>
</g>
<g>
</g>
<g>
</g>
<g>
</g>
</svg>
