<?xml version="1.0" encoding="iso-8859-1"?>
<!-- Generator: Adobe Illustrator 16.0.0, SVG Export Plug-In . SVG Version: 6.00 Build 0)  -->
<!DOCTYPE svg PUBLIC "-//W3C//DTD SVG 1.1//EN" "http://www.w3.org/Graphics/SVG/1.1/DTD/svg11.dtd">
<svg version="1.1" id="Capa_1" xmlns="http://www.w3.org/2000/svg" xmlns:xlink="http://www.w3.org/1999/xlink" x="0px" y="0px"
	 width="35.844px" height="35.844px" viewBox="0 0 35.844 35.844" style="enable-background:new 0 0 35.844 35.844;"
	 xml:space="preserve">
<g>
	<g>
		<polygon points="29.592,7.094 24.591,4.206 24.591,9.981 		"/>
		<polygon points="23.757,9.981 23.757,4.206 18.756,7.094 		"/>
		<polygon points="17.089,7.094 12.087,4.206 12.087,9.981 		"/>
		<polygon points="17.089,21.53 12.087,18.646 12.087,24.419 		"/>
		<polygon points="11.253,24.419 11.253,18.646 6.252,21.53 		"/>
		<polygon points="11.253,9.981 11.253,4.206 6.252,7.094 		"/>
		<polygon points="29.592,28.75 24.591,25.862 24.591,31.638 		"/>
		<polygon points="23.757,31.638 23.757,25.862 18.756,28.75 		"/>
		<polygon points="23.34,3.485 18.339,0.597 18.339,6.371 		"/>
		<polygon points="23.34,32.36 18.339,29.473 18.339,35.247 		"/>
		<polygon points="17.505,35.247 17.505,29.473 12.504,32.36 		"/>
		<polygon points="29.592,21.53 24.591,18.644 24.591,24.419 		"/>
		<polygon points="23.757,24.419 23.757,18.644 18.756,21.53 		"/>
		<polygon points="30.009,28.028 30.009,22.253 25.008,25.141 		"/>
		<polygon points="30.009,13.59 30.009,7.816 25.008,10.703 		"/>
		<polygon points="29.592,14.313 24.591,11.425 24.591,17.199 		"/>
		<polygon points="23.757,17.199 23.757,11.425 18.756,14.313 		"/>
		<polygon points="23.34,17.922 18.339,15.034 18.339,20.81 		"/>
		<polygon points="35.844,10.703 30.843,7.816 30.843,13.59 		"/>
		<polygon points="35.844,25.141 30.843,22.253 30.843,28.028 		"/>
		<polygon points="17.505,20.81 17.505,15.034 12.504,17.922 		"/>
		<polygon points="17.505,6.371 17.505,0.597 12.504,3.485 		"/>
		<polygon points="17.089,14.313 12.087,11.426 12.087,17.199 		"/>
		<polygon points="17.089,28.75 12.087,25.862 12.087,31.638 		"/>
		<polygon points="11.253,31.638 11.253,25.862 6.252,28.75 		"/>
		<polygon points="11.253,17.199 11.253,11.426 6.252,14.313 		"/>
		<polygon points="10.837,10.703 5.835,7.816 5.835,13.59 		"/>
		<polygon points="10.837,25.141 5.835,22.254 5.835,28.028 		"/>
		<polygon points="5.002,28.028 5.002,22.254 0,25.141 		"/>
		<polygon points="5.002,13.59 5.002,7.816 0,10.703 		"/>
	</g>
</g>
<g>
</g>
<g>
</g>
<g>
</g>
<g>
</g>
<g>
</g>
<g>
</g>
<g>
</g>
<g>
</g>
<g>
</g>
<g>
</g>
<g>
</g>
<g>
</g>
<g>
</g>
<g>
</g>
<g>
</g>
</svg>
