<?xml version="1.0" encoding="iso-8859-1"?>
<!-- Generator: Adobe Illustrator 16.0.0, SVG Export Plug-In . SVG Version: 6.00 Build 0)  -->
<!DOCTYPE svg PUBLIC "-//W3C//DTD SVG 1.1//EN" "http://www.w3.org/Graphics/SVG/1.1/DTD/svg11.dtd">
<svg version="1.1" id="Capa_1" xmlns="http://www.w3.org/2000/svg" xmlns:xlink="http://www.w3.org/1999/xlink" x="0px" y="0px"
	 width="219.815px" height="219.815px" viewBox="0 0 219.815 219.815" style="enable-background:new 0 0 219.815 219.815;"
	 xml:space="preserve">
<g>
	<g>
		<polygon points="79.269,18.947 79.269,49.263 105.531,34.114 		"/>
		<polygon points="107.724,68.213 107.724,37.897 81.459,53.052 		"/>
		<polygon points="107.724,30.319 107.724,0 81.459,15.164 		"/>
		<polygon points="112.101,0 112.101,30.319 138.356,15.164 		"/>
		<polygon points="112.101,37.897 112.101,68.213 138.356,53.052 		"/>
		<polygon points="140.543,49.263 140.543,18.947 114.287,34.114 		"/>
		<polygon points="13.627,132.649 13.627,162.971 39.886,147.805 		"/>
		<polygon points="46.453,151.599 46.453,181.91 72.708,166.754 		"/>
		<polygon points="74.893,200.86 74.893,170.549 48.637,185.705 		"/>
		<polygon points="79.269,170.549 79.269,200.86 105.531,185.705 		"/>
		<polygon points="107.724,219.815 107.724,189.499 81.459,204.655 		"/>
		<polygon points="42.07,181.91 42.07,151.599 15.814,166.754 		"/>
		<polygon points="112.101,219.815 138.356,204.655 112.101,189.499 		"/>
		<polygon points="140.543,200.86 140.543,170.549 114.287,185.705 		"/>
		<polygon points="46.453,113.7 46.453,144.016 72.708,128.855 		"/>
		<polygon points="74.893,162.971 74.893,132.649 48.637,147.805 		"/>
		<polygon points="107.724,106.11 107.724,75.791 81.459,90.955 		"/>
		<polygon points="42.07,144.016 42.07,113.7 15.814,128.855 		"/>
		<polygon points="112.101,75.791 112.101,106.11 138.356,90.955 		"/>
		<polygon points="144.923,132.649 144.923,162.971 171.179,147.805 		"/>
		<polygon points="173.359,144.016 173.359,113.7 147.104,128.855 		"/>
		<polygon points="177.745,113.7 177.745,144.016 204.001,128.855 		"/>
		<polygon points="74.893,125.066 74.893,94.75 48.637,109.905 		"/>
		<polygon points="79.269,94.75 79.269,125.066 105.531,109.905 		"/>
		<polygon points="140.543,125.066 140.543,94.75 114.287,109.905 		"/>
		<polygon points="144.923,94.75 144.923,125.066 171.179,109.905 		"/>
		<polygon points="144.923,200.86 171.179,185.705 144.923,170.549 		"/>
		<polygon points="173.359,181.91 173.359,151.599 147.104,166.754 		"/>
		<polygon points="177.745,181.91 204.001,166.754 177.745,151.599 		"/>
		<polygon points="179.933,147.805 206.188,162.971 206.188,132.649 		"/>
	</g>
</g>
<g>
</g>
<g>
</g>
<g>
</g>
<g>
</g>
<g>
</g>
<g>
</g>
<g>
</g>
<g>
</g>
<g>
</g>
<g>
</g>
<g>
</g>
<g>
</g>
<g>
</g>
<g>
</g>
<g>
</g>
</svg>
