<?xml version="1.0" encoding="iso-8859-1"?>
<!-- Generator: Adobe Illustrator 16.0.0, SVG Export Plug-In . SVG Version: 6.00 Build 0)  -->
<!DOCTYPE svg PUBLIC "-//W3C//DTD SVG 1.1//EN" "http://www.w3.org/Graphics/SVG/1.1/DTD/svg11.dtd">
<svg version="1.1" id="Capa_1" xmlns="http://www.w3.org/2000/svg" xmlns:xlink="http://www.w3.org/1999/xlink" x="0px" y="0px"
	 width="37.584px" height="37.584px" viewBox="0 0 37.584 37.584" style="enable-background:new 0 0 37.584 37.584;"
	 xml:space="preserve">
<g>
	<g>
		<polygon points="21.819,6.118 15.765,6.118 18.792,11.362 		"/>
		<polygon points="15.008,6.555 11.98,11.799 18.035,11.799 		"/>
		<polygon points="25.604,11.799 22.577,6.555 19.549,11.799 		"/>
		<polygon points="25.604,12.673 19.549,12.673 22.577,17.917 		"/>
		<polygon points="18.035,12.673 11.98,12.673 15.008,17.917 		"/>
		<polygon points="11.223,13.11 8.195,18.355 14.25,18.355 		"/>
		<polygon points="29.39,18.355 26.36,13.11 23.334,18.355 		"/>
		<polygon points="18.792,0 15.765,5.244 21.819,5.244 		"/>
		<polygon points="29.39,19.229 23.334,19.229 26.36,24.473 		"/>
		<polygon points="14.25,19.229 8.195,19.229 11.223,24.473 		"/>
		<polygon points="7.438,19.666 4.41,24.91 10.466,24.91 		"/>
		<polygon points="11.98,24.91 18.035,24.91 15.008,19.666 		"/>
		<polygon points="25.604,24.91 22.577,19.666 19.549,24.91 		"/>
		<polygon points="33.174,24.91 30.146,19.666 27.118,24.91 		"/>
		<polygon points="27.118,25.784 30.146,31.027 33.174,25.784 		"/>
		<polygon points="19.549,25.784 22.577,31.027 25.604,25.784 		"/>
		<polygon points="11.98,25.784 15.008,31.027 18.035,25.784 		"/>
		<polygon points="4.41,25.784 7.438,31.027 10.466,25.784 		"/>
		<polygon points="0.626,31.465 6.681,31.465 3.653,26.221 		"/>
		<polygon points="8.195,31.465 14.25,31.465 11.223,26.221 		"/>
		<polygon points="15.765,31.465 21.819,31.465 18.792,26.221 		"/>
		<polygon points="23.334,31.465 29.39,31.465 26.36,26.221 		"/>
		<polygon points="36.958,31.465 33.931,26.221 30.903,31.465 		"/>
		<polygon points="33.931,37.584 36.958,32.339 30.903,32.339 		"/>
		<polygon points="26.36,37.584 29.39,32.339 23.334,32.339 		"/>
		<polygon points="18.792,37.584 21.819,32.339 15.765,32.339 		"/>
		<polygon points="11.223,37.584 14.25,32.339 8.195,32.339 		"/>
		<polygon points="3.653,37.584 6.681,32.339 0.626,32.339 		"/>
	</g>
</g>
<g>
</g>
<g>
</g>
<g>
</g>
<g>
</g>
<g>
</g>
<g>
</g>
<g>
</g>
<g>
</g>
<g>
</g>
<g>
</g>
<g>
</g>
<g>
</g>
<g>
</g>
<g>
</g>
<g>
</g>
</svg>
