<?xml version="1.0" encoding="iso-8859-1"?>
<!-- Generator: Adobe Illustrator 16.0.0, SVG Export Plug-In . SVG Version: 6.00 Build 0)  -->
<!DOCTYPE svg PUBLIC "-//W3C//DTD SVG 1.1//EN" "http://www.w3.org/Graphics/SVG/1.1/DTD/svg11.dtd">
<svg version="1.1" id="Capa_1" xmlns="http://www.w3.org/2000/svg" xmlns:xlink="http://www.w3.org/1999/xlink" x="0px" y="0px"
	 width="33.841px" height="33.841px" viewBox="0 0 33.841 33.841" style="enable-background:new 0 0 33.841 33.841;"
	 xml:space="preserve">
<g>
	<g>
		<polygon points="26.025,9.857 28.301,13.8 30.578,9.857 		"/>
		<polygon points="22.611,13.8 24.887,9.857 20.335,9.857 		"/>
		<polygon points="19.765,10.186 17.49,14.128 22.042,14.128 		"/>
		<polygon points="25.457,10.186 23.18,14.128 27.732,14.128 		"/>
		<polygon points="28.871,14.128 33.423,14.128 31.148,10.186 		"/>
		<polygon points="25.457,18.729 27.732,14.784 23.18,14.784 		"/>
		<polygon points="31.148,18.729 33.423,14.784 28.871,14.784 		"/>
		<polygon points="22.042,14.784 17.49,14.784 19.765,18.729 		"/>
		<polygon points="24.887,19.057 22.611,15.113 20.335,19.057 		"/>
		<polygon points="28.301,15.113 26.025,19.057 30.578,19.057 		"/>
		<polygon points="30.578,0 26.025,0 28.301,3.943 		"/>
		<polygon points="24.887,0 20.335,0 22.611,3.943 		"/>
		<polygon points="19.765,0.329 17.49,4.271 22.042,4.271 		"/>
		<polygon points="27.732,4.271 25.457,0.329 23.18,4.271 		"/>
		<polygon points="33.423,4.271 31.148,0.329 28.871,4.271 		"/>
		<polygon points="23.18,4.929 25.457,8.871 27.732,4.929 		"/>
		<polygon points="31.148,8.871 33.423,4.929 28.871,4.929 		"/>
		<polygon points="22.042,4.929 17.49,4.929 19.765,8.871 		"/>
		<polygon points="20.335,9.2 24.887,9.2 22.611,5.257 		"/>
		<polygon points="28.301,5.257 26.025,9.2 30.578,9.2 		"/>
		<polygon points="30.578,19.713 26.025,19.713 28.301,23.654 		"/>
		<polygon points="22.611,23.654 24.887,19.713 20.335,19.713 		"/>
		<polygon points="19.197,19.713 14.645,19.713 16.92,23.654 		"/>
		<polygon points="13.505,19.713 8.954,19.713 11.23,23.654 		"/>
		<polygon points="7.815,19.713 3.263,19.713 5.54,23.654 		"/>
		<polygon points="2.693,20.042 0.417,23.984 4.97,23.984 		"/>
		<polygon points="10.661,23.984 8.384,20.042 6.108,23.984 		"/>
		<polygon points="16.352,23.984 14.075,20.042 11.798,23.984 		"/>
		<polygon points="17.49,23.984 22.042,23.984 19.765,20.042 		"/>
		<polygon points="25.457,20.042 23.18,23.984 27.732,23.984 		"/>
		<polygon points="28.871,23.984 33.423,23.984 31.148,20.042 		"/>
		<polygon points="27.732,24.641 23.18,24.641 25.457,28.584 		"/>
		<polygon points="31.148,28.584 33.423,24.641 28.871,24.641 		"/>
		<polygon points="22.042,24.641 17.49,24.641 19.765,28.584 		"/>
		<polygon points="16.352,24.641 11.798,24.641 14.075,28.584 		"/>
		<polygon points="10.661,24.641 6.108,24.641 8.384,28.584 		"/>
		<polygon points="0.417,24.641 2.693,28.584 4.97,24.641 		"/>
		<polygon points="3.263,28.913 7.815,28.913 5.54,24.97 		"/>
		<polygon points="11.23,24.97 8.954,28.913 13.505,28.913 		"/>
		<polygon points="16.92,24.97 14.645,28.913 19.197,28.913 		"/>
		<polygon points="22.611,24.97 20.335,28.913 24.887,28.913 		"/>
		<polygon points="26.025,28.913 30.578,28.913 28.301,24.97 		"/>
		<polygon points="28.301,33.512 30.578,29.568 26.025,29.568 		"/>
		<polygon points="20.335,29.568 22.611,33.512 24.887,29.568 		"/>
		<polygon points="14.645,29.568 16.92,33.512 19.197,29.568 		"/>
		<polygon points="8.954,29.568 11.23,33.512 13.505,29.568 		"/>
		<polygon points="3.263,29.568 5.54,33.512 7.815,29.568 		"/>
		<polygon points="6.108,33.841 10.661,33.841 8.384,29.898 		"/>
		<polygon points="11.798,33.841 16.352,33.841 14.075,29.898 		"/>
		<polygon points="17.49,33.841 22.042,33.841 19.765,29.898 		"/>
		<polygon points="23.18,33.841 27.732,33.841 25.457,29.898 		"/>
	</g>
</g>
<g>
</g>
<g>
</g>
<g>
</g>
<g>
</g>
<g>
</g>
<g>
</g>
<g>
</g>
<g>
</g>
<g>
</g>
<g>
</g>
<g>
</g>
<g>
</g>
<g>
</g>
<g>
</g>
<g>
</g>
</svg>
