<?xml version="1.0" encoding="iso-8859-1"?>
<!-- Generator: Adobe Illustrator 16.0.0, SVG Export Plug-In . SVG Version: 6.00 Build 0)  -->
<!DOCTYPE svg PUBLIC "-//W3C//DTD SVG 1.1//EN" "http://www.w3.org/Graphics/SVG/1.1/DTD/svg11.dtd">
<svg version="1.1" id="Capa_1" xmlns="http://www.w3.org/2000/svg" xmlns:xlink="http://www.w3.org/1999/xlink" x="0px" y="0px"
	 width="209.218px" height="209.218px" viewBox="0 0 209.218 209.218" style="enable-background:new 0 0 209.218 209.218;"
	 xml:space="preserve">
<g>
	<g>
		<polygon points="38.503,128.488 13.524,121.792 20.224,146.765 		"/>
		<polygon points="45.717,126.556 70.69,133.253 64.002,108.262 		"/>
		<polygon points="0,172.275 24.988,178.954 18.285,153.981 		"/>
		<polygon points="36.952,209.218 55.236,190.924 30.27,184.233 		"/>
		<polygon points="82.657,163.504 100.953,145.21 75.969,138.525 		"/>
		<polygon points="62.454,188.991 87.427,195.688 80.732,170.715 		"/>
		<polygon points="67.992,20.218 43.019,13.524 49.713,38.497 		"/>
		<polygon points="93.497,0 75.206,18.285 100.185,24.979 		"/>
		<polygon points="47.78,45.711 29.489,64.002 54.474,70.685 		"/>
		<polygon points="59.758,75.963 66.44,100.947 84.726,82.656 		"/>
		<polygon points="130.439,36.945 105.463,30.264 112.151,55.236 		"/>
		<polygon points="91.948,80.732 116.915,87.421 110.225,62.447 		"/>
		<polygon points="128.488,117.276 146.771,99 121.792,92.303 		"/>
		<polygon points="172.275,78.776 153.981,97.067 178.961,103.758 		"/>
		<polygon points="108.271,142.78 133.253,149.46 126.562,124.487 		"/>
		<polygon points="145.222,179.724 163.504,161.435 138.537,154.744 		"/>
		<polygon points="209.218,115.722 184.228,109.042 190.93,134.009 		"/>
		<polygon points="170.721,159.509 195.694,166.199 188.991,141.227 		"/>
	</g>
</g>
<g>
</g>
<g>
</g>
<g>
</g>
<g>
</g>
<g>
</g>
<g>
</g>
<g>
</g>
<g>
</g>
<g>
</g>
<g>
</g>
<g>
</g>
<g>
</g>
<g>
</g>
<g>
</g>
<g>
</g>
</svg>
