<?xml version="1.0" encoding="iso-8859-1"?>
<!-- Generator: Adobe Illustrator 16.0.0, SVG Export Plug-In . SVG Version: 6.00 Build 0)  -->
<!DOCTYPE svg PUBLIC "-//W3C//DTD SVG 1.1//EN" "http://www.w3.org/Graphics/SVG/1.1/DTD/svg11.dtd">
<svg version="1.1" id="Capa_1" xmlns="http://www.w3.org/2000/svg" xmlns:xlink="http://www.w3.org/1999/xlink" x="0px" y="0px"
	 width="33.264px" height="33.264px" viewBox="0 0 33.264 33.264" style="enable-background:new 0 0 33.264 33.264;"
	 xml:space="preserve">
<g>
	<g>
		<polygon points="22.524,5.67 17.287,5.67 19.905,10.206 		"/>
		<polygon points="15.977,5.67 10.739,5.67 13.358,10.206 		"/>
		<polygon points="10.085,6.048 7.466,10.584 12.703,10.584 		"/>
		<polygon points="25.798,10.584 23.179,6.048 20.56,10.584 		"/>
		<polygon points="23.179,15.876 25.798,11.34 20.56,11.34 		"/>
		<polygon points="19.251,11.34 14.013,11.34 16.632,15.876 		"/>
		<polygon points="7.466,11.34 10.085,15.876 12.703,11.34 		"/>
		<polygon points="10.739,16.254 15.977,16.254 13.358,11.718 		"/>
		<polygon points="17.287,16.254 22.524,16.254 19.905,11.718 		"/>
		<polygon points="19.251,0 14.013,0 16.632,4.536 		"/>
		<polygon points="13.358,0.378 10.739,4.914 15.977,4.914 		"/>
		<polygon points="22.524,4.914 19.905,0.378 17.287,4.914 		"/>
		<polygon points="19.905,21.546 22.524,17.01 17.287,17.01 		"/>
		<polygon points="10.739,17.01 13.358,21.546 15.977,17.01 		"/>
		<polygon points="14.013,21.924 19.251,21.924 16.632,17.388 		"/>
		<polygon points="16.632,27.216 19.251,22.68 14.013,22.68 		"/>
		<polygon points="14.013,33.264 19.251,33.264 16.632,28.729 		"/>
	</g>
</g>
<g>
</g>
<g>
</g>
<g>
</g>
<g>
</g>
<g>
</g>
<g>
</g>
<g>
</g>
<g>
</g>
<g>
</g>
<g>
</g>
<g>
</g>
<g>
</g>
<g>
</g>
<g>
</g>
<g>
</g>
</svg>
