<?xml version="1.0" encoding="iso-8859-1"?>
<!-- Generator: Adobe Illustrator 16.0.0, SVG Export Plug-In . SVG Version: 6.00 Build 0)  -->
<!DOCTYPE svg PUBLIC "-//W3C//DTD SVG 1.1//EN" "http://www.w3.org/Graphics/SVG/1.1/DTD/svg11.dtd">
<svg version="1.1" id="Capa_1" xmlns="http://www.w3.org/2000/svg" xmlns:xlink="http://www.w3.org/1999/xlink" x="0px" y="0px"
	 width="39.28px" height="39.28px" viewBox="0 0 39.28 39.28" style="enable-background:new 0 0 39.28 39.28;" xml:space="preserve"
	>
<g>
	<g>
		<polygon points="33.477,9.987 28.865,9.987 31.171,13.981 		"/>
		<polygon points="25.407,13.981 27.711,9.987 23.1,9.987 		"/>
		<polygon points="19.641,13.981 21.946,9.987 17.334,9.987 		"/>
		<polygon points="16.18,9.987 11.569,9.987 13.875,13.981 		"/>
		<polygon points="10.415,9.987 5.802,9.987 8.11,13.981 		"/>
		<polygon points="5.227,10.319 2.92,14.314 7.532,14.314 		"/>
		<polygon points="13.298,14.314 10.993,10.319 8.686,14.314 		"/>
		<polygon points="14.452,14.314 19.064,14.314 16.758,10.319 		"/>
		<polygon points="22.523,10.319 20.217,14.314 24.829,14.314 		"/>
		<polygon points="30.594,14.314 28.289,10.319 25.982,14.314 		"/>
		<polygon points="36.36,14.314 34.055,10.319 31.748,14.314 		"/>
		<polygon points="25.982,14.98 28.289,18.974 30.594,14.98 		"/>
		<polygon points="34.055,18.974 36.36,14.98 31.748,14.98 		"/>
		<polygon points="24.829,14.98 20.217,14.98 22.523,18.974 		"/>
		<polygon points="16.758,18.974 19.064,14.98 14.452,14.98 		"/>
		<polygon points="8.686,14.98 10.993,18.974 13.298,14.98 		"/>
		<polygon points="2.92,14.98 5.227,18.974 7.532,14.98 		"/>
		<polygon points="5.802,19.307 10.415,19.307 8.11,15.313 		"/>
		<polygon points="13.875,15.313 11.569,19.307 16.18,19.307 		"/>
		<polygon points="19.641,15.313 17.334,19.307 21.946,19.307 		"/>
		<polygon points="23.1,19.307 27.711,19.307 25.407,15.313 		"/>
		<polygon points="28.865,19.307 33.477,19.307 31.171,15.313 		"/>
		<polygon points="21.946,0 17.334,0 19.641,3.994 		"/>
		<polygon points="16.758,0.333 14.452,4.328 19.064,4.328 		"/>
		<polygon points="24.829,4.328 22.523,0.333 20.217,4.328 		"/>
		<polygon points="24.829,4.994 20.217,4.994 22.523,8.989 		"/>
		<polygon points="19.064,4.994 14.452,4.994 16.758,8.989 		"/>
		<polygon points="17.334,9.321 21.946,9.321 19.641,5.327 		"/>
		<polygon points="17.334,19.973 19.641,23.967 21.946,19.973 		"/>
		<polygon points="19.064,24.301 16.758,20.307 14.452,24.301 		"/>
		<polygon points="20.217,24.301 24.829,24.301 22.523,20.307 		"/>
		<polygon points="22.523,28.961 24.829,24.967 20.217,24.967 		"/>
		<polygon points="16.758,28.961 19.064,24.967 14.452,24.967 		"/>
		<polygon points="19.641,25.299 17.334,29.293 21.946,29.293 		"/>
		<polygon points="21.946,29.959 17.334,29.959 19.641,33.953 		"/>
		<polygon points="19.064,34.286 16.758,30.291 14.452,34.286 		"/>
		<polygon points="20.217,34.286 24.829,34.286 22.523,30.291 		"/>
		<polygon points="22.523,38.947 24.829,34.953 20.217,34.953 		"/>
		<polygon points="14.452,34.953 16.758,38.947 19.064,34.953 		"/>
		<polygon points="17.334,39.28 21.946,39.28 19.641,35.286 		"/>
	</g>
</g>
<g>
</g>
<g>
</g>
<g>
</g>
<g>
</g>
<g>
</g>
<g>
</g>
<g>
</g>
<g>
</g>
<g>
</g>
<g>
</g>
<g>
</g>
<g>
</g>
<g>
</g>
<g>
</g>
<g>
</g>
</svg>
