<?xml version="1.0" encoding="iso-8859-1"?>
<!-- Generator: Adobe Illustrator 16.0.0, SVG Export Plug-In . SVG Version: 6.00 Build 0)  -->
<!DOCTYPE svg PUBLIC "-//W3C//DTD SVG 1.1//EN" "http://www.w3.org/Graphics/SVG/1.1/DTD/svg11.dtd">
<svg version="1.1" id="Capa_1" xmlns="http://www.w3.org/2000/svg" xmlns:xlink="http://www.w3.org/1999/xlink" x="0px" y="0px"
	 width="217.558px" height="217.558px" viewBox="0 0 217.558 217.558" style="enable-background:new 0 0 217.558 217.558;"
	 xml:space="preserve">
<g>
	<g>
		<polygon points="163.651,57.036 178.28,31.694 149.022,31.694 		"/>
		<polygon points="112.435,31.694 127.069,57.036 141.699,31.694 		"/>
		<polygon points="105.123,31.694 75.859,31.694 90.488,57.036 		"/>
		<polygon points="68.535,31.694 39.277,31.694 53.906,57.036 		"/>
		<polygon points="72.197,33.798 57.568,59.146 86.826,59.146 		"/>
		<polygon points="108.779,33.798 94.15,59.146 123.411,59.146 		"/>
		<polygon points="145.363,33.798 130.729,59.146 159.986,59.146 		"/>
		<polygon points="130.729,63.367 145.363,88.715 159.986,63.367 		"/>
		<polygon points="57.568,63.367 72.197,88.715 86.826,63.367 		"/>
		<polygon points="53.906,65.486 39.277,90.828 68.535,90.828 		"/>
		<polygon points="75.859,90.828 105.123,90.828 90.488,65.486 		"/>
		<polygon points="127.069,65.486 112.435,90.828 141.699,90.828 		"/>
		<polygon points="149.022,90.828 178.28,90.828 163.651,65.486 		"/>
		<polygon points="159.986,0 130.729,0 145.363,25.349 		"/>
		<polygon points="123.411,0 94.15,0 108.779,25.349 		"/>
		<polygon points="86.826,0 57.568,0 72.197,25.349 		"/>
		<polygon points="53.906,2.113 39.277,27.462 68.535,27.462 		"/>
		<polygon points="105.123,27.462 90.488,2.113 75.859,27.462 		"/>
		<polygon points="141.699,27.462 127.069,2.113 112.435,27.462 		"/>
		<polygon points="178.28,27.462 163.651,2.113 149.022,27.462 		"/>
		<polygon points="163.651,120.402 178.28,95.051 149.022,95.051 		"/>
		<polygon points="112.435,95.051 127.069,120.402 141.699,95.051 		"/>
		<polygon points="90.488,120.402 105.123,95.051 75.859,95.051 		"/>
		<polygon points="68.535,95.051 39.277,95.051 53.906,120.402 		"/>
		<polygon points="72.197,97.165 57.568,122.513 86.826,122.513 		"/>
		<polygon points="145.363,97.165 130.729,122.513 159.986,122.513 		"/>
		<polygon points="130.729,126.728 145.363,152.072 159.986,126.728 		"/>
		<polygon points="57.568,126.728 72.197,152.072 86.826,126.728 		"/>
		<polygon points="53.906,128.843 39.277,154.188 68.535,154.188 		"/>
		<polygon points="75.859,154.188 105.123,154.188 90.488,128.843 		"/>
		<polygon points="141.699,154.188 127.069,128.843 112.435,154.188 		"/>
		<polygon points="149.022,154.188 178.28,154.188 163.651,128.843 		"/>
		<polygon points="163.651,183.767 178.28,158.421 149.022,158.421 		"/>
		<polygon points="141.699,158.421 112.435,158.421 127.069,183.767 		"/>
		<polygon points="90.488,183.767 105.123,158.421 75.859,158.421 		"/>
		<polygon points="68.535,158.421 39.277,158.421 53.906,183.767 		"/>
		<polygon points="86.826,185.87 72.197,160.524 57.568,185.87 		"/>
		<polygon points="145.363,160.524 130.729,185.87 159.986,185.87 		"/>
		<polygon points="130.729,190.097 145.363,215.448 159.986,190.097 		"/>
		<polygon points="57.568,190.097 72.197,215.448 86.826,190.097 		"/>
		<polygon points="39.277,217.558 68.535,217.558 53.906,192.206 		"/>
		<polygon points="75.859,217.558 105.123,217.558 90.488,192.206 		"/>
		<polygon points="112.435,217.558 141.699,217.558 127.069,192.206 		"/>
		<polygon points="149.022,217.558 178.28,217.558 163.651,192.206 		"/>
	</g>
</g>
<g>
</g>
<g>
</g>
<g>
</g>
<g>
</g>
<g>
</g>
<g>
</g>
<g>
</g>
<g>
</g>
<g>
</g>
<g>
</g>
<g>
</g>
<g>
</g>
<g>
</g>
<g>
</g>
<g>
</g>
</svg>
