<?xml version="1.0" encoding="iso-8859-1"?>
<!-- Generator: Adobe Illustrator 16.0.0, SVG Export Plug-In . SVG Version: 6.00 Build 0)  -->
<!DOCTYPE svg PUBLIC "-//W3C//DTD SVG 1.1//EN" "http://www.w3.org/Graphics/SVG/1.1/DTD/svg11.dtd">
<svg version="1.1" id="Capa_1" xmlns="http://www.w3.org/2000/svg" xmlns:xlink="http://www.w3.org/1999/xlink" x="0px" y="0px"
	 width="239.362px" height="239.363px" viewBox="0 0 239.362 239.363" style="enable-background:new 0 0 239.362 239.363;"
	 xml:space="preserve">
<g>
	<g>
		<polygon points="204.157,44.485 176.005,44.485 190.078,68.87 		"/>
		<polygon points="63.352,44.485 35.195,44.485 49.275,68.87 		"/>
		<polygon points="31.673,46.518 17.593,70.903 45.752,70.903 		"/>
		<polygon points="80.959,70.903 66.874,46.518 52.798,70.903 		"/>
		<polygon points="172.481,46.518 158.396,70.903 186.556,70.903 		"/>
		<polygon points="221.76,70.903 207.681,46.518 193.601,70.903 		"/>
		<polygon points="158.396,74.969 172.481,99.357 186.556,74.969 		"/>
		<polygon points="193.601,74.969 207.681,99.357 221.76,74.969 		"/>
		<polygon points="52.798,74.969 66.874,99.357 80.959,74.969 		"/>
		<polygon points="17.593,74.969 31.673,99.357 45.752,74.969 		"/>
		<polygon points="0,101.39 28.156,101.39 14.079,77.005 		"/>
		<polygon points="35.195,101.39 63.352,101.39 49.275,77.005 		"/>
		<polygon points="98.562,101.39 84.482,77.005 70.397,101.39 		"/>
		<polygon points="140.794,101.39 168.959,101.39 154.874,77.005 		"/>
		<polygon points="176.005,101.39 204.157,101.39 190.078,77.005 		"/>
		<polygon points="225.276,77.005 211.203,101.39 239.362,101.39 		"/>
		<polygon points="49.275,16.03 35.195,40.415 63.352,40.415 		"/>
		<polygon points="190.078,16.03 176.005,40.415 204.157,40.415 		"/>
		<polygon points="133.761,162.357 119.678,137.969 105.599,162.357 		"/>
		<polygon points="133.761,166.423 105.599,166.423 119.678,190.812 		"/>
		<polygon points="116.155,192.845 102.076,168.457 87.999,192.845 		"/>
		<polygon points="137.283,168.457 123.201,192.845 151.356,192.845 		"/>
		<polygon points="123.201,196.912 137.283,221.299 151.356,196.912 		"/>
		<polygon points="87.999,196.912 102.076,221.299 116.155,196.912 		"/>
		<polygon points="70.397,223.333 98.562,223.333 84.482,198.945 		"/>
		<polygon points="105.599,223.333 133.761,223.333 119.678,198.945 		"/>
		<polygon points="140.794,223.333 168.959,223.333 154.874,198.945 		"/>
		<polygon points="98.562,124.847 116.664,114.385 98.562,103.926 		"/>
		<polygon points="118.171,117.006 100.06,127.448 118.171,137.904 		"/>
		<polygon points="118.171,90.867 100.06,101.323 118.171,111.764 		"/>
		<polygon points="121.186,90.867 121.186,111.764 139.293,101.323 		"/>
		<polygon points="121.186,117.006 121.186,137.904 139.293,127.448 		"/>
		<polygon points="140.794,124.847 140.794,103.926 122.692,114.385 		"/>
	</g>
</g>
<g>
</g>
<g>
</g>
<g>
</g>
<g>
</g>
<g>
</g>
<g>
</g>
<g>
</g>
<g>
</g>
<g>
</g>
<g>
</g>
<g>
</g>
<g>
</g>
<g>
</g>
<g>
</g>
<g>
</g>
</svg>
