<?xml version="1.0" encoding="iso-8859-1"?>
<!-- Generator: Adobe Illustrator 16.0.0, SVG Export Plug-In . SVG Version: 6.00 Build 0)  -->
<!DOCTYPE svg PUBLIC "-//W3C//DTD SVG 1.1//EN" "http://www.w3.org/Graphics/SVG/1.1/DTD/svg11.dtd">
<svg version="1.1" id="Capa_1" xmlns="http://www.w3.org/2000/svg" xmlns:xlink="http://www.w3.org/1999/xlink" x="0px" y="0px"
	 width="35.938px" height="35.938px" viewBox="0 0 35.938 35.938" style="enable-background:new 0 0 35.938 35.938;"
	 xml:space="preserve">
<g>
	<g>
		<polygon points="24.482,5.851 18.693,5.851 21.588,10.865 		"/>
		<polygon points="4.218,17.551 10.007,17.551 7.113,12.536 		"/>
		<polygon points="31.72,18.387 25.931,18.387 28.824,23.402 		"/>
		<polygon points="20.863,11.283 17.969,6.269 15.074,11.283 		"/>
		<polygon points="28.102,12.118 22.312,12.118 25.207,17.133 		"/>
		<polygon points="13.626,12.118 7.836,12.118 10.731,17.133 		"/>
		<polygon points="18.693,17.551 24.482,17.551 21.588,12.536 		"/>
		<polygon points="17.245,18.387 11.455,18.387 14.35,23.402 		"/>
		<polygon points="10.731,18.805 7.836,23.82 13.626,23.82 		"/>
		<polygon points="25.207,18.805 22.312,23.82 28.102,23.82 		"/>
		<polygon points="15.074,24.654 17.969,29.669 20.863,24.654 		"/>
		<polygon points="11.455,30.087 17.245,30.087 14.35,25.072 		"/>
		<polygon points="31.72,5.851 25.931,5.851 28.824,10.865 		"/>
		<polygon points="10.007,5.851 4.218,5.851 7.113,10.865 		"/>
		<polygon points="35.34,12.118 29.55,12.118 32.445,17.133 		"/>
		<polygon points="6.388,12.118 0.598,12.118 3.493,17.133 		"/>
		<polygon points="14.35,0 11.455,5.015 17.245,5.015 		"/>
		<polygon points="21.588,0 18.693,5.015 24.482,5.015 		"/>
		<polygon points="3.493,18.805 0.598,23.82 6.388,23.82 		"/>
		<polygon points="29.55,23.82 35.34,23.82 32.445,18.805 		"/>
		<polygon points="4.218,30.087 10.007,30.087 7.113,25.072 		"/>
		<polygon points="25.931,30.087 31.72,30.087 28.824,25.072 		"/>
		<polygon points="21.588,35.938 24.482,30.923 18.693,30.923 		"/>
		<polygon points="14.35,35.938 17.245,30.923 11.455,30.923 		"/>
	</g>
</g>
<g>
</g>
<g>
</g>
<g>
</g>
<g>
</g>
<g>
</g>
<g>
</g>
<g>
</g>
<g>
</g>
<g>
</g>
<g>
</g>
<g>
</g>
<g>
</g>
<g>
</g>
<g>
</g>
<g>
</g>
</svg>
