<?xml version="1.0" encoding="iso-8859-1"?>
<!-- Generator: Adobe Illustrator 16.0.0, SVG Export Plug-In . SVG Version: 6.00 Build 0)  -->
<!DOCTYPE svg PUBLIC "-//W3C//DTD SVG 1.1//EN" "http://www.w3.org/Graphics/SVG/1.1/DTD/svg11.dtd">
<svg version="1.1" id="Capa_1" xmlns="http://www.w3.org/2000/svg" xmlns:xlink="http://www.w3.org/1999/xlink" x="0px" y="0px"
	 width="37.67px" height="37.67px" viewBox="0 0 37.67 37.67" style="enable-background:new 0 0 37.67 37.67;" xml:space="preserve"
	>
<g>
	<g>
		<polygon points="27.928,2.335 22.732,2.335 25.33,6.835 		"/>
		<polygon points="21.434,2.335 16.237,2.335 18.835,6.835 		"/>
		<polygon points="14.938,2.335 9.742,2.335 12.34,6.835 		"/>
		<polygon points="9.092,2.71 6.495,7.21 11.69,7.21 		"/>
		<polygon points="15.587,2.71 12.99,7.21 18.185,7.21 		"/>
		<polygon points="22.083,2.71 19.484,7.21 24.68,7.21 		"/>
		<polygon points="28.578,2.71 25.98,7.21 31.175,7.21 		"/>
		<polygon points="34.423,13.585 29.227,13.585 31.825,18.085 		"/>
		<polygon points="8.443,13.585 3.247,13.585 5.845,18.085 		"/>
		<polygon points="2.597,13.96 0,18.46 5.195,18.46 		"/>
		<polygon points="35.072,13.96 32.475,18.46 37.67,18.46 		"/>
		<polygon points="27.928,13.585 22.732,13.585 25.33,18.085 		"/>
		<polygon points="21.434,13.585 16.237,13.585 18.835,18.085 		"/>
		<polygon points="14.938,13.585 9.742,13.585 12.34,18.085 		"/>
		<polygon points="9.092,13.96 6.495,18.46 11.69,18.46 		"/>
		<polygon points="15.587,13.96 12.99,18.46 18.185,18.46 		"/>
		<polygon points="22.083,13.96 19.484,18.46 24.68,18.46 		"/>
		<polygon points="28.578,13.96 25.98,18.46 31.175,18.46 		"/>
		<polygon points="24.68,19.21 19.484,19.21 22.083,23.71 		"/>
		<polygon points="18.185,19.21 12.99,19.21 15.587,23.71 		"/>
		<polygon points="12.34,19.585 9.742,24.085 14.938,24.085 		"/>
		<polygon points="18.835,19.585 16.237,24.085 21.434,24.085 		"/>
		<polygon points="25.33,19.585 22.732,24.085 27.928,24.085 		"/>
		<polygon points="31.175,7.96 25.98,7.96 28.578,12.46 		"/>
		<polygon points="24.68,7.96 19.484,7.96 22.083,12.46 		"/>
		<polygon points="18.185,7.96 12.99,7.96 15.587,12.46 		"/>
		<polygon points="11.69,7.96 6.495,7.96 9.092,12.46 		"/>
		<polygon points="5.845,8.335 3.247,12.835 8.443,12.835 		"/>
		<polygon points="12.34,8.335 9.742,12.835 14.938,12.835 		"/>
		<polygon points="18.835,8.335 16.237,12.835 21.434,12.835 		"/>
		<polygon points="25.33,8.335 22.732,12.835 27.928,12.835 		"/>
		<polygon points="31.825,8.335 29.227,12.835 34.423,12.835 		"/>
		<polygon points="27.928,24.835 22.732,24.835 25.33,29.335 		"/>
		<polygon points="21.434,24.835 16.237,24.835 18.835,29.335 		"/>
		<polygon points="14.938,24.835 9.742,24.835 12.34,29.335 		"/>
		<polygon points="9.092,25.21 6.495,29.71 11.69,29.71 		"/>
		<polygon points="15.587,25.21 12.99,29.71 18.185,29.71 		"/>
		<polygon points="22.083,25.21 19.484,29.71 24.68,29.71 		"/>
		<polygon points="28.578,25.21 25.98,29.71 31.175,29.71 		"/>
		<polygon points="31.175,30.46 25.98,30.46 28.578,34.96 		"/>
		<polygon points="24.68,30.46 19.484,30.46 22.083,34.96 		"/>
		<polygon points="18.185,30.46 12.99,30.46 15.587,34.96 		"/>
		<polygon points="11.69,30.46 6.495,30.46 9.092,34.96 		"/>
		<polygon points="12.34,30.835 9.742,35.335 14.938,35.335 		"/>
		<polygon points="18.835,30.835 16.237,35.335 21.434,35.335 		"/>
		<polygon points="25.33,30.835 22.732,35.335 27.928,35.335 		"/>
	</g>
</g>
<g>
</g>
<g>
</g>
<g>
</g>
<g>
</g>
<g>
</g>
<g>
</g>
<g>
</g>
<g>
</g>
<g>
</g>
<g>
</g>
<g>
</g>
<g>
</g>
<g>
</g>
<g>
</g>
<g>
</g>
</svg>
