<?xml version="1.0" encoding="iso-8859-1"?>
<!-- Generator: Adobe Illustrator 16.0.0, SVG Export Plug-In . SVG Version: 6.00 Build 0)  -->
<!DOCTYPE svg PUBLIC "-//W3C//DTD SVG 1.1//EN" "http://www.w3.org/Graphics/SVG/1.1/DTD/svg11.dtd">
<svg version="1.1" id="Capa_1" xmlns="http://www.w3.org/2000/svg" xmlns:xlink="http://www.w3.org/1999/xlink" x="0px" y="0px"
	 width="41.28px" height="41.281px" viewBox="0 0 41.28 41.281" style="enable-background:new 0 0 41.28 41.281;"
	 xml:space="preserve">
<g>
	<g>
		<polygon points="37.723,18.175 32.028,18.175 34.874,23.105 		"/>
		<polygon points="31.316,18.585 28.469,23.516 34.162,23.516 		"/>
		<polygon points="41.28,12.011 35.586,12.011 38.434,16.942 		"/>
		<polygon points="27.045,24.338 21.352,24.338 24.199,29.269 		"/>
		<polygon points="34.874,12.422 32.028,17.352 37.723,17.352 		"/>
		<polygon points="34.162,12.011 28.469,12.011 31.316,16.942 		"/>
		<polygon points="12.811,12.011 7.117,12.011 9.964,16.942 		"/>
		<polygon points="5.693,12.011 0,12.011 2.847,16.942 		"/>
		<polygon points="6.405,12.422 3.558,17.352 9.252,17.352 		"/>
		<polygon points="13.523,12.422 10.676,17.352 16.369,17.352 		"/>
		<polygon points="27.758,12.422 24.911,17.352 30.604,17.352 		"/>
		<polygon points="30.604,18.175 24.911,18.175 27.758,23.105 		"/>
		<polygon points="16.369,18.175 10.676,18.175 13.523,23.105 		"/>
		<polygon points="9.252,18.175 3.558,18.175 6.405,23.105 		"/>
		<polygon points="9.964,18.585 7.117,23.516 12.811,23.516 		"/>
		<polygon points="17.081,18.585 14.235,23.516 19.928,23.516 		"/>
		<polygon points="24.199,18.585 21.352,23.516 27.045,23.516 		"/>
		<polygon points="19.928,24.338 14.235,24.338 17.081,29.269 		"/>
	</g>
</g>
<g>
</g>
<g>
</g>
<g>
</g>
<g>
</g>
<g>
</g>
<g>
</g>
<g>
</g>
<g>
</g>
<g>
</g>
<g>
</g>
<g>
</g>
<g>
</g>
<g>
</g>
<g>
</g>
<g>
</g>
</svg>
