<?xml version="1.0" encoding="iso-8859-1"?>
<!-- Generator: Adobe Illustrator 16.0.0, SVG Export Plug-In . SVG Version: 6.00 Build 0)  -->
<!DOCTYPE svg PUBLIC "-//W3C//DTD SVG 1.1//EN" "http://www.w3.org/Graphics/SVG/1.1/DTD/svg11.dtd">
<svg version="1.1" id="Capa_1" xmlns="http://www.w3.org/2000/svg" xmlns:xlink="http://www.w3.org/1999/xlink" x="0px" y="0px"
	 width="216.984px" height="216.984px" viewBox="0 0 216.984 216.984" style="enable-background:new 0 0 216.984 216.984;"
	 xml:space="preserve">
<g>
	<g>
		<polygon points="214.304,63.201 185.122,63.201 199.71,88.476 		"/>
		<polygon points="141.335,63.201 112.147,63.201 126.741,88.476 		"/>
		<polygon points="72.008,65.309 57.414,90.589 86.598,90.589 		"/>
		<polygon points="108.492,65.309 93.898,90.589 123.082,90.589 		"/>
		<polygon points="196.057,94.8 166.875,94.8 181.475,120.077 		"/>
		<polygon points="159.569,94.8 130.389,94.8 144.981,120.077 		"/>
		<polygon points="123.082,94.8 93.898,94.8 108.492,120.077 		"/>
		<polygon points="86.598,94.8 57.414,94.8 72.008,120.077 		"/>
		<polygon points="50.108,94.8 20.924,94.8 35.515,120.077 		"/>
		<polygon points="53.764,96.907 39.165,122.188 68.352,122.188 		"/>
		<polygon points="90.248,96.907 75.651,122.188 104.836,122.188 		"/>
		<polygon points="126.741,96.907 112.147,122.188 141.335,122.188 		"/>
		<polygon points="163.229,96.907 148.629,122.188 177.816,122.188 		"/>
		<polygon points="177.816,0 148.629,0 163.229,25.281 		"/>
		<polygon points="181.475,2.104 166.875,27.388 196.057,27.388 		"/>
		<polygon points="196.057,31.6 166.875,31.6 181.475,56.883 		"/>
		<polygon points="123.082,31.6 93.898,31.6 108.492,56.883 		"/>
		<polygon points="50.108,31.6 20.924,31.6 35.515,56.883 		"/>
		<polygon points="17.28,33.712 2.68,58.981 31.865,58.981 		"/>
		<polygon points="53.764,33.712 39.165,58.981 68.352,58.981 		"/>
		<polygon points="126.741,33.712 112.147,58.981 141.335,58.981 		"/>
		<polygon points="199.71,33.712 185.122,58.981 214.304,58.981 		"/>
		<polygon points="177.816,126.396 148.629,126.396 163.229,151.677 		"/>
		<polygon points="141.335,126.396 112.147,126.396 126.741,151.677 		"/>
		<polygon points="104.836,126.396 75.651,126.396 90.248,151.677 		"/>
		<polygon points="68.352,126.396 39.165,126.396 53.764,151.677 		"/>
		<polygon points="35.515,128.513 20.924,153.786 50.108,153.786 		"/>
		<polygon points="72.008,128.513 57.414,153.786 86.598,153.786 		"/>
		<polygon points="108.492,128.513 93.898,153.786 123.082,153.786 		"/>
		<polygon points="144.981,128.513 130.389,153.786 159.569,153.786 		"/>
		<polygon points="123.082,158.007 93.898,158.007 108.492,183.27 		"/>
		<polygon points="86.598,158.007 57.414,158.007 72.008,183.27 		"/>
		<polygon points="126.741,160.1 112.147,185.386 141.335,185.386 		"/>
		<polygon points="141.335,189.594 112.147,189.594 126.741,214.88 		"/>
		<polygon points="68.352,189.594 39.165,189.594 53.764,214.88 		"/>
		<polygon points="31.865,189.594 2.68,189.594 17.28,214.88 		"/>
		<polygon points="35.515,191.704 20.924,216.984 50.108,216.984 		"/>
		<polygon points="108.492,191.704 93.898,216.984 123.082,216.984 		"/>
	</g>
</g>
<g>
</g>
<g>
</g>
<g>
</g>
<g>
</g>
<g>
</g>
<g>
</g>
<g>
</g>
<g>
</g>
<g>
</g>
<g>
</g>
<g>
</g>
<g>
</g>
<g>
</g>
<g>
</g>
<g>
</g>
</svg>
