<?xml version="1.0" encoding="iso-8859-1"?>
<!-- Generator: Adobe Illustrator 16.0.0, SVG Export Plug-In . SVG Version: 6.00 Build 0)  -->
<!DOCTYPE svg PUBLIC "-//W3C//DTD SVG 1.1//EN" "http://www.w3.org/Graphics/SVG/1.1/DTD/svg11.dtd">
<svg version="1.1" id="Capa_1" xmlns="http://www.w3.org/2000/svg" xmlns:xlink="http://www.w3.org/1999/xlink" x="0px" y="0px"
	 width="226.814px" height="226.814px" viewBox="0 0 226.814 226.814" style="enable-background:new 0 0 226.814 226.814;"
	 xml:space="preserve">
<g>
	<g>
		<polygon points="147.734,66.062 117.219,66.062 132.478,92.489 		"/>
		<polygon points="94.336,92.489 109.595,66.062 79.083,66.062 		"/>
		<polygon points="189.694,59.459 204.95,33.026 174.439,33.026 		"/>
		<polygon points="128.666,33.026 98.148,33.026 113.407,59.459 		"/>
		<polygon points="52.378,33.026 21.867,33.026 37.12,59.459 		"/>
		<polygon points="18.055,35.231 2.802,61.658 33.313,61.658 		"/>
		<polygon points="224.012,61.658 208.756,35.231 193.5,61.658 		"/>
		<polygon points="208.756,92.489 224.012,66.062 193.5,66.062 		"/>
		<polygon points="2.802,66.062 18.055,92.489 33.313,66.062 		"/>
		<polygon points="21.867,94.688 52.378,94.688 37.12,68.26 		"/>
		<polygon points="174.439,94.688 204.95,94.688 189.694,68.26 		"/>
		<polygon points="185.875,0 155.365,0 170.621,26.424 		"/>
		<polygon points="71.45,0 40.938,0 56.197,26.424 		"/>
		<polygon points="37.12,2.196 21.867,28.623 52.378,28.623 		"/>
		<polygon points="90.523,28.623 75.265,2.196 60.012,28.623 		"/>
		<polygon points="151.552,2.196 136.291,28.623 166.802,28.623 		"/>
		<polygon points="204.95,28.623 189.694,2.196 174.439,28.623 		"/>
		<polygon points="189.694,125.521 204.95,99.091 174.439,99.091 		"/>
		<polygon points="166.802,99.091 136.291,99.091 151.552,125.521 		"/>
		<polygon points="113.407,125.521 128.666,99.091 98.148,99.091 		"/>
		<polygon points="75.265,125.521 90.523,99.091 60.012,99.091 		"/>
		<polygon points="21.867,99.091 37.12,125.521 52.378,99.091 		"/>
		<polygon points="56.197,101.295 40.938,127.719 71.45,127.719 		"/>
		<polygon points="79.083,127.719 109.595,127.719 94.336,101.295 		"/>
		<polygon points="132.478,101.295 117.219,127.719 147.734,127.719 		"/>
		<polygon points="155.365,127.719 185.875,127.719 170.621,101.295 		"/>
		<polygon points="90.523,160.75 75.265,134.329 60.012,160.75 		"/>
		<polygon points="136.291,160.75 166.802,160.75 151.552,134.329 		"/>
		<polygon points="151.552,191.58 166.802,165.159 136.291,165.159 		"/>
		<polygon points="128.666,165.159 98.148,165.159 113.407,191.58 		"/>
		<polygon points="60.012,165.159 75.265,191.58 90.523,165.159 		"/>
		<polygon points="109.595,193.791 94.336,167.358 79.083,193.791 		"/>
		<polygon points="117.219,193.791 147.734,193.791 132.478,167.358 		"/>
		<polygon points="132.478,224.621 147.734,198.188 117.219,198.188 		"/>
		<polygon points="79.083,198.188 94.336,224.621 109.595,198.188 		"/>
		<polygon points="98.148,226.814 128.666,226.814 113.407,200.387 		"/>
	</g>
</g>
<g>
</g>
<g>
</g>
<g>
</g>
<g>
</g>
<g>
</g>
<g>
</g>
<g>
</g>
<g>
</g>
<g>
</g>
<g>
</g>
<g>
</g>
<g>
</g>
<g>
</g>
<g>
</g>
<g>
</g>
</svg>
