<?xml version="1.0" encoding="iso-8859-1"?>
<!-- Generator: Adobe Illustrator 16.0.0, SVG Export Plug-In . SVG Version: 6.00 Build 0)  -->
<!DOCTYPE svg PUBLIC "-//W3C//DTD SVG 1.1//EN" "http://www.w3.org/Graphics/SVG/1.1/DTD/svg11.dtd">
<svg version="1.1" id="Capa_1" xmlns="http://www.w3.org/2000/svg" xmlns:xlink="http://www.w3.org/1999/xlink" x="0px" y="0px"
	 width="214.543px" height="214.544px" viewBox="0 0 214.543 214.544" style="enable-background:new 0 0 214.543 214.544;"
	 xml:space="preserve">
<g>
	<g>
		<polygon points="159.993,126.172 138.176,138.762 159.993,151.363 		"/>
		<polygon points="138.176,107.27 159.993,119.871 159.993,94.676 		"/>
		<polygon points="159.993,88.375 159.993,63.184 138.176,75.779 		"/>
		<polygon points="158.184,60.036 136.361,47.443 136.361,72.632 		"/>
		<polygon points="136.361,78.933 136.361,104.119 158.184,91.523 		"/>
		<polygon points="158.184,123.021 136.361,110.426 136.361,135.617 		"/>
		<polygon points="136.361,167.098 158.184,154.514 136.361,141.912 		"/>
		<polygon points="132.72,141.912 110.91,154.514 132.72,167.098 		"/>
		<polygon points="110.91,123.021 132.72,135.617 132.72,110.426 		"/>
		<polygon points="110.91,91.523 132.72,104.119 132.72,78.933 		"/>
		<polygon points="132.72,72.632 132.72,47.443 110.91,60.036 		"/>
		<polygon points="109.089,63.184 109.089,88.375 130.906,75.779 		"/>
		<polygon points="109.089,94.676 109.089,119.871 130.906,107.27 		"/>
		<polygon points="130.906,138.762 109.089,126.172 109.089,151.363 		"/>
		<polygon points="214.543,119.871 214.543,94.676 192.726,107.27 		"/>
		<polygon points="212.716,91.523 190.906,78.933 190.906,104.119 		"/>
		<polygon points="190.906,135.617 212.716,123.021 190.906,110.426 		"/>
		<polygon points="187.265,110.426 165.449,123.021 187.265,135.617 		"/>
		<polygon points="185.457,75.779 163.633,63.184 163.633,88.375 		"/>
		<polygon points="163.633,94.676 163.633,119.871 185.457,107.27 		"/>
		<polygon points="163.633,151.363 185.457,138.762 163.633,126.172 		"/>
		<polygon points="105.451,126.172 83.637,138.762 105.451,151.363 		"/>
		<polygon points="105.451,119.871 105.451,94.676 83.637,107.27 		"/>
		<polygon points="83.637,75.779 105.451,88.375 105.451,63.184 		"/>
		<polygon points="81.814,78.933 81.814,104.119 103.633,91.523 		"/>
		<polygon points="103.633,123.021 81.814,110.426 81.814,135.617 		"/>
		<polygon points="78.176,135.617 78.176,110.426 56.362,123.021 		"/>
		<polygon points="78.176,104.119 78.176,78.933 56.362,91.523 		"/>
		<polygon points="76.367,75.779 54.547,63.184 54.547,88.375 		"/>
		<polygon points="76.367,107.27 54.547,94.676 54.547,119.871 		"/>
		<polygon points="54.547,126.172 54.547,151.363 76.367,138.762 		"/>
		<polygon points="50.91,151.363 50.91,126.172 29.09,138.762 		"/>
		<polygon points="29.09,75.779 50.91,88.375 50.91,63.184 		"/>
		<polygon points="49.095,60.036 27.275,47.443 27.275,72.632 		"/>
		<polygon points="27.275,78.933 27.275,104.119 49.095,91.523 		"/>
		<polygon points="49.095,123.021 27.275,110.426 27.275,135.617 		"/>
		<polygon points="49.095,154.514 27.275,141.912 27.275,167.098 		"/>
		<polygon points="23.637,141.912 1.817,154.514 23.637,167.098 		"/>
		<polygon points="23.637,47.443 1.817,60.036 23.637,72.632 		"/>
		<polygon points="0,31.694 0,56.883 21.814,44.287 		"/>
		<polygon points="0,63.184 0,88.375 21.814,75.779 		"/>
		<polygon points="0,126.172 0,151.363 21.814,138.762 		"/>
		<polygon points="21.814,170.254 0,157.664 0,182.85 		"/>
	</g>
</g>
<g>
</g>
<g>
</g>
<g>
</g>
<g>
</g>
<g>
</g>
<g>
</g>
<g>
</g>
<g>
</g>
<g>
</g>
<g>
</g>
<g>
</g>
<g>
</g>
<g>
</g>
<g>
</g>
<g>
</g>
</svg>
