<?xml version="1.0" encoding="iso-8859-1"?>
<!-- Generator: Adobe Illustrator 16.0.0, SVG Export Plug-In . SVG Version: 6.00 Build 0)  -->
<!DOCTYPE svg PUBLIC "-//W3C//DTD SVG 1.1//EN" "http://www.w3.org/Graphics/SVG/1.1/DTD/svg11.dtd">
<svg version="1.1" id="Capa_1" xmlns="http://www.w3.org/2000/svg" xmlns:xlink="http://www.w3.org/1999/xlink" x="0px" y="0px"
	 width="226.973px" height="226.973px" viewBox="0 0 226.973 226.973" style="enable-background:new 0 0 226.973 226.973;"
	 xml:space="preserve">
<g>
	<g>
		<polygon points="45.708,0 27.629,31.309 63.783,31.309 		"/>
		<polygon points="181.265,0 163.189,31.309 199.34,31.309 		"/>
		<polygon points="199.34,36.523 163.189,36.523 181.265,67.832 		"/>
		<polygon points="63.783,36.523 27.629,36.523 45.708,67.832 		"/>
		<polygon points="23.108,39.135 5.042,70.441 41.189,70.441 		"/>
		<polygon points="203.868,39.135 185.781,70.441 221.932,70.441 		"/>
		<polygon points="221.932,75.658 185.781,75.658 203.868,106.967 		"/>
		<polygon points="131.556,75.658 95.414,75.658 113.486,106.967 		"/>
		<polygon points="41.189,75.658 5.042,75.658 23.108,106.967 		"/>
		<polygon points="45.708,78.267 27.629,109.574 63.783,109.574 		"/>
		<polygon points="90.898,78.267 72.817,109.574 108.965,109.574 		"/>
		<polygon points="136.071,78.267 118.008,109.574 154.158,109.574 		"/>
		<polygon points="181.265,78.267 163.189,109.574 199.34,109.574 		"/>
		<polygon points="199.34,114.793 163.189,114.793 181.265,146.102 		"/>
		<polygon points="154.158,114.793 118.008,114.793 136.071,146.102 		"/>
		<polygon points="108.965,114.793 72.817,114.793 90.898,146.102 		"/>
		<polygon points="63.783,114.793 27.629,114.793 45.708,146.102 		"/>
		<polygon points="113.486,117.4 95.414,148.704 131.556,148.704 		"/>
		<polygon points="176.749,153.928 140.599,153.928 158.674,185.231 		"/>
		<polygon points="131.556,153.928 95.414,153.928 113.486,185.231 		"/>
		<polygon points="86.376,153.928 50.224,153.928 68.298,185.231 		"/>
		<polygon points="90.898,156.529 72.817,187.838 108.965,187.838 		"/>
		<polygon points="136.071,156.529 118.008,187.838 154.158,187.838 		"/>
		<polygon points="154.158,193.057 118.008,193.057 136.071,224.361 		"/>
		<polygon points="108.965,193.057 72.817,193.057 90.898,224.361 		"/>
		<polygon points="113.486,195.665 95.414,226.973 131.556,226.973 		"/>
	</g>
</g>
<g>
</g>
<g>
</g>
<g>
</g>
<g>
</g>
<g>
</g>
<g>
</g>
<g>
</g>
<g>
</g>
<g>
</g>
<g>
</g>
<g>
</g>
<g>
</g>
<g>
</g>
<g>
</g>
<g>
</g>
</svg>
