<?xml version="1.0" encoding="iso-8859-1"?>
<!-- Generator: Adobe Illustrator 16.0.0, SVG Export Plug-In . SVG Version: 6.00 Build 0)  -->
<!DOCTYPE svg PUBLIC "-//W3C//DTD SVG 1.1//EN" "http://www.w3.org/Graphics/SVG/1.1/DTD/svg11.dtd">
<svg version="1.1" id="Capa_1" xmlns="http://www.w3.org/2000/svg" xmlns:xlink="http://www.w3.org/1999/xlink" x="0px" y="0px"
	 width="38.104px" height="38.104px" viewBox="0 0 38.104 38.104" style="enable-background:new 0 0 38.104 38.104;"
	 xml:space="preserve">
<g>
	<g>
		<polygon points="15.082,9.427 11.907,14.927 18.258,14.927 		"/>
		<polygon points="26.197,14.927 23.021,9.427 19.846,14.927 		"/>
		<polygon points="7.145,23.177 3.969,28.677 10.32,28.677 		"/>
		<polygon points="34.135,28.677 30.96,23.177 27.783,28.677 		"/>
		<polygon points="26.197,15.844 19.846,15.844 23.021,21.344 		"/>
		<polygon points="18.258,15.844 11.907,15.844 15.082,21.344 		"/>
		<polygon points="11.114,16.302 7.939,21.802 14.288,21.802 		"/>
		<polygon points="15.877,21.802 22.227,21.802 19.052,16.302 		"/>
		<polygon points="30.164,21.802 26.99,16.302 23.816,21.802 		"/>
		<polygon points="19.052,2.552 15.877,8.052 22.227,8.052 		"/>
		<polygon points="27.783,29.594 30.96,35.094 34.135,29.594 		"/>
		<polygon points="19.846,29.594 23.021,35.094 26.197,29.594 		"/>
		<polygon points="11.907,29.594 15.082,35.094 18.258,29.594 		"/>
		<polygon points="3.969,29.594 7.145,35.094 10.32,29.594 		"/>
		<polygon points="0,35.552 6.35,35.552 3.175,30.052 		"/>
		<polygon points="7.939,35.552 14.288,35.552 11.114,30.052 		"/>
		<polygon points="15.877,35.552 22.227,35.552 19.052,30.052 		"/>
		<polygon points="23.816,35.552 30.164,35.552 26.99,30.052 		"/>
		<polygon points="34.929,30.052 31.754,35.552 38.104,35.552 		"/>
	</g>
</g>
<g>
</g>
<g>
</g>
<g>
</g>
<g>
</g>
<g>
</g>
<g>
</g>
<g>
</g>
<g>
</g>
<g>
</g>
<g>
</g>
<g>
</g>
<g>
</g>
<g>
</g>
<g>
</g>
<g>
</g>
</svg>
