<?xml version="1.0" encoding="iso-8859-1"?>
<!-- Generator: Adobe Illustrator 16.0.0, SVG Export Plug-In . SVG Version: 6.00 Build 0)  -->
<!DOCTYPE svg PUBLIC "-//W3C//DTD SVG 1.1//EN" "http://www.w3.org/Graphics/SVG/1.1/DTD/svg11.dtd">
<svg version="1.1" id="Capa_1" xmlns="http://www.w3.org/2000/svg" xmlns:xlink="http://www.w3.org/1999/xlink" x="0px" y="0px"
	 width="245.19px" height="245.19px" viewBox="0 0 245.19 245.19" style="enable-background:new 0 0 245.19 245.19;"
	 xml:space="preserve">
<g>
	<g>
		<polygon points="60.452,51.816 33.591,51.816 47.029,75.081 		"/>
		<polygon points="63.818,53.752 50.38,77.026 77.253,77.026 		"/>
		<polygon points="77.253,80.897 50.38,80.897 63.818,104.171 		"/>
		<polygon points="80.608,82.842 67.179,106.107 94.046,106.107 		"/>
		<polygon points="43.663,22.727 16.801,22.727 30.225,45.998 		"/>
		<polygon points="13.435,24.663 0,47.937 26.873,47.937 		"/>
		<polygon points="47.029,24.663 33.591,47.937 60.452,47.937 		"/>
		<polygon points="194.807,109.993 167.937,109.993 181.372,133.258 		"/>
		<polygon points="161.222,109.993 134.352,109.993 147.787,133.258 		"/>
		<polygon points="127.631,109.993 100.77,109.993 114.193,133.258 		"/>
		<polygon points="94.046,109.993 67.179,109.993 80.608,133.258 		"/>
		<polygon points="97.403,111.929 83.968,135.196 110.841,135.196 		"/>
		<polygon points="130.994,111.929 117.559,135.196 144.424,135.196 		"/>
		<polygon points="164.579,111.929 151.144,135.196 178.009,135.196 		"/>
		<polygon points="198.164,111.929 184.735,135.196 211.6,135.196 		"/>
		<polygon points="178.009,139.086 151.144,139.086 164.579,162.351 		"/>
		<polygon points="211.6,139.086 184.735,139.086 198.164,162.351 		"/>
		<polygon points="144.424,139.086 117.559,139.086 130.994,162.351 		"/>
		<polygon points="110.841,139.086 83.968,139.086 97.403,162.351 		"/>
		<polygon points="114.193,141.019 100.77,164.29 127.631,164.29 		"/>
		<polygon points="147.787,141.019 134.352,164.29 161.222,164.29 		"/>
		<polygon points="181.372,141.019 167.937,164.29 194.807,164.29 		"/>
		<polygon points="194.807,168.167 167.937,168.167 181.372,191.438 		"/>
		<polygon points="127.631,168.167 100.77,168.167 114.193,191.438 		"/>
		<polygon points="97.403,170.105 83.968,193.37 110.841,193.37 		"/>
		<polygon points="164.579,170.105 151.144,193.37 178.009,193.37 		"/>
		<polygon points="178.009,197.254 151.144,197.254 164.579,220.524 		"/>
		<polygon points="245.19,139.086 218.319,139.086 231.755,162.351 		"/>
		<polygon points="110.841,197.254 83.968,197.254 97.403,220.524 		"/>
		<polygon points="181.372,199.192 167.937,222.464 194.807,222.464 		"/>
	</g>
</g>
<g>
</g>
<g>
</g>
<g>
</g>
<g>
</g>
<g>
</g>
<g>
</g>
<g>
</g>
<g>
</g>
<g>
</g>
<g>
</g>
<g>
</g>
<g>
</g>
<g>
</g>
<g>
</g>
<g>
</g>
</svg>
