<?xml version="1.0" encoding="iso-8859-1"?>
<!-- Generator: Adobe Illustrator 16.0.0, SVG Export Plug-In . SVG Version: 6.00 Build 0)  -->
<!DOCTYPE svg PUBLIC "-//W3C//DTD SVG 1.1//EN" "http://www.w3.org/Graphics/SVG/1.1/DTD/svg11.dtd">
<svg version="1.1" id="Capa_1" xmlns="http://www.w3.org/2000/svg" xmlns:xlink="http://www.w3.org/1999/xlink" x="0px" y="0px"
	 width="233.546px" height="233.546px" viewBox="0 0 233.546 233.546" style="enable-background:new 0 0 233.546 233.546;"
	 xml:space="preserve">
<g>
	<g>
		<polygon points="213.408,84.225 181.2,84.225 197.312,112.121 		"/>
		<polygon points="173.138,84.225 140.93,84.225 157.037,112.121 		"/>
		<polygon points="132.88,84.225 100.666,84.225 116.778,112.121 		"/>
		<polygon points="92.615,84.225 60.405,84.225 76.512,112.121 		"/>
		<polygon points="52.343,84.225 20.138,84.225 36.242,112.121 		"/>
		<polygon points="16.112,86.548 0,114.447 32.21,114.447 		"/>
		<polygon points="56.379,86.548 40.267,114.447 72.48,114.447 		"/>
		<polygon points="96.646,86.548 80.537,114.447 112.742,114.447 		"/>
		<polygon points="136.911,86.548 120.804,114.447 153.006,114.447 		"/>
		<polygon points="177.169,86.548 161.057,114.447 193.282,114.447 		"/>
		<polygon points="217.445,86.548 201.332,114.447 233.546,114.447 		"/>
		<polygon points="193.282,119.099 161.057,119.099 177.169,146.994 		"/>
		<polygon points="233.546,119.099 201.332,119.099 217.445,146.994 		"/>
		<polygon points="153.006,119.099 120.804,119.099 136.911,146.994 		"/>
		<polygon points="112.742,119.099 80.537,119.099 96.646,146.994 		"/>
		<polygon points="72.48,119.099 40.267,119.099 56.379,146.994 		"/>
		<polygon points="32.21,119.099 0,119.099 16.112,146.994 		"/>
		<polygon points="36.242,121.425 20.138,149.323 52.343,149.323 		"/>
		<polygon points="76.512,121.425 60.405,149.323 92.615,149.323 		"/>
		<polygon points="116.778,121.425 100.666,149.323 132.88,149.323 		"/>
		<polygon points="157.037,121.425 140.93,149.323 173.138,149.323 		"/>
		<polygon points="197.312,121.425 181.2,149.323 213.408,149.323 		"/>
		<polygon points="96.646,16.804 80.537,44.7 112.742,44.7 		"/>
		<polygon points="136.911,16.804 120.804,44.7 153.006,44.7 		"/>
		<polygon points="116.778,51.681 100.666,79.576 132.88,79.576 		"/>
		<polygon points="213.408,153.969 181.2,153.969 197.312,181.868 		"/>
		<polygon points="173.138,153.969 140.93,153.969 157.037,181.868 		"/>
		<polygon points="132.88,153.969 100.666,153.969 116.778,181.868 		"/>
		<polygon points="92.615,153.969 60.405,153.969 76.512,181.868 		"/>
		<polygon points="52.343,153.969 20.138,153.969 36.242,181.868 		"/>
		<polygon points="56.379,156.298 40.267,184.197 72.48,184.197 		"/>
		<polygon points="177.169,156.298 161.057,184.197 193.282,184.197 		"/>
		<polygon points="193.282,188.843 161.057,188.843 177.169,216.742 		"/>
		<polygon points="72.48,188.843 40.267,188.843 56.379,216.742 		"/>
	</g>
</g>
<g>
</g>
<g>
</g>
<g>
</g>
<g>
</g>
<g>
</g>
<g>
</g>
<g>
</g>
<g>
</g>
<g>
</g>
<g>
</g>
<g>
</g>
<g>
</g>
<g>
</g>
<g>
</g>
<g>
</g>
</svg>
