<?xml version="1.0" encoding="iso-8859-1"?>
<!-- Generator: Adobe Illustrator 16.0.0, SVG Export Plug-In . SVG Version: 6.00 Build 0)  -->
<!DOCTYPE svg PUBLIC "-//W3C//DTD SVG 1.1//EN" "http://www.w3.org/Graphics/SVG/1.1/DTD/svg11.dtd">
<svg version="1.1" id="Capa_1" xmlns="http://www.w3.org/2000/svg" xmlns:xlink="http://www.w3.org/1999/xlink" x="0px" y="0px"
	 width="43px" height="43px" viewBox="0 0 43 43" style="enable-background:new 0 0 43 43;" xml:space="preserve">
<g>
	<g>
		<polygon points="15,8.509 21,11.974 21,5.046 		"/>
		<polygon points="22,5.046 22,11.974 28,8.509 		"/>
		<polygon points="14.5,9.376 14.5,16.304 20.5,12.839 		"/>
		<polygon points="7,13.706 7,20.634 13,17.169 		"/>
		<polygon points="7,22.366 7,29.294 13,25.829 		"/>
		<polygon points="7,31.026 7,37.954 13,34.489 		"/>
		<polygon points="7.5,30.159 13.5,33.624 13.5,26.696 		"/>
		<polygon points="7.5,21.499 13.5,24.964 13.5,18.036 		"/>
		<polygon points="7.5,12.839 13.5,16.304 13.5,9.376 		"/>
		<polygon points="14.5,18.036 14.5,24.964 20.5,21.499 		"/>
		<polygon points="14.5,26.696 14.5,33.624 20.5,30.159 		"/>
		<polygon points="15,34.489 21,37.954 21,31.026 		"/>
		<polygon points="15,25.829 21,29.294 21,22.366 		"/>
		<polygon points="15,17.169 21,20.634 21,13.706 		"/>
		<polygon points="0,17.169 6,20.634 6,13.706 		"/>
		<polygon points="22,13.706 22,20.634 28,17.169 		"/>
		<polygon points="22,22.366 22,29.294 28,25.829 		"/>
		<polygon points="22,31.026 22,37.954 28,34.489 		"/>
		<polygon points="22.5,30.159 28.5,33.624 28.5,26.696 		"/>
		<polygon points="22.5,21.499 28.5,24.964 28.5,18.036 		"/>
		<polygon points="22.5,12.839 28.5,16.304 28.5,9.376 		"/>
		<polygon points="29.5,9.376 29.5,16.304 35.5,12.839 		"/>
		<polygon points="29.5,18.036 29.5,24.964 35.5,21.499 		"/>
		<polygon points="29.5,26.696 29.5,33.624 35.5,30.159 		"/>
		<polygon points="30,34.489 36,37.954 36,31.026 		"/>
		<polygon points="30,25.829 36,29.294 36,22.366 		"/>
		<polygon points="30,17.169 36,20.634 36,13.706 		"/>
		<polygon points="37,13.706 37,20.634 43,17.169 		"/>
	</g>
</g>
<g>
</g>
<g>
</g>
<g>
</g>
<g>
</g>
<g>
</g>
<g>
</g>
<g>
</g>
<g>
</g>
<g>
</g>
<g>
</g>
<g>
</g>
<g>
</g>
<g>
</g>
<g>
</g>
<g>
</g>
</svg>
