<?xml version="1.0" encoding="iso-8859-1"?>
<!-- Generator: Adobe Illustrator 16.0.0, SVG Export Plug-In . SVG Version: 6.00 Build 0)  -->
<!DOCTYPE svg PUBLIC "-//W3C//DTD SVG 1.1//EN" "http://www.w3.org/Graphics/SVG/1.1/DTD/svg11.dtd">
<svg version="1.1" id="Capa_1" xmlns="http://www.w3.org/2000/svg" xmlns:xlink="http://www.w3.org/1999/xlink" x="0px" y="0px"
	 width="39.648px" height="39.648px" viewBox="0 0 39.648 39.648" style="enable-background:new 0 0 39.648 39.648;"
	 xml:space="preserve">
<g>
	<g>
		<polygon points="32.024,13.514 27.957,13.514 29.991,17.037 		"/>
		<polygon points="11.691,13.514 7.624,13.514 9.657,17.037 		"/>
		<polygon points="2.541,13.514 4.574,17.037 6.608,13.514 		"/>
		<polygon points="9.149,17.33 7.116,13.808 5.083,17.33 		"/>
		<polygon points="14.233,17.33 12.199,13.808 10.166,17.33 		"/>
		<polygon points="27.449,13.808 25.415,17.33 29.482,17.33 		"/>
		<polygon points="34.565,17.33 32.532,13.808 30.499,17.33 		"/>
		<polygon points="29.482,17.917 25.415,17.917 27.449,21.438 		"/>
		<polygon points="34.565,17.917 30.499,17.917 32.532,21.438 		"/>
		<polygon points="24.399,17.917 20.332,17.917 22.366,21.438 		"/>
		<polygon points="19.316,17.917 15.249,17.917 17.282,21.438 		"/>
		<polygon points="14.233,17.917 10.166,17.917 12.199,21.438 		"/>
		<polygon points="9.149,17.917 5.083,17.917 7.116,21.438 		"/>
		<polygon points="0,17.917 2.033,21.438 4.066,17.917 		"/>
		<polygon points="6.608,21.732 4.574,18.21 2.541,21.732 		"/>
		<polygon points="9.657,18.21 7.624,21.732 11.691,21.732 		"/>
		<polygon points="16.774,21.732 14.741,18.21 12.707,21.732 		"/>
		<polygon points="19.824,18.21 17.791,21.732 21.857,21.732 		"/>
		<polygon points="26.941,21.732 24.907,18.21 22.874,21.732 		"/>
		<polygon points="27.957,21.732 32.024,21.732 29.991,18.21 		"/>
		<polygon points="37.107,13.514 33.04,13.514 35.074,17.037 		"/>
		<polygon points="33.04,21.732 37.107,21.732 35.074,18.21 		"/>
		<polygon points="4.066,9.112 0,9.112 2.033,12.634 		"/>
		<polygon points="6.608,12.928 4.574,9.406 2.541,12.928 		"/>
		<polygon points="17.791,13.514 19.824,17.037 21.857,13.514 		"/>
		<polygon points="17.282,5.004 15.249,8.525 19.316,8.525 		"/>
		<polygon points="22.366,5.004 20.332,8.525 24.399,8.525 		"/>
		<polygon points="24.399,9.112 20.332,9.112 22.366,12.634 		"/>
		<polygon points="19.316,9.112 15.249,9.112 17.282,12.634 		"/>
		<polygon points="21.857,12.928 19.824,9.406 17.791,12.928 		"/>
		<polygon points="35.074,9.406 33.04,12.928 37.107,12.928 		"/>
		<polygon points="27.957,22.318 29.991,25.841 32.024,22.318 		"/>
		<polygon points="22.874,22.318 24.907,25.841 26.941,22.318 		"/>
		<polygon points="21.857,22.318 17.791,22.318 19.824,25.841 		"/>
		<polygon points="12.707,22.318 14.741,25.841 16.774,22.318 		"/>
		<polygon points="7.624,22.318 9.657,25.841 11.691,22.318 		"/>
		<polygon points="2.541,22.318 4.574,25.841 6.608,22.318 		"/>
		<polygon points="5.083,26.135 9.149,26.135 7.116,22.611 		"/>
		<polygon points="10.166,26.135 14.233,26.135 12.199,22.611 		"/>
		<polygon points="15.249,26.135 19.316,26.135 17.282,22.611 		"/>
		<polygon points="20.332,26.135 24.399,26.135 22.366,22.611 		"/>
		<polygon points="25.415,26.135 29.482,26.135 27.449,22.611 		"/>
		<polygon points="30.499,26.135 34.565,26.135 32.532,22.611 		"/>
		<polygon points="22.366,30.242 24.399,26.721 20.332,26.721 		"/>
		<polygon points="15.249,26.721 17.282,30.242 19.316,26.721 		"/>
		<polygon points="17.791,30.537 21.857,30.537 19.824,27.015 		"/>
		<polygon points="35.074,25.841 37.107,22.318 33.04,22.318 		"/>
		<polygon points="19.824,34.645 21.857,31.123 17.791,31.123 		"/>
		<polygon points="37.615,21.438 39.648,17.917 35.582,17.917 		"/>
		<polygon points="39.648,9.112 35.582,9.112 37.615,12.634 		"/>
	</g>
</g>
<g>
</g>
<g>
</g>
<g>
</g>
<g>
</g>
<g>
</g>
<g>
</g>
<g>
</g>
<g>
</g>
<g>
</g>
<g>
</g>
<g>
</g>
<g>
</g>
<g>
</g>
<g>
</g>
<g>
</g>
</svg>
