<?xml version="1.0" encoding="iso-8859-1"?>
<!-- Generator: Adobe Illustrator 16.0.0, SVG Export Plug-In . SVG Version: 6.00 Build 0)  -->
<!DOCTYPE svg PUBLIC "-//W3C//DTD SVG 1.1//EN" "http://www.w3.org/Graphics/SVG/1.1/DTD/svg11.dtd">
<svg version="1.1" id="Capa_1" xmlns="http://www.w3.org/2000/svg" xmlns:xlink="http://www.w3.org/1999/xlink" x="0px" y="0px"
	 width="251.598px" height="251.598px" viewBox="0 0 251.598 251.598" style="enable-background:new 0 0 251.598 251.598;"
	 xml:space="preserve">
<g>
	<g>
		<polygon points="68.142,60.733 26.208,60.733 47.174,97.049 		"/>
		<polygon points="20.968,63.76 0,100.076 41.934,100.076 		"/>
		<polygon points="178.216,63.76 157.25,100.076 199.181,100.076 		"/>
		<polygon points="230.626,63.76 209.667,100.076 251.598,100.076 		"/>
		<polygon points="230.626,142.444 251.598,106.128 209.667,106.128 		"/>
		<polygon points="199.181,106.128 157.25,106.128 178.216,142.444 		"/>
		<polygon points="146.765,106.128 104.833,106.128 125.799,142.444 		"/>
		<polygon points="73.382,142.444 94.351,106.128 52.417,106.128 		"/>
		<polygon points="0,106.128 20.968,142.444 41.934,106.128 		"/>
		<polygon points="26.208,145.47 68.142,145.47 47.174,109.155 		"/>
		<polygon points="120.556,145.47 99.59,109.155 78.625,145.47 		"/>
		<polygon points="172.973,145.47 152.007,109.155 131.042,145.47 		"/>
		<polygon points="183.458,145.47 225.39,145.47 204.424,109.155 		"/>
		<polygon points="47.174,18.365 26.208,54.681 68.142,54.681 		"/>
		<polygon points="131.042,151.523 152.007,187.838 172.973,151.523 		"/>
		<polygon points="78.625,151.523 99.59,187.838 120.556,151.523 		"/>
		<polygon points="26.208,151.523 47.174,187.838 68.142,151.523 		"/>
		<polygon points="52.417,190.865 94.351,190.865 73.382,154.549 		"/>
		<polygon points="104.833,190.865 146.765,190.865 125.799,154.549 		"/>
		<polygon points="157.25,190.865 199.181,190.865 178.216,154.549 		"/>
		<polygon points="178.216,233.233 199.181,196.917 157.25,196.917 		"/>
		<polygon points="73.382,233.233 94.351,196.917 52.417,196.917 		"/>
	</g>
</g>
<g>
</g>
<g>
</g>
<g>
</g>
<g>
</g>
<g>
</g>
<g>
</g>
<g>
</g>
<g>
</g>
<g>
</g>
<g>
</g>
<g>
</g>
<g>
</g>
<g>
</g>
<g>
</g>
<g>
</g>
</svg>
