<?xml version="1.0" encoding="iso-8859-1"?>
<!-- Generator: Adobe Illustrator 16.0.0, SVG Export Plug-In . SVG Version: 6.00 Build 0)  -->
<!DOCTYPE svg PUBLIC "-//W3C//DTD SVG 1.1//EN" "http://www.w3.org/Graphics/SVG/1.1/DTD/svg11.dtd">
<svg version="1.1" id="Capa_1" xmlns="http://www.w3.org/2000/svg" xmlns:xlink="http://www.w3.org/1999/xlink" x="0px" y="0px"
	 width="172.973px" height="172.973px" viewBox="0 0 172.973 172.973" style="enable-background:new 0 0 172.973 172.973;"
	 xml:space="preserve">
<g>
	<g>
		<polygon points="152.014,24.447 131.042,60.763 172.973,60.763 		"/>
		<polygon points="152.014,103.131 172.973,66.815 131.042,66.815 		"/>
		<polygon points="26.208,66.815 47.18,103.131 68.143,66.815 		"/>
		<polygon points="0,106.157 41.934,106.157 20.972,69.842 		"/>
		<polygon points="146.765,106.157 125.805,69.842 104.834,106.157 		"/>
		<polygon points="20.972,148.525 41.934,112.21 0,112.21 		"/>
		<polygon points="60.763,0 24.447,20.96 60.763,41.934 		"/>
		<polygon points="66.815,0 66.815,41.934 103.131,20.96 		"/>
		<polygon points="66.815,104.833 66.815,146.765 103.131,125.793 		"/>
		<polygon points="106.157,172.973 106.157,131.042 69.842,152.001 		"/>
		<polygon points="106.157,68.14 106.157,26.208 69.842,47.168 		"/>
		<polygon points="112.21,172.973 148.525,152.001 112.21,131.042 		"/>
	</g>
</g>
<g>
</g>
<g>
</g>
<g>
</g>
<g>
</g>
<g>
</g>
<g>
</g>
<g>
</g>
<g>
</g>
<g>
</g>
<g>
</g>
<g>
</g>
<g>
</g>
<g>
</g>
<g>
</g>
<g>
</g>
</svg>
