<?xml version="1.0" encoding="iso-8859-1"?>
<!-- Generator: Adobe Illustrator 16.0.0, SVG Export Plug-In . SVG Version: 6.00 Build 0)  -->
<!DOCTYPE svg PUBLIC "-//W3C//DTD SVG 1.1//EN" "http://www.w3.org/Graphics/SVG/1.1/DTD/svg11.dtd">
<svg version="1.1" id="Capa_1" xmlns="http://www.w3.org/2000/svg" xmlns:xlink="http://www.w3.org/1999/xlink" x="0px" y="0px"
	 width="236.779px" height="236.78px" viewBox="0 0 236.779 236.78" style="enable-background:new 0 0 236.779 236.78;"
	 xml:space="preserve">
<g>
	<g>
		<g>
			<polygon points="134.718,50.041 102.058,50.041 118.39,78.324 			"/>
			<polygon points="97.979,52.402 81.651,80.679 114.305,80.679 			"/>
			<polygon points="138.796,52.402 122.471,80.679 155.128,80.679 			"/>
			<polygon points="155.128,85.393 122.471,85.393 138.796,113.679 			"/>
			<polygon points="114.305,85.393 81.651,85.393 97.979,113.679 			"/>
			<polygon points="77.57,87.754 61.241,116.034 93.895,116.034 			"/>
			<polygon points="159.212,87.754 142.887,116.034 175.538,116.034 			"/>
			<polygon points="118.39,17.041 102.058,45.324 134.718,45.324 			"/>
			<polygon points="175.538,120.75 142.887,120.75 159.212,149.028 			"/>
			<polygon points="93.895,120.75 61.241,120.75 77.57,149.028 			"/>
			<polygon points="97.979,123.104 81.651,151.393 114.305,151.393 			"/>
			<polygon points="138.796,123.104 122.471,151.393 155.128,151.393 			"/>
			<polygon points="155.128,156.097 122.471,156.097 138.796,184.386 			"/>
			<polygon points="114.305,156.097 81.651,156.097 97.979,184.386 			"/>
			<polygon points="118.39,158.461 102.058,186.739 134.718,186.739 			"/>
			<polygon points="134.718,191.456 102.058,191.456 118.39,219.739 			"/>
		</g>
		<g>
			<polygon points="36.747,87.754 20.416,116.034 53.075,116.034 			"/>
			<polygon points="200.032,87.754 183.706,116.034 216.363,116.034 			"/>
			<polygon points="216.363,120.75 183.706,120.75 200.032,149.028 			"/>
			<polygon points="53.075,120.75 20.416,120.75 36.747,149.028 			"/>
			<polygon points="16.337,123.104 0,151.393 32.666,151.393 			"/>
			<polygon points="57.154,123.104 40.831,151.393 73.485,151.393 			"/>
			<polygon points="179.628,123.104 163.29,151.393 195.947,151.393 			"/>
			<polygon points="220.441,123.104 204.11,151.393 236.779,151.393 			"/>
			<polygon points="195.947,156.097 163.29,156.097 179.628,184.386 			"/>
			<polygon points="236.779,156.097 204.11,156.097 220.441,184.386 			"/>
			<polygon points="73.485,156.097 40.831,156.097 57.154,184.386 			"/>
			<polygon points="32.666,156.097 0,156.097 16.337,184.386 			"/>
			<polygon points="36.747,158.461 20.416,186.739 53.075,186.739 			"/>
			<polygon points="200.032,158.461 183.706,186.739 216.363,186.739 			"/>
			<polygon points="216.363,191.456 183.706,191.456 200.032,219.739 			"/>
			<polygon points="53.075,191.456 20.416,191.456 36.747,219.739 			"/>
		</g>
	</g>
</g>
<g>
</g>
<g>
</g>
<g>
</g>
<g>
</g>
<g>
</g>
<g>
</g>
<g>
</g>
<g>
</g>
<g>
</g>
<g>
</g>
<g>
</g>
<g>
</g>
<g>
</g>
<g>
</g>
<g>
</g>
</svg>
