<?xml version="1.0" encoding="iso-8859-1"?>
<!-- Generator: Adobe Illustrator 16.0.0, SVG Export Plug-In . SVG Version: 6.00 Build 0)  -->
<!DOCTYPE svg PUBLIC "-//W3C//DTD SVG 1.1//EN" "http://www.w3.org/Graphics/SVG/1.1/DTD/svg11.dtd">
<svg version="1.1" id="Capa_1" xmlns="http://www.w3.org/2000/svg" xmlns:xlink="http://www.w3.org/1999/xlink" x="0px" y="0px"
	 width="38.794px" height="38.794px" viewBox="0 0 38.794 38.794" style="enable-background:new 0 0 38.794 38.794;"
	 xml:space="preserve">
<g>
	<g>
		<polygon points="9.615,9.921 9.615,14.516 13.594,12.219 		"/>
		<polygon points="9.615,15.665 9.615,20.259 13.594,17.961 		"/>
		<polygon points="9.615,21.407 9.615,26.002 13.594,23.705 		"/>
		<polygon points="13.926,28.873 13.926,24.278 9.947,26.577 		"/>
		<polygon points="13.926,23.13 13.926,18.536 9.947,20.834 		"/>
		<polygon points="13.926,17.387 13.926,12.793 9.947,15.09 		"/>
		<polygon points="14.588,12.793 14.588,17.387 18.568,15.09 		"/>
		<polygon points="18.899,20.259 18.899,15.665 14.92,17.961 		"/>
		<polygon points="18.899,14.516 18.899,9.921 14.92,12.219 		"/>
		<polygon points="3.979,17.387 3.979,12.793 0,15.09 		"/>
		<polygon points="4.642,12.793 4.642,17.387 8.621,15.09 		"/>
		<polygon points="8.952,20.259 8.952,15.665 4.974,17.961 		"/>
		<polygon points="8.952,14.516 8.952,9.921 4.974,12.219 		"/>
		<polygon points="19.563,9.921 19.563,14.516 23.542,12.219 		"/>
		<polygon points="19.563,20.259 23.542,17.961 19.563,15.665 		"/>
		<polygon points="23.873,17.387 23.873,12.793 19.895,15.09 		"/>
		<polygon points="24.537,17.387 28.516,15.09 24.537,12.793 		"/>
		<polygon points="33.82,17.387 33.82,12.793 29.842,15.09 		"/>
		<polygon points="34.484,12.793 34.484,17.387 38.462,15.09 		"/>
		<polygon points="38.794,20.259 38.794,15.665 34.814,17.961 		"/>
		<polygon points="34.814,12.219 38.794,14.516 38.794,9.921 		"/>
	</g>
</g>
<g>
</g>
<g>
</g>
<g>
</g>
<g>
</g>
<g>
</g>
<g>
</g>
<g>
</g>
<g>
</g>
<g>
</g>
<g>
</g>
<g>
</g>
<g>
</g>
<g>
</g>
<g>
</g>
<g>
</g>
</svg>
