<?xml version="1.0" encoding="iso-8859-1"?>
<!-- Generator: Adobe Illustrator 16.0.0, SVG Export Plug-In . SVG Version: 6.00 Build 0)  -->
<!DOCTYPE svg PUBLIC "-//W3C//DTD SVG 1.1//EN" "http://www.w3.org/Graphics/SVG/1.1/DTD/svg11.dtd">
<svg version="1.1" id="Capa_1" xmlns="http://www.w3.org/2000/svg" xmlns:xlink="http://www.w3.org/1999/xlink" x="0px" y="0px"
	 width="221.547px" height="221.548px" viewBox="0 0 221.547 221.548" style="enable-background:new 0 0 221.547 221.548;"
	 xml:space="preserve">
<g>
	<g>
		<polygon points="140.097,70.33 114.037,70.33 127.07,92.9 		"/>
		<polygon points="107.517,70.33 81.454,70.33 94.493,92.9 		"/>
		<polygon points="110.78,72.212 97.744,94.783 123.807,94.783 		"/>
		<polygon points="156.393,98.542 130.321,98.542 143.36,121.118 		"/>
		<polygon points="123.807,98.542 97.744,98.542 110.78,121.118 		"/>
		<polygon points="91.23,98.542 65.161,98.542 78.2,121.118 		"/>
		<polygon points="61.904,100.431 48.874,123.01 74.937,123.01 		"/>
		<polygon points="94.493,100.431 81.454,123.01 107.517,123.01 		"/>
		<polygon points="127.07,100.431 114.037,123.01 140.097,123.01 		"/>
		<polygon points="159.656,100.431 146.617,123.01 172.677,123.01 		"/>
		<polygon points="205.257,13.896 179.203,13.896 192.236,36.473 		"/>
		<polygon points="140.097,13.896 114.037,13.896 127.07,36.473 		"/>
		<polygon points="107.517,13.896 81.454,13.896 94.493,36.473 		"/>
		<polygon points="42.354,13.896 16.293,13.896 29.323,36.473 		"/>
		<polygon points="188.967,42.109 162.913,42.109 175.94,64.688 		"/>
		<polygon points="123.807,42.109 97.744,42.109 110.78,64.688 		"/>
		<polygon points="58.644,42.109 32.586,42.109 45.623,64.688 		"/>
		<polygon points="61.904,43.994 48.874,66.564 74.937,66.564 		"/>
		<polygon points="94.493,43.994 81.454,66.564 107.517,66.564 		"/>
		<polygon points="127.07,43.994 114.037,66.564 140.097,66.564 		"/>
		<polygon points="159.656,43.994 146.617,66.564 172.677,66.564 		"/>
		<polygon points="140.097,126.769 114.037,126.769 127.07,149.336 		"/>
		<polygon points="107.517,126.769 81.454,126.769 94.493,149.336 		"/>
		<polygon points="42.354,126.769 16.293,126.769 29.323,149.336 		"/>
		<polygon points="78.2,128.648 65.161,151.216 91.23,151.216 		"/>
		<polygon points="110.78,128.648 97.744,151.216 123.807,151.216 		"/>
		<polygon points="143.36,128.648 130.321,151.216 156.393,151.216 		"/>
		<polygon points="156.393,154.987 130.321,154.987 143.36,177.554 		"/>
		<polygon points="188.967,154.987 162.913,154.987 175.94,177.554 		"/>
		<polygon points="123.807,154.987 97.744,154.987 110.78,177.554 		"/>
		<polygon points="91.23,154.987 65.161,154.987 78.2,177.554 		"/>
		<polygon points="58.644,154.987 32.586,154.987 45.623,177.554 		"/>
		<polygon points="29.323,156.86 16.293,179.439 42.354,179.439 		"/>
		<polygon points="94.493,156.86 81.454,179.439 107.517,179.439 		"/>
		<polygon points="127.07,156.86 114.037,179.439 140.097,179.439 		"/>
		<polygon points="205.257,126.769 179.203,126.769 192.236,149.336 		"/>
		<polygon points="192.236,156.86 179.203,179.439 205.257,179.439 		"/>
		<polygon points="13.036,185.072 0,207.651 26.061,207.651 		"/>
		<polygon points="208.52,185.072 195.493,207.651 221.547,207.651 		"/>
	</g>
</g>
<g>
</g>
<g>
</g>
<g>
</g>
<g>
</g>
<g>
</g>
<g>
</g>
<g>
</g>
<g>
</g>
<g>
</g>
<g>
</g>
<g>
</g>
<g>
</g>
<g>
</g>
<g>
</g>
<g>
</g>
</svg>
