<?xml version="1.0" encoding="iso-8859-1"?>
<!-- Generator: Adobe Illustrator 16.0.0, SVG Export Plug-In . SVG Version: 6.00 Build 0)  -->
<!DOCTYPE svg PUBLIC "-//W3C//DTD SVG 1.1//EN" "http://www.w3.org/Graphics/SVG/1.1/DTD/svg11.dtd">
<svg version="1.1" id="Capa_1" xmlns="http://www.w3.org/2000/svg" xmlns:xlink="http://www.w3.org/1999/xlink" x="0px" y="0px"
	 width="37.892px" height="37.891px" viewBox="0 0 37.892 37.891" style="enable-background:new 0 0 37.892 37.891;"
	 xml:space="preserve">
<g>
	<g>
		<polygon points="21.559,13.477 16.333,13.477 18.946,18.003 		"/>
		<polygon points="15.679,13.854 13.067,18.379 18.293,18.379 		"/>
		<polygon points="24.824,18.379 22.213,13.854 19.599,18.379 		"/>
		<polygon points="31.359,19.133 26.133,19.133 28.746,23.661 		"/>
		<polygon points="32.666,19.133 35.279,23.661 37.892,19.133 		"/>
		<polygon points="24.824,19.133 19.599,19.133 22.213,23.661 		"/>
		<polygon points="18.293,19.133 13.067,19.133 15.679,23.661 		"/>
		<polygon points="11.759,19.133 6.533,19.133 9.146,23.661 		"/>
		<polygon points="0,19.133 2.613,23.661 5.226,19.133 		"/>
		<polygon points="8.493,24.038 5.88,19.512 3.267,24.038 		"/>
		<polygon points="15.026,24.038 12.413,19.512 9.8,24.038 		"/>
		<polygon points="16.333,24.038 21.559,24.038 18.946,19.512 		"/>
		<polygon points="28.092,24.038 25.479,19.512 22.865,24.038 		"/>
		<polygon points="29.398,24.038 34.625,24.038 32.012,19.512 		"/>
		<polygon points="18.946,8.196 16.333,12.722 21.559,12.722 		"/>
		<polygon points="32.012,29.319 34.625,24.793 29.398,24.793 		"/>
		<polygon points="22.865,24.793 25.479,29.319 28.092,24.793 		"/>
		<polygon points="16.333,24.793 18.946,29.319 21.559,24.793 		"/>
		<polygon points="9.8,24.793 12.413,29.319 15.026,24.793 		"/>
		<polygon points="3.267,24.793 5.88,29.319 8.493,24.793 		"/>
		<polygon points="6.533,29.696 11.759,29.696 9.146,25.17 		"/>
		<polygon points="13.067,29.696 18.293,29.696 15.679,25.17 		"/>
		<polygon points="19.599,29.696 24.824,29.696 22.213,25.17 		"/>
		<polygon points="26.133,29.696 31.359,29.696 28.746,25.17 		"/>
	</g>
</g>
<g>
</g>
<g>
</g>
<g>
</g>
<g>
</g>
<g>
</g>
<g>
</g>
<g>
</g>
<g>
</g>
<g>
</g>
<g>
</g>
<g>
</g>
<g>
</g>
<g>
</g>
<g>
</g>
<g>
</g>
</svg>
