<?xml version="1.0" encoding="iso-8859-1"?>
<!-- Generator: Adobe Illustrator 16.0.0, SVG Export Plug-In . SVG Version: 6.00 Build 0)  -->
<!DOCTYPE svg PUBLIC "-//W3C//DTD SVG 1.1//EN" "http://www.w3.org/Graphics/SVG/1.1/DTD/svg11.dtd">
<svg version="1.1" id="Capa_1" xmlns="http://www.w3.org/2000/svg" xmlns:xlink="http://www.w3.org/1999/xlink" x="0px" y="0px"
	 width="251.598px" height="251.597px" viewBox="0 0 251.598 251.597" style="enable-background:new 0 0 251.598 251.597;"
	 xml:space="preserve">
<g>
	<g>
		<polygon points="199.181,38.036 157.25,38.036 178.216,74.351 		"/>
		<polygon points="94.351,38.036 52.417,38.036 73.382,74.351 		"/>
		<polygon points="47.174,41.062 26.208,77.377 68.142,77.377 		"/>
		<polygon points="120.556,77.377 99.59,41.062 78.625,77.377 		"/>
		<polygon points="152.007,41.062 131.042,77.377 172.973,77.377 		"/>
		<polygon points="225.39,77.377 204.424,41.062 183.458,77.377 		"/>
		<polygon points="183.458,83.43 204.424,119.746 225.39,83.43 		"/>
		<polygon points="172.973,83.43 131.042,83.43 152.007,119.746 		"/>
		<polygon points="120.556,83.43 78.625,83.43 99.59,119.746 		"/>
		<polygon points="26.208,83.43 47.174,119.746 68.142,83.43 		"/>
		<polygon points="0,122.772 41.934,122.772 20.968,86.457 		"/>
		<polygon points="146.765,122.772 125.799,86.457 104.833,122.772 		"/>
		<polygon points="251.598,122.772 230.626,86.457 209.667,122.772 		"/>
		<polygon points="230.626,165.141 251.598,128.825 209.667,128.825 		"/>
		<polygon points="146.765,128.825 104.833,128.825 125.799,165.141 		"/>
		<polygon points="20.968,165.141 41.934,128.825 0,128.825 		"/>
		<polygon points="120.556,168.167 99.59,131.851 78.625,168.167 		"/>
		<polygon points="152.007,131.851 131.042,168.167 172.973,168.167 		"/>
		<polygon points="131.042,174.22 152.007,210.536 172.973,174.22 		"/>
		<polygon points="78.625,174.22 99.59,210.536 120.556,174.22 		"/>
		<polygon points="52.417,213.562 94.351,213.562 73.382,177.246 		"/>
		<polygon points="104.833,213.562 146.765,213.562 125.799,177.246 		"/>
		<polygon points="157.25,213.562 199.181,213.562 178.216,177.246 		"/>
	</g>
</g>
<g>
</g>
<g>
</g>
<g>
</g>
<g>
</g>
<g>
</g>
<g>
</g>
<g>
</g>
<g>
</g>
<g>
</g>
<g>
</g>
<g>
</g>
<g>
</g>
<g>
</g>
<g>
</g>
<g>
</g>
</svg>
