<?xml version="1.0" encoding="iso-8859-1"?>
<!-- Generator: Adobe Illustrator 16.0.0, SVG Export Plug-In . SVG Version: 6.00 Build 0)  -->
<!DOCTYPE svg PUBLIC "-//W3C//DTD SVG 1.1//EN" "http://www.w3.org/Graphics/SVG/1.1/DTD/svg11.dtd">
<svg version="1.1" id="Capa_1" xmlns="http://www.w3.org/2000/svg" xmlns:xlink="http://www.w3.org/1999/xlink" x="0px" y="0px"
	 width="37.052px" height="37.052px" viewBox="0 0 37.052 37.052" style="enable-background:new 0 0 37.052 37.052;"
	 xml:space="preserve">
<g>
	<g>
		<polygon points="31.303,12.256 33.859,7.83 28.748,7.83 		"/>
		<polygon points="27.47,7.83 22.359,7.83 24.915,12.256 		"/>
		<polygon points="21.081,7.83 15.971,7.83 18.526,12.256 		"/>
		<polygon points="14.693,7.83 9.582,7.83 12.137,12.256 		"/>
		<polygon points="5.749,12.256 8.304,7.83 3.193,7.83 		"/>
		<polygon points="6.388,12.625 11.498,12.625 8.943,8.199 		"/>
		<polygon points="17.887,12.625 15.332,8.199 12.776,12.625 		"/>
		<polygon points="24.275,12.625 21.72,8.199 19.165,12.625 		"/>
		<polygon points="28.109,8.199 25.554,12.625 30.664,12.625 		"/>
		<polygon points="8.304,18.157 5.749,13.731 3.193,18.157 		"/>
		<polygon points="18.526,13.731 15.971,18.157 21.081,18.157 		"/>
		<polygon points="28.748,18.157 33.859,18.157 31.303,13.731 		"/>
		<polygon points="30.664,2.297 25.554,2.297 28.109,6.723 		"/>
		<polygon points="31.941,2.297 34.497,6.723 37.052,2.297 		"/>
		<polygon points="11.498,2.297 6.388,2.297 8.943,6.723 		"/>
		<polygon points="0,2.297 2.555,6.723 5.11,2.297 		"/>
		<polygon points="8.304,7.092 5.749,2.666 3.193,7.092 		"/>
		<polygon points="14.693,7.092 12.137,2.666 9.582,7.092 		"/>
		<polygon points="18.526,2.666 15.971,7.092 21.081,7.092 		"/>
		<polygon points="24.915,2.666 22.359,7.092 27.47,7.092 		"/>
		<polygon points="28.748,7.092 33.859,7.092 31.303,2.666 		"/>
		<polygon points="31.303,23.32 33.859,18.895 28.748,18.895 		"/>
		<polygon points="27.47,18.895 22.359,18.895 24.915,23.32 		"/>
		<polygon points="21.081,18.895 15.971,18.895 18.526,23.32 		"/>
		<polygon points="12.137,23.32 14.693,18.895 9.582,18.895 		"/>
		<polygon points="5.749,23.32 8.304,18.895 3.193,18.895 		"/>
		<polygon points="8.943,19.264 6.388,23.689 11.498,23.689 		"/>
		<polygon points="15.332,19.264 12.776,23.689 17.887,23.689 		"/>
		<polygon points="21.72,19.264 19.165,23.689 24.275,23.689 		"/>
		<polygon points="28.109,19.264 25.554,23.689 30.664,23.689 		"/>
		<polygon points="25.554,24.428 28.109,28.854 30.664,24.428 		"/>
		<polygon points="6.388,24.428 8.943,28.854 11.498,24.428 		"/>
		<polygon points="3.193,29.223 8.304,29.223 5.749,24.797 		"/>
		<polygon points="14.693,29.223 12.137,24.797 9.582,29.223 		"/>
		<polygon points="22.359,29.223 27.47,29.223 24.915,24.797 		"/>
		<polygon points="28.748,29.223 33.859,29.223 31.303,24.797 		"/>
		<polygon points="24.915,34.386 27.47,29.961 22.359,29.961 		"/>
		<polygon points="15.971,29.961 18.526,34.386 21.081,29.961 		"/>
		<polygon points="9.582,29.961 12.137,34.386 14.693,29.961 		"/>
		<polygon points="12.776,34.755 17.887,34.755 15.332,30.328 		"/>
		<polygon points="19.165,34.755 24.275,34.755 21.72,30.328 		"/>
	</g>
</g>
<g>
</g>
<g>
</g>
<g>
</g>
<g>
</g>
<g>
</g>
<g>
</g>
<g>
</g>
<g>
</g>
<g>
</g>
<g>
</g>
<g>
</g>
<g>
</g>
<g>
</g>
<g>
</g>
<g>
</g>
</svg>
