<?xml version="1.0" encoding="iso-8859-1"?>
<!-- Generator: Adobe Illustrator 16.0.0, SVG Export Plug-In . SVG Version: 6.00 Build 0)  -->
<!DOCTYPE svg PUBLIC "-//W3C//DTD SVG 1.1//EN" "http://www.w3.org/Graphics/SVG/1.1/DTD/svg11.dtd">
<svg version="1.1" id="Capa_1" xmlns="http://www.w3.org/2000/svg" xmlns:xlink="http://www.w3.org/1999/xlink" x="0px" y="0px"
	 width="36px" height="36px" viewBox="0 0 36 36" style="enable-background:new 0 0 36 36;" xml:space="preserve">
<g>
	<g>
		<polygon points="14.829,9.152 10.603,9.152 12.716,12.813 		"/>
		<polygon points="13.244,13.119 17.472,13.119 15.358,9.458 		"/>
		<polygon points="17.472,13.729 13.244,13.729 15.358,17.39 		"/>
		<polygon points="20.112,17.695 18,14.034 15.887,17.695 		"/>
		<polygon points="20.112,18.305 15.887,18.305 18,21.966 		"/>
		<polygon points="20.642,18.609 18.528,22.271 22.756,22.271 		"/>
		<polygon points="20.642,26.542 22.756,22.881 18.528,22.881 		"/>
		<polygon points="23.284,23.188 21.171,26.848 25.397,26.848 		"/>
		<polygon points="15.358,8.237 17.472,4.576 13.244,4.576 		"/>
		<polygon points="10.603,8.542 14.829,8.542 12.716,4.881 		"/>
		<polygon points="25.397,27.458 21.171,27.458 23.284,31.119 		"/>
		<polygon points="20.642,27.764 18.528,31.424 22.756,31.424 		"/>
		<polygon points="25.397,0 21.171,0 23.284,3.661 		"/>
		<polygon points="20.112,0 15.887,0 18,3.661 		"/>
		<polygon points="14.829,0 10.603,0 12.716,3.661 		"/>
		<polygon points="10.074,0.305 7.96,3.966 12.188,3.966 		"/>
		<polygon points="17.472,3.966 15.358,0.305 13.244,3.966 		"/>
		<polygon points="22.756,3.966 20.642,0.305 18.528,3.966 		"/>
		<polygon points="28.04,3.966 25.926,0.305 23.813,3.966 		"/>
		<polygon points="26.455,9.152 28.567,12.813 30.683,9.152 		"/>
		<polygon points="9.545,9.152 5.318,9.152 7.432,12.813 		"/>
		<polygon points="4.79,9.458 2.676,13.119 6.903,13.119 		"/>
		<polygon points="33.324,13.119 31.21,9.458 29.097,13.119 		"/>
		<polygon points="31.21,17.39 33.324,13.729 29.097,13.729 		"/>
		<polygon points="6.903,13.729 2.676,13.729 4.79,17.39 		"/>
		<polygon points="2.147,14.034 0.034,17.695 4.261,17.695 		"/>
		<polygon points="35.966,17.695 33.853,14.034 31.739,17.695 		"/>
		<polygon points="28.04,4.576 23.813,4.576 25.926,8.237 		"/>
		<polygon points="12.188,4.576 7.96,4.576 10.074,8.237 		"/>
		<polygon points="7.432,4.881 5.318,8.542 9.545,8.542 		"/>
		<polygon points="30.683,8.542 28.567,4.881 26.455,8.542 		"/>
		<polygon points="0.034,18.305 2.147,21.966 4.261,18.305 		"/>
		<polygon points="2.676,22.271 6.903,22.271 4.79,18.609 		"/>
		<polygon points="29.097,22.271 33.324,22.271 31.21,18.609 		"/>
		<polygon points="31.21,26.542 33.324,22.881 29.097,22.881 		"/>
		<polygon points="2.676,22.881 4.79,26.542 6.903,22.881 		"/>
		<polygon points="5.318,26.848 9.545,26.848 7.432,23.188 		"/>
		<polygon points="26.455,26.848 30.683,26.848 28.567,23.188 		"/>
		<polygon points="33.853,21.966 35.966,18.305 31.739,18.305 		"/>
		<polygon points="28.567,31.119 30.683,27.458 26.455,27.458 		"/>
		<polygon points="5.318,27.458 7.432,31.119 9.545,27.458 		"/>
		<polygon points="7.96,31.424 12.188,31.424 10.074,27.764 		"/>
		<polygon points="23.813,31.424 28.04,31.424 25.926,27.764 		"/>
		<polygon points="25.926,35.695 28.04,32.034 23.813,32.034 		"/>
		<polygon points="18.528,32.034 20.642,35.695 22.756,32.034 		"/>
		<polygon points="13.244,32.034 15.358,35.695 17.472,32.034 		"/>
		<polygon points="7.96,32.034 10.074,35.695 12.188,32.034 		"/>
		<polygon points="10.603,36 14.829,36 12.716,32.339 		"/>
		<polygon points="15.887,36 20.112,36 18,32.339 		"/>
		<polygon points="21.171,36 25.397,36 23.284,32.339 		"/>
	</g>
</g>
<g>
</g>
<g>
</g>
<g>
</g>
<g>
</g>
<g>
</g>
<g>
</g>
<g>
</g>
<g>
</g>
<g>
</g>
<g>
</g>
<g>
</g>
<g>
</g>
<g>
</g>
<g>
</g>
<g>
</g>
</svg>
