<?xml version="1.0" encoding="iso-8859-1"?>
<!-- Generator: Adobe Illustrator 16.0.0, SVG Export Plug-In . SVG Version: 6.00 Build 0)  -->
<!DOCTYPE svg PUBLIC "-//W3C//DTD SVG 1.1//EN" "http://www.w3.org/Graphics/SVG/1.1/DTD/svg11.dtd">
<svg version="1.1" id="Capa_1" xmlns="http://www.w3.org/2000/svg" xmlns:xlink="http://www.w3.org/1999/xlink" x="0px" y="0px"
	 width="246.958px" height="246.958px" viewBox="0 0 246.958 246.958" style="enable-background:new 0 0 246.958 246.958;"
	 xml:space="preserve">
<g>
	<g>
		<polygon points="199.471,55.842 174.143,55.842 186.804,77.777 		"/>
		<polygon points="136.137,55.842 110.818,55.842 123.479,77.777 		"/>
		<polygon points="72.817,55.842 47.487,55.842 60.157,77.777 		"/>
		<polygon points="44.328,57.668 31.661,79.604 56.991,79.604 		"/>
		<polygon points="88.652,79.604 75.982,57.668 63.322,79.604 		"/>
		<polygon points="170.975,57.668 158.302,79.604 183.636,79.604 		"/>
		<polygon points="189.966,79.604 215.294,79.604 202.633,57.668 		"/>
		<polygon points="158.302,83.259 170.975,105.2 183.636,83.259 		"/>
		<polygon points="126.644,83.259 139.316,105.2 151.978,83.259 		"/>
		<polygon points="120.313,83.259 94.983,83.259 107.644,105.2 		"/>
		<polygon points="63.322,83.259 75.982,105.2 88.652,83.259 		"/>
		<polygon points="12.661,105.2 25.324,83.259 0,83.259 		"/>
		<polygon points="47.487,107.03 72.817,107.03 60.157,85.088 		"/>
		<polygon points="104.479,107.03 91.817,85.088 79.154,107.03 		"/>
		<polygon points="123.479,85.088 110.818,107.03 136.137,107.03 		"/>
		<polygon points="142.479,107.03 167.807,107.03 155.14,85.088 		"/>
		<polygon points="174.143,107.03 199.471,107.03 186.804,85.088 		"/>
		<polygon points="60.157,30.251 47.487,52.187 72.817,52.187 		"/>
		<polygon points="123.479,30.251 110.818,52.187 136.137,52.187 		"/>
		<polygon points="186.804,30.251 174.143,52.187 199.471,52.187 		"/>
		<polygon points="155.14,132.614 167.807,110.682 142.479,110.682 		"/>
		<polygon points="123.479,132.614 136.137,110.682 110.818,110.682 		"/>
		<polygon points="91.817,132.614 104.479,110.682 79.154,110.682 		"/>
		<polygon points="94.983,134.447 120.313,134.447 107.644,112.512 		"/>
		<polygon points="139.316,112.512 126.644,134.447 151.978,134.447 		"/>
		<polygon points="126.644,138.112 139.316,160.041 151.978,138.112 		"/>
		<polygon points="107.644,160.041 120.313,138.112 94.983,138.112 		"/>
		<polygon points="123.479,139.932 110.818,161.861 136.137,161.861 		"/>
		<polygon points="136.137,165.52 110.818,165.52 123.479,187.46 		"/>
		<polygon points="107.644,167.358 94.983,189.287 120.313,189.287 		"/>
		<polygon points="139.316,167.358 126.644,189.287 151.978,189.287 		"/>
		<polygon points="221.63,83.259 234.297,105.2 246.958,83.259 		"/>
		<polygon points="126.644,192.946 139.316,214.88 151.978,192.946 		"/>
		<polygon points="94.983,192.946 107.644,214.88 120.313,192.946 		"/>
		<polygon points="79.154,216.707 104.479,216.707 91.817,194.766 		"/>
		<polygon points="110.818,216.707 136.137,216.707 123.479,194.766 		"/>
		<polygon points="142.479,216.707 167.807,216.707 155.14,194.766 		"/>
	</g>
</g>
<g>
</g>
<g>
</g>
<g>
</g>
<g>
</g>
<g>
</g>
<g>
</g>
<g>
</g>
<g>
</g>
<g>
</g>
<g>
</g>
<g>
</g>
<g>
</g>
<g>
</g>
<g>
</g>
<g>
</g>
</svg>
