<?xml version="1.0" encoding="iso-8859-1"?>
<!-- Generator: Adobe Illustrator 16.0.0, SVG Export Plug-In . SVG Version: 6.00 Build 0)  -->
<!DOCTYPE svg PUBLIC "-//W3C//DTD SVG 1.1//EN" "http://www.w3.org/Graphics/SVG/1.1/DTD/svg11.dtd">
<svg version="1.1" id="Capa_1" xmlns="http://www.w3.org/2000/svg" xmlns:xlink="http://www.w3.org/1999/xlink" x="0px" y="0px"
	 width="227.109px" height="227.109px" viewBox="0 0 227.109 227.109" style="enable-background:new 0 0 227.109 227.109;"
	 xml:space="preserve">
<g>
	<g>
		<polygon points="186.343,211.05 197.987,190.877 174.699,190.877 		"/>
		<polygon points="227.109,90.016 203.815,90.016 215.459,110.188 		"/>
		<polygon points="203.815,137.095 227.109,137.095 215.459,116.921 		"/>
		<polygon points="215.459,211.05 227.109,190.877 203.815,190.877 		"/>
		<polygon points="128.11,211.05 139.754,190.877 116.466,190.877 		"/>
		<polygon points="98.994,211.05 110.644,190.877 87.346,190.877 		"/>
		<polygon points="183.435,64.8 160.14,64.8 171.791,84.974 		"/>
		<polygon points="113.555,84.974 125.202,64.8 101.911,64.8 		"/>
		<polygon points="43.678,64.8 55.322,84.974 66.969,64.8 		"/>
		<polygon points="81.524,86.664 69.88,66.49 58.233,86.664 		"/>
		<polygon points="98.994,66.49 87.346,86.664 110.644,86.664 		"/>
		<polygon points="128.11,66.49 116.466,86.664 139.754,86.664 		"/>
		<polygon points="157.226,66.49 145.583,86.664 168.876,86.664 		"/>
		<polygon points="197.987,86.664 186.343,66.49 174.699,86.664 		"/>
		<polygon points="168.876,90.016 145.583,90.016 157.226,110.188 		"/>
		<polygon points="174.699,90.016 186.343,110.188 197.987,90.016 		"/>
		<polygon points="116.466,90.016 128.11,110.188 139.754,90.016 		"/>
		<polygon points="110.644,90.016 87.346,90.016 98.994,110.188 		"/>
		<polygon points="58.233,90.016 69.88,110.188 81.524,90.016 		"/>
		<polygon points="96.08,111.879 84.436,91.706 72.791,111.879 		"/>
		<polygon points="125.202,111.879 113.555,91.706 101.911,111.879 		"/>
		<polygon points="154.312,111.879 142.668,91.706 131.024,111.879 		"/>
		<polygon points="160.14,111.879 183.435,111.879 171.791,91.706 		"/>
		<polygon points="212.545,111.879 200.907,91.706 189.251,111.879 		"/>
		<polygon points="0,36.233 23.292,36.233 11.647,16.06 		"/>
		<polygon points="139.754,39.585 116.466,39.585 128.11,59.758 		"/>
		<polygon points="110.644,39.585 87.346,39.585 98.994,59.758 		"/>
		<polygon points="29.114,39.585 40.767,59.758 52.405,39.585 		"/>
		<polygon points="66.969,61.442 55.322,41.27 43.678,61.442 		"/>
		<polygon points="171.791,135.404 183.435,115.23 160.14,115.23 		"/>
		<polygon points="142.668,135.404 154.312,115.23 131.024,115.23 		"/>
		<polygon points="113.555,135.404 125.202,115.23 101.911,115.23 		"/>
		<polygon points="72.791,115.23 84.436,135.404 96.08,115.23 		"/>
		<polygon points="116.466,137.095 139.754,137.095 128.11,116.921 		"/>
		<polygon points="145.583,137.095 168.876,137.095 157.226,116.921 		"/>
		<polygon points="197.987,137.095 186.343,116.921 174.699,137.095 		"/>
		<polygon points="168.876,140.446 145.583,140.446 157.226,160.619 		"/>
		<polygon points="197.987,140.446 174.699,140.446 186.343,160.619 		"/>
		<polygon points="139.754,140.446 116.466,140.446 128.11,160.619 		"/>
		<polygon points="125.202,162.31 113.555,142.137 101.911,162.31 		"/>
		<polygon points="142.668,142.137 131.024,162.31 154.312,162.31 		"/>
		<polygon points="171.791,142.137 160.14,162.31 183.435,162.31 		"/>
		<polygon points="189.251,115.23 200.907,135.404 212.545,115.23 		"/>
		<polygon points="200.907,142.137 189.251,162.31 212.545,162.31 		"/>
		<polygon points="160.14,165.667 171.791,185.841 183.435,165.667 		"/>
		<polygon points="131.024,165.667 142.668,185.841 154.312,165.667 		"/>
		<polygon points="101.911,165.667 113.555,185.841 125.202,165.667 		"/>
		<polygon points="87.346,187.525 110.644,187.525 98.994,167.352 		"/>
		<polygon points="116.466,187.525 139.754,187.525 128.11,167.352 		"/>
		<polygon points="145.583,187.525 168.876,187.525 157.226,167.352 		"/>
		<polygon points="174.699,187.525 197.987,187.525 186.343,167.352 		"/>
		<polygon points="215.459,160.619 227.109,140.446 203.815,140.446 		"/>
		<polygon points="203.815,187.525 227.109,187.525 215.459,167.352 		"/>
		<polygon points="189.251,165.667 200.907,185.841 212.545,165.667 		"/>
	</g>
</g>
<g>
</g>
<g>
</g>
<g>
</g>
<g>
</g>
<g>
</g>
<g>
</g>
<g>
</g>
<g>
</g>
<g>
</g>
<g>
</g>
<g>
</g>
<g>
</g>
<g>
</g>
<g>
</g>
<g>
</g>
</svg>
