<?xml version="1.0" encoding="iso-8859-1"?>
<!-- Generator: Adobe Illustrator 16.0.0, SVG Export Plug-In . SVG Version: 6.00 Build 0)  -->
<!DOCTYPE svg PUBLIC "-//W3C//DTD SVG 1.1//EN" "http://www.w3.org/Graphics/SVG/1.1/DTD/svg11.dtd">
<svg version="1.1" id="Capa_1" xmlns="http://www.w3.org/2000/svg" xmlns:xlink="http://www.w3.org/1999/xlink" x="0px" y="0px"
	 width="221.346px" height="221.347px" viewBox="0 0 221.346 221.347" style="enable-background:new 0 0 221.346 221.347;"
	 xml:space="preserve">
<g>
	<g>
		<polygon points="110.673,48.979 95.409,75.421 125.935,75.421 		"/>
		<polygon points="110.673,172.367 125.935,145.922 95.409,145.922 		"/>
		<polygon points="152.652,46.769 167.919,73.22 183.187,46.769 		"/>
		<polygon points="68.692,46.769 38.163,46.769 53.427,73.22 		"/>
		<polygon points="34.351,48.979 19.086,75.421 49.615,75.421 		"/>
		<polygon points="202.26,75.421 186.993,48.979 171.732,75.421 		"/>
		<polygon points="186.993,106.261 202.26,79.822 171.732,79.822 		"/>
		<polygon points="110.673,106.261 125.935,79.822 95.409,79.822 		"/>
		<polygon points="49.615,79.822 19.086,79.822 34.351,106.261 		"/>
		<polygon points="15.265,82.033 0,108.469 30.529,108.469 		"/>
		<polygon points="76.332,108.469 106.861,108.469 91.596,82.033 		"/>
		<polygon points="129.753,82.033 114.486,108.469 145.015,108.469 		"/>
		<polygon points="221.346,108.469 206.084,82.033 190.818,108.469 		"/>
		<polygon points="164.101,13.722 133.572,13.722 148.833,40.167 		"/>
		<polygon points="125.935,13.722 95.409,13.722 110.673,40.167 		"/>
		<polygon points="87.775,13.722 57.246,13.722 72.51,40.167 		"/>
		<polygon points="53.427,15.933 38.163,42.368 68.692,42.368 		"/>
		<polygon points="106.861,42.368 91.596,15.933 76.332,42.368 		"/>
		<polygon points="145.015,42.368 129.753,15.933 114.486,42.368 		"/>
		<polygon points="183.187,42.368 167.919,15.933 152.652,42.368 		"/>
		<polygon points="145.015,112.881 114.486,112.881 129.753,139.314 		"/>
		<polygon points="91.596,139.314 106.861,112.881 76.332,112.881 		"/>
		<polygon points="0,112.881 15.265,139.314 30.529,112.881 		"/>
		<polygon points="19.086,141.519 49.615,141.519 34.351,115.086 		"/>
		<polygon points="110.673,115.086 95.409,141.519 125.935,141.519 		"/>
		<polygon points="171.732,141.519 202.26,141.519 186.993,115.086 		"/>
		<polygon points="186.993,172.367 202.26,145.922 171.732,145.922 		"/>
		<polygon points="19.086,145.922 34.351,172.367 49.615,145.922 		"/>
		<polygon points="38.163,174.577 68.692,174.577 53.427,148.127 		"/>
		<polygon points="152.652,174.577 183.187,174.577 167.919,148.127 		"/>
		<polygon points="206.084,139.314 221.346,112.881 190.818,112.881 		"/>
		<polygon points="167.919,205.414 183.187,178.975 152.652,178.975 		"/>
		<polygon points="114.486,178.975 129.753,205.414 145.015,178.975 		"/>
		<polygon points="76.332,178.975 91.596,205.414 106.861,178.975 		"/>
		<polygon points="38.163,178.975 53.427,205.414 68.692,178.975 		"/>
		<polygon points="57.246,207.625 87.775,207.625 72.51,181.18 		"/>
		<polygon points="95.409,207.625 125.935,207.625 110.673,181.18 		"/>
		<polygon points="133.572,207.625 164.101,207.625 148.833,181.18 		"/>
	</g>
</g>
<g>
</g>
<g>
</g>
<g>
</g>
<g>
</g>
<g>
</g>
<g>
</g>
<g>
</g>
<g>
</g>
<g>
</g>
<g>
</g>
<g>
</g>
<g>
</g>
<g>
</g>
<g>
</g>
<g>
</g>
</svg>
