<?xml version="1.0" encoding="iso-8859-1"?>
<!-- Generator: Adobe Illustrator 16.0.0, SVG Export Plug-In . SVG Version: 6.00 Build 0)  -->
<!DOCTYPE svg PUBLIC "-//W3C//DTD SVG 1.1//EN" "http://www.w3.org/Graphics/SVG/1.1/DTD/svg11.dtd">
<svg version="1.1" id="Capa_1" xmlns="http://www.w3.org/2000/svg" xmlns:xlink="http://www.w3.org/1999/xlink" x="0px" y="0px"
	 width="35.886px" height="35.886px" viewBox="0 0 35.886 35.886" style="enable-background:new 0 0 35.886 35.886;"
	 xml:space="preserve">
<g>
	<g>
		<polygon points="20.812,15.074 25.906,13.709 22.177,9.979 		"/>
		<polygon points="15.074,11.488 9.978,12.854 13.709,16.583 		"/>
		<polygon points="19.736,16.151 14.64,17.516 18.371,21.244 		"/>
		<polygon points="23.031,25.908 24.398,20.812 19.302,22.178 		"/>
		<polygon points="28.887,6.999 33.982,5.633 30.253,1.904 		"/>
		<polygon points="26.445,13.17 27.811,8.075 22.716,9.441 		"/>
		<polygon points="30.791,1.365 34.521,5.095 35.886,0 		"/>
		<polygon points="17.399,27.811 22.494,26.445 18.764,22.716 		"/>
		<polygon points="14.103,18.054 12.737,23.148 17.832,21.783 		"/>
		<polygon points="9.44,13.392 8.075,18.486 13.17,17.122 		"/>
		<polygon points="8.272,19.222 12.002,22.951 13.367,17.857 		"/>
		<polygon points="12.934,23.884 16.664,27.613 18.029,22.52 		"/>
		<polygon points="12.396,24.423 11.031,29.518 16.125,28.152 		"/>
		<polygon points="11.463,23.49 7.734,19.761 6.368,24.855 		"/>
		<polygon points="6.998,19.564 1.903,20.929 5.633,24.658 		"/>
		<polygon points="10.295,29.32 11.66,24.227 6.566,25.591 		"/>
		<polygon points="14.957,33.982 16.322,28.888 11.228,30.253 		"/>
		<polygon points="9.324,35.886 14.419,34.521 10.689,30.792 		"/>
		<polygon points="6.027,26.129 4.662,31.225 9.757,29.859 		"/>
		<polygon points="1.365,21.467 0,26.562 5.094,25.195 		"/>
		<polygon points="0.197,27.297 3.926,31.027 5.292,25.932 		"/>
		<polygon points="4.859,31.96 8.589,35.689 9.954,30.594 		"/>
	</g>
</g>
<g>
</g>
<g>
</g>
<g>
</g>
<g>
</g>
<g>
</g>
<g>
</g>
<g>
</g>
<g>
</g>
<g>
</g>
<g>
</g>
<g>
</g>
<g>
</g>
<g>
</g>
<g>
</g>
<g>
</g>
</svg>
