<?xml version="1.0" encoding="iso-8859-1"?>
<!-- Generator: Adobe Illustrator 16.0.0, SVG Export Plug-In . SVG Version: 6.00 Build 0)  -->
<!DOCTYPE svg PUBLIC "-//W3C//DTD SVG 1.1//EN" "http://www.w3.org/Graphics/SVG/1.1/DTD/svg11.dtd">
<svg version="1.1" id="Capa_1" xmlns="http://www.w3.org/2000/svg" xmlns:xlink="http://www.w3.org/1999/xlink" x="0px" y="0px"
	 width="217.896px" height="217.895px" viewBox="0 0 217.896 217.895" style="enable-background:new 0 0 217.896 217.895;"
	 xml:space="preserve">
<g>
	<g>
		<polygon points="108.947,0 87.982,36.316 129.913,36.316 		"/>
		<polygon points="129.913,42.369 87.982,42.369 108.947,78.684 		"/>
		<polygon points="82.739,45.395 61.773,81.71 103.705,81.71 		"/>
		<polygon points="156.121,81.71 135.156,45.395 114.19,81.71 		"/>
		<polygon points="114.19,87.763 135.156,124.079 156.121,87.763 		"/>
		<polygon points="61.773,87.763 82.739,124.079 103.705,87.763 		"/>
		<polygon points="35.565,127.105 77.499,127.105 56.531,90.79 		"/>
		<polygon points="87.982,127.105 129.913,127.105 108.947,90.79 		"/>
		<polygon points="161.364,90.79 140.398,127.105 182.33,127.105 		"/>
		<polygon points="108.947,169.473 129.913,133.158 87.982,133.158 		"/>
		<polygon points="87.982,217.895 129.913,217.895 108.947,181.579 		"/>
	</g>
</g>
<g>
</g>
<g>
</g>
<g>
</g>
<g>
</g>
<g>
</g>
<g>
</g>
<g>
</g>
<g>
</g>
<g>
</g>
<g>
</g>
<g>
</g>
<g>
</g>
<g>
</g>
<g>
</g>
<g>
</g>
</svg>
