<?xml version="1.0" encoding="iso-8859-1"?>
<!-- Generator: Adobe Illustrator 16.0.0, SVG Export Plug-In . SVG Version: 6.00 Build 0)  -->
<!DOCTYPE svg PUBLIC "-//W3C//DTD SVG 1.1//EN" "http://www.w3.org/Graphics/SVG/1.1/DTD/svg11.dtd">
<svg version="1.1" id="Capa_1" xmlns="http://www.w3.org/2000/svg" xmlns:xlink="http://www.w3.org/1999/xlink" x="0px" y="0px"
	 width="37.5px" height="37.5px" viewBox="0 0 37.5 37.5" style="enable-background:new 0 0 37.5 37.5;" xml:space="preserve">
<g>
	<g>
		<polygon points="9.104,0 6.532,4.455 11.676,4.455 		"/>
		<polygon points="21.965,0 19.393,4.455 24.538,4.455 		"/>
		<polygon points="24.538,5.198 19.393,5.198 21.965,9.653 		"/>
		<polygon points="11.676,5.198 6.532,5.198 9.104,9.653 		"/>
		<polygon points="18.107,5.198 12.962,5.198 15.535,9.653 		"/>
		<polygon points="14.892,10.024 12.319,5.569 9.747,10.024 		"/>
		<polygon points="21.321,10.024 18.75,5.569 16.178,10.024 		"/>
		<polygon points="16.178,10.768 18.75,15.223 21.321,10.768 		"/>
		<polygon points="12.319,15.223 14.892,10.768 9.747,10.768 		"/>
		<polygon points="15.535,11.139 12.962,15.594 18.107,15.594 		"/>
		<polygon points="15.535,20.792 18.107,16.337 12.962,16.337 		"/>
		<polygon points="14.892,21.163 12.319,16.708 9.747,21.163 		"/>
		<polygon points="18.75,16.708 16.178,21.163 21.321,21.163 		"/>
		<polygon points="21.321,21.906 16.178,21.906 18.75,26.361 		"/>
		<polygon points="12.319,26.361 14.892,21.906 9.747,21.906 		"/>
		<polygon points="9.104,22.277 6.532,26.732 11.676,26.732 		"/>
		<polygon points="15.535,22.277 12.962,26.732 18.107,26.732 		"/>
		<polygon points="19.393,26.732 24.538,26.732 21.965,22.277 		"/>
		<polygon points="21.965,31.932 24.538,27.477 19.393,27.477 		"/>
		<polygon points="12.962,27.477 15.535,31.932 18.107,27.477 		"/>
		<polygon points="6.532,27.477 9.104,31.932 11.676,27.477 		"/>
		<polygon points="9.747,32.302 14.892,32.302 12.319,27.848 		"/>
		<polygon points="16.178,32.302 21.321,32.302 18.75,27.848 		"/>
		<polygon points="18.75,37.5 21.321,33.045 16.178,33.045 		"/>
		<polygon points="12.319,37.5 14.892,33.045 9.747,33.045 		"/>
		<polygon points="28.396,11.139 25.824,15.594 30.968,15.594 		"/>
		<polygon points="28.396,20.792 30.968,16.337 25.824,16.337 		"/>
		<polygon points="25.181,26.361 27.753,21.906 22.608,21.906 		"/>
	</g>
</g>
<g>
</g>
<g>
</g>
<g>
</g>
<g>
</g>
<g>
</g>
<g>
</g>
<g>
</g>
<g>
</g>
<g>
</g>
<g>
</g>
<g>
</g>
<g>
</g>
<g>
</g>
<g>
</g>
<g>
</g>
</svg>
