<?xml version="1.0" encoding="iso-8859-1"?>
<!-- Generator: Adobe Illustrator 16.0.0, SVG Export Plug-In . SVG Version: 6.00 Build 0)  -->
<!DOCTYPE svg PUBLIC "-//W3C//DTD SVG 1.1//EN" "http://www.w3.org/Graphics/SVG/1.1/DTD/svg11.dtd">
<svg version="1.1" id="Capa_1" xmlns="http://www.w3.org/2000/svg" xmlns:xlink="http://www.w3.org/1999/xlink" x="0px" y="0px"
	 width="175.526px" height="175.526px" viewBox="0 0 175.526 175.526" style="enable-background:new 0 0 175.526 175.526;"
	 xml:space="preserve">
<g>
	<g>
		<polygon points="0,66.797 0,108.729 36.316,87.763 		"/>
		<polygon points="3.026,113.972 39.342,134.937 39.342,93.006 		"/>
		<polygon points="3.026,61.555 39.342,82.52 39.342,40.589 		"/>
		<polygon points="45.395,40.589 45.395,82.52 81.71,61.549 		"/>
		<polygon points="45.395,93.006 45.395,134.937 81.71,113.972 		"/>
		<polygon points="48.421,140.18 84.737,161.146 84.737,119.214 		"/>
		<polygon points="48.421,35.346 84.737,56.306 84.737,14.381 		"/>
		<polygon points="90.789,14.381 90.789,56.306 127.105,35.346 		"/>
		<polygon points="90.789,119.214 90.789,161.146 127.105,140.18 		"/>
		<polygon points="93.815,113.972 130.132,134.937 130.132,93.006 		"/>
		<polygon points="93.815,61.549 130.132,82.514 130.132,40.589 		"/>
		<polygon points="136.185,40.589 136.185,82.514 172.5,61.549 		"/>
		<polygon points="136.185,93.006 136.185,134.937 172.5,113.972 		"/>
		<polygon points="139.211,87.763 175.526,108.723 175.526,66.797 		"/>
	</g>
</g>
<g>
</g>
<g>
</g>
<g>
</g>
<g>
</g>
<g>
</g>
<g>
</g>
<g>
</g>
<g>
</g>
<g>
</g>
<g>
</g>
<g>
</g>
<g>
</g>
<g>
</g>
<g>
</g>
<g>
</g>
</svg>
