<?xml version="1.0" encoding="iso-8859-1"?>
<!-- Generator: Adobe Illustrator 16.0.0, SVG Export Plug-In . SVG Version: 6.00 Build 0)  -->
<!DOCTYPE svg PUBLIC "-//W3C//DTD SVG 1.1//EN" "http://www.w3.org/Graphics/SVG/1.1/DTD/svg11.dtd">
<svg version="1.1" id="Capa_1" xmlns="http://www.w3.org/2000/svg" xmlns:xlink="http://www.w3.org/1999/xlink" x="0px" y="0px"
	 width="38px" height="38px" viewBox="0 0 38 38" style="enable-background:new 0 0 38 38;" xml:space="preserve">
<g>
	<g>
		<polygon points="21.991,12.954 16.009,12.954 19,18.137 		"/>
		<polygon points="12.269,18.568 18.252,18.568 15.261,13.387 		"/>
		<polygon points="22.739,13.387 19.748,18.568 25.731,18.568 		"/>
		<polygon points="25.731,19.432 19.748,19.432 22.739,24.613 		"/>
		<polygon points="15.261,24.613 18.252,19.432 12.269,19.432 		"/>
		<polygon points="19,19.863 16.009,25.046 21.991,25.046 		"/>
		<polygon points="22.739,11.659 25.731,6.478 19.748,6.478 		"/>
		<polygon points="18.252,6.478 12.269,6.478 15.261,11.659 		"/>
		<polygon points="11.521,6.909 8.529,12.091 14.513,12.091 		"/>
		<polygon points="29.472,12.091 26.479,6.909 23.487,12.091 		"/>
		<polygon points="10.772,18.568 7.781,13.387 4.79,18.568 		"/>
		<polygon points="33.21,18.568 30.22,13.387 27.228,18.568 		"/>
		<polygon points="27.228,19.432 30.22,24.613 33.21,19.432 		"/>
		<polygon points="4.79,19.432 7.781,24.613 10.772,19.432 		"/>
		<polygon points="26.479,31.091 29.472,25.909 23.487,25.909 		"/>
		<polygon points="8.529,25.909 11.521,31.091 14.513,25.909 		"/>
		<polygon points="15.261,26.341 12.269,31.521 18.252,31.521 		"/>
		<polygon points="19.748,31.521 25.731,31.521 22.739,26.341 		"/>
		<polygon points="4.042,6.909 1.05,12.091 7.033,12.091 		"/>
		<polygon points="33.958,6.909 30.967,12.091 36.95,12.091 		"/>
		<polygon points="21.991,0 16.009,0 19,5.182 		"/>
		<polygon points="33.958,31.091 36.95,25.909 30.967,25.909 		"/>
		<polygon points="4.042,31.091 7.033,25.909 1.05,25.909 		"/>
		<polygon points="16.009,38 21.991,38 19,32.818 		"/>
	</g>
</g>
<g>
</g>
<g>
</g>
<g>
</g>
<g>
</g>
<g>
</g>
<g>
</g>
<g>
</g>
<g>
</g>
<g>
</g>
<g>
</g>
<g>
</g>
<g>
</g>
<g>
</g>
<g>
</g>
<g>
</g>
</svg>
