<?xml version="1.0" encoding="iso-8859-1"?>
<!-- Generator: Adobe Illustrator 16.0.0, SVG Export Plug-In . SVG Version: 6.00 Build 0)  -->
<!DOCTYPE svg PUBLIC "-//W3C//DTD SVG 1.1//EN" "http://www.w3.org/Graphics/SVG/1.1/DTD/svg11.dtd">
<svg version="1.1" id="Capa_1" xmlns="http://www.w3.org/2000/svg" xmlns:xlink="http://www.w3.org/1999/xlink" x="0px" y="0px"
	 width="220.413px" height="220.413px" viewBox="0 0 220.413 220.413" style="enable-background:new 0 0 220.413 220.413;"
	 xml:space="preserve">
<g>
	<g>
		<polygon points="201.416,46.571 171.01,46.571 186.212,72.901 		"/>
		<polygon points="163.409,46.571 133.016,46.571 148.207,72.901 		"/>
		<polygon points="87.4,46.571 57.003,46.571 72.215,72.901 		"/>
		<polygon points="49.402,46.571 19,46.571 34.197,72.901 		"/>
		<polygon points="15.206,48.776 0,75.1 30.396,75.1 		"/>
		<polygon points="91.206,48.776 76.003,75.1 106.406,75.1 		"/>
		<polygon points="129.209,48.776 114.007,75.1 144.412,75.1 		"/>
		<polygon points="205.222,48.776 190.019,75.1 220.413,75.1 		"/>
		<polygon points="182.418,79.491 152.013,79.491 167.215,105.815 		"/>
		<polygon points="220.413,79.491 190.019,79.491 205.222,105.815 		"/>
		<polygon points="144.412,79.491 114.007,79.491 129.209,105.815 		"/>
		<polygon points="106.406,79.491 76.003,79.491 91.206,105.815 		"/>
		<polygon points="68.399,79.491 37.998,79.491 53.203,105.815 		"/>
		<polygon points="30.396,79.491 0,79.491 15.206,105.815 		"/>
		<polygon points="34.197,81.685 19,108.014 49.402,108.014 		"/>
		<polygon points="110.212,81.685 95.001,108.014 125.415,108.014 		"/>
		<polygon points="186.212,81.685 171.01,108.014 201.416,108.014 		"/>
		<polygon points="182.418,13.663 152.013,13.663 167.215,39.987 		"/>
		<polygon points="68.399,13.663 37.998,13.663 53.203,39.987 		"/>
		<polygon points="34.197,15.856 19,42.191 49.402,42.191 		"/>
		<polygon points="72.215,15.856 57.003,42.191 87.4,42.191 		"/>
		<polygon points="148.207,15.856 133.016,42.191 163.409,42.191 		"/>
		<polygon points="186.212,15.856 171.01,42.191 201.416,42.191 		"/>
		<polygon points="201.416,112.396 171.01,112.396 186.212,138.729 		"/>
		<polygon points="125.415,112.396 95.001,112.396 110.212,138.729 		"/>
		<polygon points="49.402,112.396 19,112.396 34.197,138.729 		"/>
		<polygon points="15.206,114.596 0,140.922 30.396,140.922 		"/>
		<polygon points="53.203,114.596 37.998,140.922 68.399,140.922 		"/>
		<polygon points="91.206,114.596 76.003,140.922 106.406,140.922 		"/>
		<polygon points="129.209,114.596 114.007,140.922 144.412,140.922 		"/>
		<polygon points="167.215,114.596 152.013,140.922 182.418,140.922 		"/>
		<polygon points="205.222,114.596 190.019,140.922 220.413,140.922 		"/>
		<polygon points="220.413,145.313 190.019,145.313 205.222,171.635 		"/>
		<polygon points="144.412,145.313 114.007,145.313 129.209,171.635 		"/>
		<polygon points="106.406,145.313 76.003,145.313 91.206,171.635 		"/>
		<polygon points="30.396,145.313 0,145.313 15.206,171.635 		"/>
		<polygon points="34.197,147.507 19,173.845 49.402,173.845 		"/>
		<polygon points="72.215,147.507 57.003,173.845 87.4,173.845 		"/>
		<polygon points="148.207,147.507 133.016,173.845 163.409,173.845 		"/>
		<polygon points="186.212,147.507 171.01,173.845 201.416,173.845 		"/>
		<polygon points="201.416,178.23 171.01,178.23 186.212,204.558 		"/>
		<polygon points="163.409,178.23 133.016,178.23 148.207,204.558 		"/>
		<polygon points="87.4,178.23 57.003,178.23 72.215,204.558 		"/>
		<polygon points="49.402,178.23 19,178.23 34.197,204.558 		"/>
		<polygon points="53.203,180.418 37.998,206.75 68.399,206.75 		"/>
		<polygon points="167.215,180.418 152.013,206.75 182.418,206.75 		"/>
	</g>
</g>
<g>
</g>
<g>
</g>
<g>
</g>
<g>
</g>
<g>
</g>
<g>
</g>
<g>
</g>
<g>
</g>
<g>
</g>
<g>
</g>
<g>
</g>
<g>
</g>
<g>
</g>
<g>
</g>
<g>
</g>
</svg>
