<?xml version="1.0" encoding="iso-8859-1"?>
<!-- Generator: Adobe Illustrator 16.0.0, SVG Export Plug-In . SVG Version: 6.00 Build 0)  -->
<!DOCTYPE svg PUBLIC "-//W3C//DTD SVG 1.1//EN" "http://www.w3.org/Graphics/SVG/1.1/DTD/svg11.dtd">
<svg version="1.1" id="Capa_1" xmlns="http://www.w3.org/2000/svg" xmlns:xlink="http://www.w3.org/1999/xlink" x="0px" y="0px"
	 width="232.239px" height="232.239px" viewBox="0 0 232.239 232.239" style="enable-background:new 0 0 232.239 232.239;"
	 xml:space="preserve">
<g>
	<g>
		<polygon points="212.22,65.26 180.184,65.26 196.196,93 		"/>
		<polygon points="132.135,65.26 100.099,65.26 116.12,93 		"/>
		<polygon points="52.053,65.26 20.022,65.26 36.038,93 		"/>
		<polygon points="36.038,102.247 20.022,129.993 52.053,129.993 		"/>
		<polygon points="116.12,102.247 100.099,129.993 132.135,129.993 		"/>
		<polygon points="196.196,102.247 180.184,129.993 212.22,129.993 		"/>
		<polygon points="36.038,32.896 20.022,60.635 52.053,60.635 		"/>
		<polygon points="116.12,32.896 100.099,60.635 132.135,60.635 		"/>
		<polygon points="196.196,32.896 180.184,60.635 212.22,60.635 		"/>
		<polygon points="212.22,134.621 180.184,134.621 196.196,162.354 		"/>
		<polygon points="132.135,134.621 100.099,134.621 116.12,162.354 		"/>
		<polygon points="52.053,134.621 20.022,134.621 36.038,162.354 		"/>
		<polygon points="16.021,136.925 0,164.67 32.03,164.67 		"/>
		<polygon points="56.061,136.925 40.045,164.67 72.076,164.67 		"/>
		<polygon points="96.097,136.925 80.082,164.67 112.118,164.67 		"/>
		<polygon points="136.143,136.925 120.121,164.67 152.154,164.67 		"/>
		<polygon points="176.176,136.925 160.164,164.67 192.194,164.67 		"/>
		<polygon points="216.216,136.925 200.209,164.67 232.239,164.67 		"/>
		<polygon points="192.194,169.292 160.164,169.292 176.176,197.032 		"/>
		<polygon points="232.239,169.292 200.209,169.292 216.216,197.032 		"/>
		<polygon points="152.154,169.292 120.121,169.292 136.143,197.032 		"/>
		<polygon points="112.118,169.292 80.082,169.292 96.097,197.032 		"/>
		<polygon points="72.076,169.292 40.045,169.292 56.061,197.032 		"/>
		<polygon points="32.03,169.292 0,169.292 16.021,197.032 		"/>
		<polygon points="36.038,171.604 20.022,199.343 52.053,199.343 		"/>
		<polygon points="116.12,171.604 100.099,199.343 132.135,199.343 		"/>
		<polygon points="196.196,171.604 180.184,199.343 212.22,199.343 		"/>
	</g>
</g>
<g>
</g>
<g>
</g>
<g>
</g>
<g>
</g>
<g>
</g>
<g>
</g>
<g>
</g>
<g>
</g>
<g>
</g>
<g>
</g>
<g>
</g>
<g>
</g>
<g>
</g>
<g>
</g>
<g>
</g>
</svg>
