<?xml version="1.0" encoding="iso-8859-1"?>
<!-- Generator: Adobe Illustrator 16.0.0, SVG Export Plug-In . SVG Version: 6.00 Build 0)  -->
<!DOCTYPE svg PUBLIC "-//W3C//DTD SVG 1.1//EN" "http://www.w3.org/Graphics/SVG/1.1/DTD/svg11.dtd">
<svg version="1.1" id="Capa_1" xmlns="http://www.w3.org/2000/svg" xmlns:xlink="http://www.w3.org/1999/xlink" x="0px" y="0px"
	 width="172.5px" height="172.5px" viewBox="0 0 172.5 172.5" style="enable-background:new 0 0 172.5 172.5;" xml:space="preserve"
	>
<g>
	<g>
		<polygon points="172.5,159.632 172.5,117.701 136.185,138.667 		"/>
		<polygon points="172.5,107.215 172.5,65.284 136.185,86.25 		"/>
		<polygon points="172.5,54.801 172.5,12.868 136.185,33.833 		"/>
		<polygon points="169.474,60.042 133.158,39.076 133.158,81.007 		"/>
		<polygon points="169.474,112.458 133.158,91.493 133.158,133.423 		"/>
		<polygon points="127.105,133.423 127.105,91.493 90.789,112.458 		"/>
		<polygon points="127.105,81.007 127.105,39.076 90.789,60.042 		"/>
		<polygon points="124.079,86.25 87.764,65.284 87.764,107.215 		"/>
		<polygon points="81.71,107.215 81.71,65.284 45.395,86.25 		"/>
		<polygon points="36.316,133.423 36.316,91.493 0,112.458 		"/>
	</g>
</g>
<g>
</g>
<g>
</g>
<g>
</g>
<g>
</g>
<g>
</g>
<g>
</g>
<g>
</g>
<g>
</g>
<g>
</g>
<g>
</g>
<g>
</g>
<g>
</g>
<g>
</g>
<g>
</g>
<g>
</g>
</svg>
