<?xml version="1.0" encoding="iso-8859-1"?>
<!-- Generator: Adobe Illustrator 16.0.0, SVG Export Plug-In . SVG Version: 6.00 Build 0)  -->
<!DOCTYPE svg PUBLIC "-//W3C//DTD SVG 1.1//EN" "http://www.w3.org/Graphics/SVG/1.1/DTD/svg11.dtd">
<svg version="1.1" id="Capa_1" xmlns="http://www.w3.org/2000/svg" xmlns:xlink="http://www.w3.org/1999/xlink" x="0px" y="0px"
	 width="34.943px" height="34.943px" viewBox="0 0 34.943 34.943" style="enable-background:new 0 0 34.943 34.943;"
	 xml:space="preserve">
<g>
	<g>
		<polygon points="2.598,12.734 6.701,12.734 4.65,9.18 		"/>
		<polygon points="30.293,9.18 28.242,12.734 32.346,12.734 		"/>
		<polygon points="25.164,16.879 27.216,13.326 23.113,13.326 		"/>
		<polygon points="11.83,13.326 7.728,13.326 9.78,16.879 		"/>
		<polygon points="14.395,17.176 12.344,13.622 10.291,17.176 		"/>
		<polygon points="22.601,13.622 20.549,17.176 24.652,17.176 		"/>
		<polygon points="20.549,17.768 22.601,21.322 24.652,17.768 		"/>
		<polygon points="10.291,17.768 12.344,21.322 14.395,17.768 		"/>
		<polygon points="7.728,21.618 11.83,21.618 9.78,18.064 		"/>
		<polygon points="23.113,21.618 27.216,21.618 25.164,18.064 		"/>
		<polygon points="28.242,22.209 30.293,25.764 32.346,22.209 		"/>
		<polygon points="4.65,25.764 6.701,22.209 2.598,22.209 		"/>
		<polygon points="19.522,8.884 15.42,8.884 17.473,12.437 		"/>
		<polygon points="14.908,9.18 12.855,12.734 16.958,12.734 		"/>
		<polygon points="22.088,12.734 20.037,9.18 17.984,12.734 		"/>
		<polygon points="20.037,16.879 22.088,13.326 17.984,13.326 		"/>
		<polygon points="16.958,13.326 12.855,13.326 14.908,16.879 		"/>
		<polygon points="19.522,0 15.42,0 17.473,3.554 		"/>
		<polygon points="17.473,4.739 15.42,8.292 19.522,8.292 		"/>
		<polygon points="12.855,21.618 16.958,21.618 14.908,18.064 		"/>
		<polygon points="17.984,21.618 22.088,21.618 20.037,18.064 		"/>
		<polygon points="20.037,25.764 22.088,22.209 17.984,22.209 		"/>
		<polygon points="12.855,22.209 14.908,25.764 16.958,22.209 		"/>
		<polygon points="15.42,26.059 19.522,26.059 17.473,22.506 		"/>
		<polygon points="17.473,30.204 19.522,26.651 15.42,26.651 		"/>
		<polygon points="15.42,34.943 19.522,34.943 17.473,31.389 		"/>
	</g>
</g>
<g>
</g>
<g>
</g>
<g>
</g>
<g>
</g>
<g>
</g>
<g>
</g>
<g>
</g>
<g>
</g>
<g>
</g>
<g>
</g>
<g>
</g>
<g>
</g>
<g>
</g>
<g>
</g>
<g>
</g>
</svg>
