<?xml version="1.0" encoding="iso-8859-1"?>
<!-- Generator: Adobe Illustrator 16.0.0, SVG Export Plug-In . SVG Version: 6.00 Build 0)  -->
<!DOCTYPE svg PUBLIC "-//W3C//DTD SVG 1.1//EN" "http://www.w3.org/Graphics/SVG/1.1/DTD/svg11.dtd">
<svg version="1.1" id="Capa_1" xmlns="http://www.w3.org/2000/svg" xmlns:xlink="http://www.w3.org/1999/xlink" x="0px" y="0px"
	 width="216.311px" height="216.311px" viewBox="0 0 216.311 216.311" style="enable-background:new 0 0 216.311 216.311;"
	 xml:space="preserve">
<g>
	<g>
		<polygon points="27.261,179.439 61.321,179.439 44.301,149.944 		"/>
		<polygon points="69.836,179.439 103.894,179.439 86.874,149.944 		"/>
		<polygon points="112.417,179.439 146.475,179.439 129.446,149.944 		"/>
		<polygon points="154.992,179.439 189.038,179.439 172.016,149.944 		"/>
		<polygon points="193.306,176.986 210.329,147.485 176.271,147.485 		"/>
		<polygon points="150.736,176.986 167.76,147.485 133.702,147.485 		"/>
		<polygon points="65.58,176.986 82.606,147.485 48.554,147.485 		"/>
		<polygon points="23.014,176.986 40.04,147.485 5.982,147.485 		"/>
		<polygon points="5.982,142.58 40.04,142.58 23.014,113.073 		"/>
		<polygon points="176.271,142.58 210.329,142.58 193.306,113.073 		"/>
		<polygon points="172.016,140.115 189.038,110.614 154.992,110.614 		"/>
		<polygon points="44.301,140.115 61.321,110.614 27.261,110.614 		"/>
		<polygon points="91.124,216.311 125.179,216.311 108.155,186.815 		"/>
		<polygon points="129.446,213.857 146.475,184.357 112.417,184.357 		"/>
		<polygon points="86.874,213.857 103.894,184.357 69.836,184.357 		"/>
		<polygon points="27.261,105.696 61.321,105.696 44.301,76.205 		"/>
		<polygon points="154.992,105.696 189.038,105.696 172.016,76.205 		"/>
		<polygon points="193.306,103.238 210.329,73.74 176.271,73.74 		"/>
		<polygon points="23.014,103.238 40.04,73.74 5.982,73.74 		"/>
		<polygon points="5.982,68.825 40.04,68.825 23.014,39.331 		"/>
		<polygon points="48.554,68.825 82.606,68.825 65.58,39.331 		"/>
		<polygon points="133.702,68.825 167.76,68.825 150.736,39.331 		"/>
		<polygon points="176.271,68.825 210.329,68.825 193.306,39.331 		"/>
		<polygon points="172.016,66.369 189.038,36.875 154.992,36.875 		"/>
		<polygon points="129.446,66.369 146.475,36.875 112.417,36.875 		"/>
		<polygon points="86.874,66.369 103.894,36.875 69.836,36.875 		"/>
		<polygon points="44.301,66.369 61.321,36.875 27.261,36.875 		"/>
		<polygon points="69.836,31.954 103.894,31.954 86.874,2.459 		"/>
		<polygon points="112.417,31.954 146.475,31.954 129.446,2.459 		"/>
		<polygon points="108.155,29.495 125.179,0 91.124,0 		"/>
	</g>
</g>
<g>
</g>
<g>
</g>
<g>
</g>
<g>
</g>
<g>
</g>
<g>
</g>
<g>
</g>
<g>
</g>
<g>
</g>
<g>
</g>
<g>
</g>
<g>
</g>
<g>
</g>
<g>
</g>
<g>
</g>
</svg>
