<?xml version="1.0" encoding="iso-8859-1"?>
<!-- Generator: Adobe Illustrator 16.0.0, SVG Export Plug-In . SVG Version: 6.00 Build 0)  -->
<!DOCTYPE svg PUBLIC "-//W3C//DTD SVG 1.1//EN" "http://www.w3.org/Graphics/SVG/1.1/DTD/svg11.dtd">
<svg version="1.1" id="Capa_1" xmlns="http://www.w3.org/2000/svg" xmlns:xlink="http://www.w3.org/1999/xlink" x="0px" y="0px"
	 width="222.641px" height="222.641px" viewBox="0 0 222.641 222.641" style="enable-background:new 0 0 222.641 222.641;"
	 xml:space="preserve">
<g>
	<g>
		<polygon points="111.315,0 95.19,27.94 127.445,27.94 		"/>
		<polygon points="127.445,32.595 95.19,32.595 111.315,60.526 		"/>
		<polygon points="95.19,222.641 127.445,222.641 111.315,194.701 		"/>
		<polygon points="33.054,63.812 0.801,63.819 16.929,91.747 		"/>
		<polygon points="53.215,94.082 37.091,66.144 20.96,94.076 		"/>
		<polygon points="169.424,161.168 185.548,189.097 201.685,161.163 		"/>
		<polygon points="189.579,191.426 221.834,191.432 205.716,163.492 		"/>
		<polygon points="0.801,191.432 33.054,191.426 16.923,163.492 		"/>
		<polygon points="37.091,189.103 53.215,161.168 20.96,161.163 		"/>
		<polygon points="185.548,66.138 169.424,94.082 201.673,94.076 		"/>
		<polygon points="221.84,63.819 189.579,63.812 205.704,91.752 		"/>
		<polygon points="131.323,88.466 147.317,60.75 115.316,60.75 		"/>
		<polygon points="107.319,60.75 75.318,60.75 91.316,88.466 		"/>
		<polygon points="71.32,63.056 55.316,90.771 87.317,90.771 		"/>
		<polygon points="111.321,63.056 95.317,90.771 127.315,90.771 		"/>
		<polygon points="167.319,90.771 151.313,63.056 135.318,90.771 		"/>
		<polygon points="135.318,95.391 151.313,123.11 167.319,95.391 		"/>
		<polygon points="87.317,95.391 55.316,95.391 71.32,123.11 		"/>
		<polygon points="51.315,97.702 35.312,125.415 67.312,125.415 		"/>
		<polygon points="171.321,97.702 155.32,125.415 187.321,125.415 		"/>
		<polygon points="171.321,157.747 187.321,130.037 155.32,130.037 		"/>
		<polygon points="51.315,157.747 67.312,130.037 35.312,130.037 		"/>
		<polygon points="71.32,132.348 55.316,160.063 87.317,160.063 		"/>
		<polygon points="135.318,160.063 167.319,160.063 151.313,132.348 		"/>
		<polygon points="151.313,192.395 167.319,164.68 135.318,164.68 		"/>
		<polygon points="111.321,192.395 127.315,164.68 95.317,164.68 		"/>
		<polygon points="55.316,164.68 71.32,192.395 87.317,164.68 		"/>
		<polygon points="91.316,166.991 75.318,194.701 107.319,194.701 		"/>
		<polygon points="115.316,194.701 147.317,194.701 131.323,166.991 		"/>
	</g>
</g>
<g>
</g>
<g>
</g>
<g>
</g>
<g>
</g>
<g>
</g>
<g>
</g>
<g>
</g>
<g>
</g>
<g>
</g>
<g>
</g>
<g>
</g>
<g>
</g>
<g>
</g>
<g>
</g>
<g>
</g>
</svg>
