<?xml version="1.0" encoding="iso-8859-1"?>
<!-- Generator: Adobe Illustrator 16.0.0, SVG Export Plug-In . SVG Version: 6.00 Build 0)  -->
<!DOCTYPE svg PUBLIC "-//W3C//DTD SVG 1.1//EN" "http://www.w3.org/Graphics/SVG/1.1/DTD/svg11.dtd">
<svg version="1.1" id="Capa_1" xmlns="http://www.w3.org/2000/svg" xmlns:xlink="http://www.w3.org/1999/xlink" x="0px" y="0px"
	 width="32.908px" height="32.908px" viewBox="0 0 32.908 32.908" style="enable-background:new 0 0 32.908 32.908;"
	 xml:space="preserve">
<g>
	<g>
		<polygon points="24.248,1.954 17.32,1.954 20.784,7.954 		"/>
		<polygon points="15.588,1.954 8.66,1.954 12.124,7.954 		"/>
		<polygon points="7.794,2.454 4.33,8.454 11.258,8.454 		"/>
		<polygon points="28.578,8.454 25.114,2.454 21.65,8.454 		"/>
		<polygon points="3.464,9.954 0,15.954 6.928,15.954 		"/>
		<polygon points="32.908,15.954 29.444,9.954 25.98,15.954 		"/>
		<polygon points="29.444,22.954 32.908,16.954 25.98,16.954 		"/>
		<polygon points="0,16.954 3.464,22.954 6.928,16.954 		"/>
		<polygon points="25.114,30.454 28.578,24.454 21.65,24.454 		"/>
		<polygon points="4.33,24.454 7.794,30.454 11.258,24.454 		"/>
		<polygon points="8.66,30.954 15.588,30.954 12.124,24.954 		"/>
		<polygon points="17.32,30.954 24.248,30.954 20.784,24.954 		"/>
	</g>
</g>
<g>
</g>
<g>
</g>
<g>
</g>
<g>
</g>
<g>
</g>
<g>
</g>
<g>
</g>
<g>
</g>
<g>
</g>
<g>
</g>
<g>
</g>
<g>
</g>
<g>
</g>
<g>
</g>
<g>
</g>
</svg>
