<?xml version="1.0" encoding="iso-8859-1"?>
<!-- Generator: Adobe Illustrator 16.0.0, SVG Export Plug-In . SVG Version: 6.00 Build 0)  -->
<!DOCTYPE svg PUBLIC "-//W3C//DTD SVG 1.1//EN" "http://www.w3.org/Graphics/SVG/1.1/DTD/svg11.dtd">
<svg version="1.1" id="Capa_1" xmlns="http://www.w3.org/2000/svg" xmlns:xlink="http://www.w3.org/1999/xlink" x="0px" y="0px"
	 width="216.949px" height="216.949px" viewBox="0 0 216.949 216.949" style="enable-background:new 0 0 216.949 216.949;"
	 xml:space="preserve">
<g>
	<g>
		<polygon points="174.014,179.108 191.491,148.839 156.535,148.839 		"/>
		<polygon points="156.535,143.792 191.491,143.792 174.014,113.522 		"/>
		<polygon points="174.014,103.433 191.491,73.158 156.535,73.158 		"/>
		<polygon points="86.631,103.433 104.104,73.158 69.15,73.158 		"/>
		<polygon points="69.15,68.11 104.104,68.11 86.631,37.841 		"/>
		<polygon points="156.535,68.11 191.491,68.11 174.014,37.841 		"/>
		<polygon points="42.93,179.108 60.411,148.839 25.458,148.839 		"/>
		<polygon points="25.458,143.792 60.411,143.792 42.93,113.522 		"/>
		<polygon points="195.865,141.268 213.338,110.999 178.381,110.999 		"/>
		<polygon points="21.087,141.268 38.568,110.999 3.612,110.999 		"/>
		<polygon points="3.612,105.951 38.568,105.951 21.087,75.682 		"/>
		<polygon points="86.631,179.108 104.104,148.839 69.15,148.839 		"/>
		<polygon points="69.15,143.792 104.104,143.792 86.631,113.522 		"/>
		<polygon points="47.307,181.632 82.254,181.632 64.779,151.363 		"/>
		<polygon points="134.695,181.632 169.646,181.632 152.173,151.363 		"/>
		<polygon points="130.314,179.108 147.799,148.839 112.843,148.839 		"/>
		<polygon points="112.843,143.792 147.799,143.792 130.314,113.522 		"/>
		<polygon points="108.475,141.268 125.953,110.999 90.994,110.999 		"/>
		<polygon points="152.173,216.949 169.646,186.68 134.695,186.68 		"/>
		<polygon points="64.779,216.949 82.254,186.68 47.307,186.68 		"/>
		<polygon points="90.994,105.951 125.953,105.951 108.475,75.682 		"/>
		<polygon points="178.381,105.951 213.338,105.951 195.865,75.682 		"/>
		<polygon points="130.314,103.433 147.799,73.158 112.843,73.158 		"/>
		<polygon points="42.93,103.433 60.411,73.158 25.458,73.158 		"/>
		<polygon points="25.458,68.11 60.411,68.11 42.93,37.841 		"/>
		<polygon points="112.843,68.11 147.799,68.11 130.314,37.841 		"/>
		<polygon points="152.173,65.592 169.646,35.317 134.695,35.317 		"/>
		<polygon points="64.779,65.592 82.254,35.317 47.307,35.317 		"/>
		<polygon points="47.307,30.275 82.254,30.275 64.779,0 		"/>
		<polygon points="134.695,30.275 169.646,30.275 152.173,0 		"/>
	</g>
</g>
<g>
</g>
<g>
</g>
<g>
</g>
<g>
</g>
<g>
</g>
<g>
</g>
<g>
</g>
<g>
</g>
<g>
</g>
<g>
</g>
<g>
</g>
<g>
</g>
<g>
</g>
<g>
</g>
<g>
</g>
</svg>
