<?xml version="1.0" encoding="iso-8859-1"?>
<!-- Generator: Adobe Illustrator 16.0.0, SVG Export Plug-In . SVG Version: 6.00 Build 0)  -->
<!DOCTYPE svg PUBLIC "-//W3C//DTD SVG 1.1//EN" "http://www.w3.org/Graphics/SVG/1.1/DTD/svg11.dtd">
<svg version="1.1" id="Capa_1" xmlns="http://www.w3.org/2000/svg" xmlns:xlink="http://www.w3.org/1999/xlink" x="0px" y="0px"
	 width="38.244px" height="38.244px" viewBox="0 0 38.244 38.244" style="enable-background:new 0 0 38.244 38.244;"
	 xml:space="preserve">
<g>
	<g>
		<polygon points="32.62,9.705 28.121,9.705 30.371,13.602 		"/>
		<polygon points="21.372,9.705 16.872,9.705 19.122,13.602 		"/>
		<polygon points="10.123,9.705 5.624,9.705 7.873,13.602 		"/>
		<polygon points="5.061,10.03 2.812,13.927 7.311,13.927 		"/>
		<polygon points="12.935,13.927 10.686,10.03 8.436,13.927 		"/>
		<polygon points="16.31,10.03 14.06,13.927 18.56,13.927 		"/>
		<polygon points="24.184,13.927 21.934,10.03 19.685,13.927 		"/>
		<polygon points="27.559,10.03 25.309,13.927 29.809,13.927 		"/>
		<polygon points="35.432,13.927 33.184,10.03 30.934,13.927 		"/>
		<polygon points="29.809,14.576 25.309,14.576 27.559,18.473 		"/>
		<polygon points="30.934,14.576 33.184,18.473 35.432,14.576 		"/>
		<polygon points="19.685,14.576 21.934,18.473 24.184,14.576 		"/>
		<polygon points="18.56,14.576 14.06,14.576 16.31,18.473 		"/>
		<polygon points="8.436,14.576 10.686,18.473 12.935,14.576 		"/>
		<polygon points="7.311,14.576 2.812,14.576 5.061,18.473 		"/>
		<polygon points="2.249,14.901 0,18.797 4.499,18.797 		"/>
		<polygon points="15.747,18.797 13.498,14.901 11.248,18.797 		"/>
		<polygon points="26.996,18.797 24.746,14.901 22.497,18.797 		"/>
		<polygon points="38.244,18.797 35.995,14.901 33.745,18.797 		"/>
		<polygon points="28.121,19.447 30.371,23.344 32.62,19.447 		"/>
		<polygon points="16.872,19.447 19.122,23.344 21.372,19.447 		"/>
		<polygon points="5.624,19.447 7.873,23.344 10.123,19.447 		"/>
		<polygon points="2.812,23.668 7.311,23.668 5.061,19.771 		"/>
		<polygon points="12.935,23.668 10.686,19.771 8.436,23.668 		"/>
		<polygon points="14.06,23.668 18.56,23.668 16.31,19.771 		"/>
		<polygon points="24.184,23.668 21.934,19.771 19.685,23.668 		"/>
		<polygon points="25.309,23.668 29.809,23.668 27.559,19.771 		"/>
		<polygon points="35.432,23.668 33.184,19.771 30.934,23.668 		"/>
		<polygon points="27.559,28.214 29.809,24.318 25.309,24.318 		"/>
		<polygon points="30.934,24.318 33.184,28.214 35.432,24.318 		"/>
		<polygon points="19.685,24.318 21.934,28.214 24.184,24.318 		"/>
		<polygon points="16.31,28.214 18.56,24.318 14.06,24.318 		"/>
		<polygon points="8.436,24.318 10.686,28.214 12.935,24.318 		"/>
		<polygon points="5.061,28.214 7.311,24.318 2.812,24.318 		"/>
		<polygon points="0,28.539 4.499,28.539 2.249,24.643 		"/>
		<polygon points="11.248,28.539 15.747,28.539 13.498,24.643 		"/>
		<polygon points="22.497,28.539 26.996,28.539 24.746,24.643 		"/>
		<polygon points="33.745,28.539 38.244,28.539 35.995,24.643 		"/>
	</g>
</g>
<g>
</g>
<g>
</g>
<g>
</g>
<g>
</g>
<g>
</g>
<g>
</g>
<g>
</g>
<g>
</g>
<g>
</g>
<g>
</g>
<g>
</g>
<g>
</g>
<g>
</g>
<g>
</g>
<g>
</g>
</svg>
