<?xml version="1.0" encoding="iso-8859-1"?>
<!-- Generator: Adobe Illustrator 16.0.0, SVG Export Plug-In . SVG Version: 6.00 Build 0)  -->
<!DOCTYPE svg PUBLIC "-//W3C//DTD SVG 1.1//EN" "http://www.w3.org/Graphics/SVG/1.1/DTD/svg11.dtd">
<svg version="1.1" id="Capa_1" xmlns="http://www.w3.org/2000/svg" xmlns:xlink="http://www.w3.org/1999/xlink" x="0px" y="0px"
	 width="199.181px" height="199.181px" viewBox="0 0 199.181 199.181" style="enable-background:new 0 0 199.181 199.181;"
	 xml:space="preserve">
<g>
	<g>
		<polygon points="172.972,11.827 131.042,11.827 152.007,48.143 		"/>
		<polygon points="120.556,11.827 78.625,11.827 99.59,48.143 		"/>
		<polygon points="68.142,11.827 26.208,11.827 47.174,48.143 		"/>
		<polygon points="20.965,14.854 0,51.169 41.934,51.169 		"/>
		<polygon points="94.348,51.169 73.382,14.854 52.417,51.169 		"/>
		<polygon points="146.764,51.169 125.798,14.854 104.833,51.169 		"/>
		<polygon points="157.25,51.169 199.181,51.169 178.215,14.854 		"/>
		<polygon points="178.215,93.538 199.181,57.222 157.25,57.222 		"/>
		<polygon points="104.833,57.222 125.798,93.538 146.764,57.222 		"/>
		<polygon points="94.348,57.222 52.417,57.222 73.382,93.538 		"/>
		<polygon points="41.934,57.222 0,57.222 20.965,93.538 		"/>
		<polygon points="47.174,60.248 26.208,96.564 68.142,96.564 		"/>
		<polygon points="152.007,60.248 131.042,96.564 172.972,96.564 		"/>
		<polygon points="152.007,138.933 172.972,102.616 131.042,102.616 		"/>
		<polygon points="47.174,138.933 68.142,102.616 26.208,102.616 		"/>
		<polygon points="20.965,105.643 0,141.959 41.934,141.959 		"/>
		<polygon points="157.25,141.959 199.181,141.959 178.215,105.643 		"/>
		<polygon points="178.215,184.327 199.181,148.012 157.25,148.012 		"/>
		<polygon points="104.833,148.012 125.798,184.327 146.764,148.012 		"/>
		<polygon points="52.417,148.012 73.382,184.327 94.348,148.012 		"/>
		<polygon points="0,148.012 20.965,184.327 41.934,148.012 		"/>
		<polygon points="26.208,187.354 68.142,187.354 47.174,151.037 		"/>
		<polygon points="78.625,187.354 120.556,187.354 99.59,151.037 		"/>
		<polygon points="131.042,187.354 172.972,187.354 152.007,151.037 		"/>
		<polygon points="0,187.354 15.726,187.354 0,160.116 		"/>
		<polygon points="183.458,11.827 199.181,39.064 199.181,11.827 		"/>
		<polygon points="0,102.616 0,129.854 15.726,102.616 		"/>
		<polygon points="199.181,96.564 199.181,69.327 183.458,96.564 		"/>
		<polygon points="0,69.327 0,96.564 15.726,96.564 		"/>
		<polygon points="199.181,129.854 199.181,102.616 183.458,102.616 		"/>
		<polygon points="0,11.827 0,39.064 15.726,11.827 		"/>
		<polygon points="199.181,187.354 199.181,160.116 183.458,187.354 		"/>
	</g>
</g>
<g>
</g>
<g>
</g>
<g>
</g>
<g>
</g>
<g>
</g>
<g>
</g>
<g>
</g>
<g>
</g>
<g>
</g>
<g>
</g>
<g>
</g>
<g>
</g>
<g>
</g>
<g>
</g>
<g>
</g>
</svg>
