<?xml version="1.0" encoding="iso-8859-1"?>
<!-- Generator: Adobe Illustrator 16.0.0, SVG Export Plug-In . SVG Version: 6.00 Build 0)  -->
<!DOCTYPE svg PUBLIC "-//W3C//DTD SVG 1.1//EN" "http://www.w3.org/Graphics/SVG/1.1/DTD/svg11.dtd">
<svg version="1.1" id="Capa_1" xmlns="http://www.w3.org/2000/svg" xmlns:xlink="http://www.w3.org/1999/xlink" x="0px" y="0px"
	 width="209.661px" height="209.661px" viewBox="0 0 209.661 209.661" style="enable-background:new 0 0 209.661 209.661;"
	 xml:space="preserve">
<g>
	<g>
		<polygon points="122.305,14.041 87.355,14.041 104.836,44.304 		"/>
		<polygon points="82.999,16.565 65.518,46.828 100.459,46.828 		"/>
		<polygon points="126.673,16.565 109.202,46.828 144.14,46.828 		"/>
		<polygon points="144.14,51.87 109.202,51.87 126.673,82.133 		"/>
		<polygon points="56.785,51.87 21.837,51.87 39.315,82.133 		"/>
		<polygon points="17.472,54.394 0,84.657 34.941,84.657 		"/>
		<polygon points="104.836,54.394 87.355,84.657 122.305,84.657 		"/>
		<polygon points="148.514,54.394 131.042,84.657 165.986,84.657 		"/>
		<polygon points="165.986,89.699 131.042,89.699 148.514,119.962 		"/>
		<polygon points="122.305,89.699 87.355,89.699 104.836,119.962 		"/>
		<polygon points="82.999,92.223 65.518,122.485 100.459,122.485 		"/>
		<polygon points="126.673,92.223 109.202,122.485 144.14,122.485 		"/>
		<polygon points="170.36,92.223 152.876,122.485 187.821,122.485 		"/>
		<polygon points="187.821,127.528 152.876,127.528 170.36,157.791 		"/>
		<polygon points="144.14,127.528 109.202,127.528 126.673,157.791 		"/>
		<polygon points="100.459,127.528 65.518,127.528 82.999,157.791 		"/>
		<polygon points="61.156,130.052 43.675,160.315 78.622,160.315 		"/>
		<polygon points="104.836,130.052 87.355,160.315 122.305,160.315 		"/>
		<polygon points="148.514,130.052 131.042,160.315 165.986,160.315 		"/>
		<polygon points="192.201,130.052 174.722,160.315 209.661,160.315 		"/>
		<polygon points="209.661,165.356 174.722,165.356 192.201,195.62 		"/>
		<polygon points="165.986,165.356 131.042,165.356 148.514,195.62 		"/>
		<polygon points="122.305,165.356 87.355,165.356 104.836,195.62 		"/>
		<polygon points="78.622,165.356 43.675,165.356 61.156,195.62 		"/>
	</g>
</g>
<g>
</g>
<g>
</g>
<g>
</g>
<g>
</g>
<g>
</g>
<g>
</g>
<g>
</g>
<g>
</g>
<g>
</g>
<g>
</g>
<g>
</g>
<g>
</g>
<g>
</g>
<g>
</g>
<g>
</g>
</svg>
