<svg width="939" height="265" viewBox="0 0 939 265" fill="none" xmlns="http://www.w3.org/2000/svg">
<path fill-rule="evenodd" clip-rule="evenodd" d="M0.327988 65.25C0.629988 125.292 0.801992 130.939 2.48599 136C8.47999 154.008 19.498 164.226 38.594 169.486C47.969 172.069 71.478 172.634 82.594 170.543C100.521 167.173 114.523 157.998 120.555 145.67C126.565 133.384 126.424 135.209 126.835 64.75L127.213 0H110.154H93.094V61.841C93.094 130.883 93.146 130.29 86.461 137.136C81.382 142.338 74.904 144.394 63.594 144.394C48.012 144.394 39.212 139.665 35.719 129.414C34.287 125.211 34.094 117.232 34.094 62.322V0H17.047H0L0.327988 65.25ZM183.094 84.5V169H198.594H214.094V109.917C214.094 63.095 214.353 50.92 215.344 51.249C216.032 51.478 229.388 78.066 245.025 110.333L273.455 169H293.275H313.094V84.5V0H296.594H280.094V57.214C280.094 105.27 279.878 114.194 278.746 112.964C278.004 112.159 265.067 86.416 249.996 55.757L222.594 0.0140076L202.844 0.00700378L183.094 0V84.5ZM345.094 13.5V27H366.594H388.094V98V169H405.094H422.094V98V27H443.594H465.094V13.5V0H405.094H345.094V13.5ZM497.094 84.5V169H513.594H530.094V135.5V102H547.594C557.811 102 565.094 102.39 565.094 102.937C565.094 103.452 570.545 118.527 577.208 136.437L589.322 169H607.208C617.08 169 625.094 168.599 625.094 168.104C625.094 167.611 618.847 151.082 611.211 131.373L597.328 95.537L602.181 92.766C615.693 85.049 623.118 70.061 623.077 50.59C623.041 34.216 618.463 21.476 609.601 13.095C603.287 7.124 598.215 4.461 588.353 1.938C581.447 0.172004 577.057 0 538.934 0H497.094V84.5ZM673.094 84.5V169H730.594H788.094V155.5V142H747.594H707.094V118.5V95H742.594H778.094V81V67H742.594H707.094V47V27H746.094H785.094V13.5V0H729.094H673.094V84.5ZM831.094 84.5V169H847.594H864.094V132V95H897.594H931.094V81V67H897.594H864.094V47V27H901.094H938.094V13.5V0H884.594H831.094V84.5ZM574.586 28.128C579.82 29.906 585.335 35.524 586.868 40.64C588.39 45.719 588.443 55.204 586.979 60.477C585.587 65.491 579.754 71.398 574.571 73.042C572.155 73.808 562.645 74.475 550.344 74.741L530.094 75.178V50.474V25.77L550.344 26.271C563.503 26.597 571.992 27.247 574.586 28.128ZM0.0939941 247.5V265H469.094H938.094V247.5V230H469.094H0.0939941V247.5Z" fill="white"/>
</svg>
